G75*
%MOIN*%
%OFA0B0*%
%FSLAX25Y25*%
%IPPOS*%
%LPD*%
%AMOC8*
5,1,8,0,0,1.08239X$1,22.5*
%
%ADD10R,0.07874X0.04724*%
%ADD11R,0.05315X0.02362*%
%ADD12C,0.07400*%
%ADD13C,0.01200*%
%ADD14C,0.03500*%
D10*
X0055031Y0082310D03*
X0055031Y0104357D03*
X0055031Y0114310D03*
X0055031Y0136357D03*
X0055031Y0146310D03*
X0055031Y0168357D03*
X0055031Y0178310D03*
X0055031Y0200357D03*
X0055031Y0210310D03*
X0055031Y0232357D03*
X0055031Y0242310D03*
X0055031Y0264357D03*
X0055031Y0274310D03*
X0055031Y0296357D03*
X0055031Y0306310D03*
X0055031Y0328357D03*
X0133969Y0328357D03*
X0147031Y0328357D03*
X0147031Y0306310D03*
X0133969Y0306310D03*
X0133969Y0296357D03*
X0147031Y0296357D03*
X0147031Y0274310D03*
X0133969Y0274310D03*
X0133969Y0264357D03*
X0147031Y0264357D03*
X0147031Y0242310D03*
X0133969Y0242310D03*
X0133969Y0232357D03*
X0147031Y0232357D03*
X0147031Y0210310D03*
X0133969Y0210310D03*
X0133969Y0200357D03*
X0147031Y0200357D03*
X0147031Y0178310D03*
X0133969Y0178310D03*
X0133969Y0168357D03*
X0147031Y0168357D03*
X0147031Y0146310D03*
X0147031Y0136357D03*
X0133969Y0136357D03*
X0133969Y0146310D03*
X0133969Y0114310D03*
X0133969Y0104357D03*
X0147031Y0104357D03*
X0147031Y0114310D03*
X0147031Y0082310D03*
X0133969Y0082310D03*
X0225969Y0082310D03*
X0239031Y0082310D03*
X0239031Y0104357D03*
X0239031Y0114310D03*
X0225969Y0114310D03*
X0225969Y0104357D03*
X0225969Y0136357D03*
X0225969Y0146310D03*
X0239031Y0146310D03*
X0239031Y0136357D03*
X0239031Y0168357D03*
X0239031Y0178310D03*
X0225969Y0178310D03*
X0225969Y0168357D03*
X0225969Y0200357D03*
X0225969Y0210310D03*
X0239031Y0210310D03*
X0239031Y0200357D03*
X0239031Y0232357D03*
X0239031Y0242310D03*
X0225969Y0242310D03*
X0225969Y0232357D03*
X0225969Y0264357D03*
X0225969Y0274310D03*
X0239031Y0274310D03*
X0239031Y0264357D03*
X0239031Y0296357D03*
X0239031Y0306310D03*
X0225969Y0306310D03*
X0225969Y0296357D03*
X0225969Y0328357D03*
X0239031Y0328357D03*
X0317969Y0328357D03*
X0331031Y0328357D03*
X0331031Y0306310D03*
X0331031Y0296357D03*
X0317969Y0296357D03*
X0317969Y0306310D03*
X0317969Y0274310D03*
X0317969Y0264357D03*
X0331031Y0264357D03*
X0331031Y0274310D03*
X0331031Y0242310D03*
X0331031Y0232357D03*
X0317969Y0232357D03*
X0317969Y0242310D03*
X0317969Y0210310D03*
X0317969Y0200357D03*
X0331031Y0200357D03*
X0331031Y0210310D03*
X0331031Y0178310D03*
X0331031Y0168357D03*
X0317969Y0168357D03*
X0317969Y0178310D03*
X0317969Y0146310D03*
X0317969Y0136357D03*
X0331031Y0136357D03*
X0331031Y0146310D03*
X0331031Y0114310D03*
X0331031Y0104357D03*
X0317969Y0104357D03*
X0317969Y0114310D03*
X0317969Y0082310D03*
X0331031Y0082310D03*
X0409969Y0082310D03*
X0409969Y0104357D03*
X0409969Y0114310D03*
X0409969Y0136357D03*
X0409969Y0146310D03*
X0409969Y0168357D03*
X0409969Y0178310D03*
X0409969Y0200357D03*
X0409969Y0210310D03*
X0409969Y0232357D03*
X0409969Y0242310D03*
X0409969Y0264357D03*
X0409969Y0274310D03*
X0409969Y0296357D03*
X0409969Y0306310D03*
X0409969Y0328357D03*
D11*
X0395500Y0323239D03*
X0395500Y0319302D03*
X0395500Y0315365D03*
X0395500Y0311428D03*
X0395500Y0291239D03*
X0395500Y0287302D03*
X0395500Y0283365D03*
X0395500Y0279428D03*
X0395500Y0259239D03*
X0395500Y0255302D03*
X0395500Y0251365D03*
X0395500Y0247428D03*
X0395500Y0227239D03*
X0395500Y0223302D03*
X0395500Y0219365D03*
X0395500Y0215428D03*
X0395500Y0195239D03*
X0395500Y0191302D03*
X0395500Y0187365D03*
X0395500Y0183428D03*
X0395500Y0163239D03*
X0395500Y0159302D03*
X0395500Y0155365D03*
X0395500Y0151428D03*
X0395500Y0131239D03*
X0395500Y0127302D03*
X0395500Y0123365D03*
X0395500Y0119428D03*
X0395500Y0099239D03*
X0395500Y0095302D03*
X0395500Y0091365D03*
X0395500Y0087428D03*
X0345500Y0087428D03*
X0345500Y0091365D03*
X0345500Y0095302D03*
X0345500Y0099239D03*
X0345500Y0119428D03*
X0345500Y0123365D03*
X0345500Y0127302D03*
X0345500Y0131239D03*
X0345500Y0151428D03*
X0345500Y0155365D03*
X0345500Y0159302D03*
X0345500Y0163239D03*
X0345500Y0183428D03*
X0345500Y0187365D03*
X0345500Y0191302D03*
X0345500Y0195239D03*
X0345500Y0215428D03*
X0345500Y0219365D03*
X0345500Y0223302D03*
X0345500Y0227239D03*
X0345500Y0247428D03*
X0345500Y0251365D03*
X0345500Y0255302D03*
X0345500Y0259239D03*
X0345500Y0279428D03*
X0345500Y0283365D03*
X0345500Y0287302D03*
X0345500Y0291239D03*
X0345500Y0311428D03*
X0345500Y0315365D03*
X0345500Y0319302D03*
X0345500Y0323239D03*
X0303500Y0323239D03*
X0303500Y0319302D03*
X0303500Y0315365D03*
X0303500Y0311428D03*
X0303500Y0291239D03*
X0303500Y0287302D03*
X0303500Y0283365D03*
X0303500Y0279428D03*
X0303500Y0259239D03*
X0303500Y0255302D03*
X0303500Y0251365D03*
X0303500Y0247428D03*
X0303500Y0227239D03*
X0303500Y0223302D03*
X0303500Y0219365D03*
X0303500Y0215428D03*
X0303500Y0195239D03*
X0303500Y0191302D03*
X0303500Y0187365D03*
X0303500Y0183428D03*
X0303500Y0163239D03*
X0303500Y0159302D03*
X0303500Y0155365D03*
X0303500Y0151428D03*
X0303500Y0131239D03*
X0303500Y0127302D03*
X0303500Y0123365D03*
X0303500Y0119428D03*
X0303500Y0099239D03*
X0303500Y0095302D03*
X0303500Y0091365D03*
X0303500Y0087428D03*
X0253500Y0087428D03*
X0253500Y0091365D03*
X0253500Y0095302D03*
X0253500Y0099239D03*
X0253500Y0119428D03*
X0253500Y0123365D03*
X0253500Y0127302D03*
X0253500Y0131239D03*
X0253500Y0151428D03*
X0253500Y0155365D03*
X0253500Y0159302D03*
X0253500Y0163239D03*
X0253500Y0183428D03*
X0253500Y0187365D03*
X0253500Y0191302D03*
X0253500Y0195239D03*
X0253500Y0215428D03*
X0253500Y0219365D03*
X0253500Y0223302D03*
X0253500Y0227239D03*
X0253500Y0247428D03*
X0253500Y0251365D03*
X0253500Y0255302D03*
X0253500Y0259239D03*
X0253500Y0279428D03*
X0253500Y0283365D03*
X0253500Y0287302D03*
X0253500Y0291239D03*
X0253500Y0311428D03*
X0253500Y0315365D03*
X0253500Y0319302D03*
X0253500Y0323239D03*
X0211500Y0323239D03*
X0211500Y0319302D03*
X0211500Y0315365D03*
X0211500Y0311428D03*
X0211500Y0291239D03*
X0211500Y0287302D03*
X0211500Y0283365D03*
X0211500Y0279428D03*
X0211500Y0259239D03*
X0211500Y0255302D03*
X0211500Y0251365D03*
X0211500Y0247428D03*
X0211500Y0227239D03*
X0211500Y0223302D03*
X0211500Y0219365D03*
X0211500Y0215428D03*
X0211500Y0195239D03*
X0211500Y0191302D03*
X0211500Y0187365D03*
X0211500Y0183428D03*
X0211500Y0163239D03*
X0211500Y0159302D03*
X0211500Y0155365D03*
X0211500Y0151428D03*
X0211500Y0131239D03*
X0211500Y0127302D03*
X0211500Y0123365D03*
X0211500Y0119428D03*
X0211500Y0099239D03*
X0211500Y0095302D03*
X0211500Y0091365D03*
X0211500Y0087428D03*
X0161500Y0087428D03*
X0161500Y0091365D03*
X0161500Y0095302D03*
X0161500Y0099239D03*
X0161500Y0119428D03*
X0161500Y0123365D03*
X0161500Y0127302D03*
X0161500Y0131239D03*
X0161500Y0151428D03*
X0161500Y0155365D03*
X0161500Y0159302D03*
X0161500Y0163239D03*
X0161500Y0183428D03*
X0161500Y0187365D03*
X0161500Y0191302D03*
X0161500Y0195239D03*
X0161500Y0215428D03*
X0161500Y0219365D03*
X0161500Y0223302D03*
X0161500Y0227239D03*
X0161500Y0247428D03*
X0161500Y0251365D03*
X0161500Y0255302D03*
X0161500Y0259239D03*
X0161500Y0279428D03*
X0161500Y0283365D03*
X0161500Y0287302D03*
X0161500Y0291239D03*
X0161500Y0311428D03*
X0161500Y0315365D03*
X0161500Y0319302D03*
X0161500Y0323239D03*
X0119500Y0323239D03*
X0119500Y0319302D03*
X0119500Y0315365D03*
X0119500Y0311428D03*
X0119500Y0291239D03*
X0119500Y0287302D03*
X0119500Y0283365D03*
X0119500Y0279428D03*
X0119500Y0259239D03*
X0119500Y0255302D03*
X0119500Y0251365D03*
X0119500Y0247428D03*
X0119500Y0227239D03*
X0119500Y0223302D03*
X0119500Y0219365D03*
X0119500Y0215428D03*
X0119500Y0195239D03*
X0119500Y0191302D03*
X0119500Y0187365D03*
X0119500Y0183428D03*
X0119500Y0163239D03*
X0119500Y0159302D03*
X0119500Y0155365D03*
X0119500Y0151428D03*
X0119500Y0131239D03*
X0119500Y0127302D03*
X0119500Y0123365D03*
X0119500Y0119428D03*
X0119500Y0099239D03*
X0119500Y0095302D03*
X0119500Y0091365D03*
X0119500Y0087428D03*
X0069500Y0087428D03*
X0069500Y0091365D03*
X0069500Y0095302D03*
X0069500Y0099239D03*
X0069500Y0119428D03*
X0069500Y0123365D03*
X0069500Y0127302D03*
X0069500Y0131239D03*
X0069500Y0151428D03*
X0069500Y0155365D03*
X0069500Y0159302D03*
X0069500Y0163239D03*
X0069500Y0183428D03*
X0069500Y0187365D03*
X0069500Y0191302D03*
X0069500Y0195239D03*
X0069500Y0215428D03*
X0069500Y0219365D03*
X0069500Y0223302D03*
X0069500Y0227239D03*
X0069500Y0247428D03*
X0069500Y0251365D03*
X0069500Y0255302D03*
X0069500Y0259239D03*
X0069500Y0279428D03*
X0069500Y0283365D03*
X0069500Y0287302D03*
X0069500Y0291239D03*
X0069500Y0311428D03*
X0069500Y0315365D03*
X0069500Y0319302D03*
X0069500Y0323239D03*
D12*
X0079500Y0322333D03*
X0089500Y0322333D03*
X0099500Y0322333D03*
X0109500Y0322333D03*
X0109500Y0290333D03*
X0099500Y0290333D03*
X0089500Y0290333D03*
X0079500Y0290333D03*
X0079500Y0258333D03*
X0089500Y0258333D03*
X0099500Y0258333D03*
X0109500Y0258333D03*
X0109500Y0226333D03*
X0099500Y0226333D03*
X0089500Y0226333D03*
X0079500Y0226333D03*
X0079500Y0194333D03*
X0089500Y0194333D03*
X0099500Y0194333D03*
X0109500Y0194333D03*
X0109500Y0162333D03*
X0099500Y0162333D03*
X0089500Y0162333D03*
X0079500Y0162333D03*
X0079500Y0130333D03*
X0089500Y0130333D03*
X0099500Y0130333D03*
X0109500Y0130333D03*
X0109500Y0098333D03*
X0099500Y0098333D03*
X0089500Y0098333D03*
X0079500Y0098333D03*
X0171500Y0098333D03*
X0181500Y0098333D03*
X0191500Y0098333D03*
X0201500Y0098333D03*
X0201500Y0130333D03*
X0191500Y0130333D03*
X0181500Y0130333D03*
X0171500Y0130333D03*
X0171500Y0162333D03*
X0181500Y0162333D03*
X0191500Y0162333D03*
X0201500Y0162333D03*
X0201500Y0194333D03*
X0191500Y0194333D03*
X0181500Y0194333D03*
X0171500Y0194333D03*
X0171500Y0226333D03*
X0181500Y0226333D03*
X0191500Y0226333D03*
X0201500Y0226333D03*
X0201500Y0258333D03*
X0191500Y0258333D03*
X0181500Y0258333D03*
X0171500Y0258333D03*
X0171500Y0290333D03*
X0181500Y0290333D03*
X0191500Y0290333D03*
X0201500Y0290333D03*
X0201500Y0322333D03*
X0191500Y0322333D03*
X0181500Y0322333D03*
X0171500Y0322333D03*
X0263500Y0322333D03*
X0273500Y0322333D03*
X0283500Y0322333D03*
X0293500Y0322333D03*
X0293500Y0290333D03*
X0283500Y0290333D03*
X0273500Y0290333D03*
X0263500Y0290333D03*
X0263500Y0258333D03*
X0273500Y0258333D03*
X0283500Y0258333D03*
X0293500Y0258333D03*
X0293500Y0226333D03*
X0283500Y0226333D03*
X0273500Y0226333D03*
X0263500Y0226333D03*
X0263500Y0194333D03*
X0273500Y0194333D03*
X0283500Y0194333D03*
X0293500Y0194333D03*
X0293500Y0162333D03*
X0283500Y0162333D03*
X0273500Y0162333D03*
X0263500Y0162333D03*
X0263500Y0130333D03*
X0273500Y0130333D03*
X0283500Y0130333D03*
X0293500Y0130333D03*
X0293500Y0098333D03*
X0283500Y0098333D03*
X0273500Y0098333D03*
X0263500Y0098333D03*
X0355500Y0098333D03*
X0365500Y0098333D03*
X0375500Y0098333D03*
X0385500Y0098333D03*
X0385500Y0130333D03*
X0375500Y0130333D03*
X0365500Y0130333D03*
X0355500Y0130333D03*
X0355500Y0162333D03*
X0365500Y0162333D03*
X0375500Y0162333D03*
X0385500Y0162333D03*
X0385500Y0194333D03*
X0375500Y0194333D03*
X0365500Y0194333D03*
X0355500Y0194333D03*
X0355500Y0226333D03*
X0365500Y0226333D03*
X0375500Y0226333D03*
X0385500Y0226333D03*
X0385500Y0258333D03*
X0375500Y0258333D03*
X0365500Y0258333D03*
X0355500Y0258333D03*
X0355500Y0290333D03*
X0365500Y0290333D03*
X0375500Y0290333D03*
X0385500Y0290333D03*
X0385500Y0322333D03*
X0375500Y0322333D03*
X0365500Y0322333D03*
X0355500Y0322333D03*
D13*
X0355500Y0314333D01*
X0352594Y0311428D01*
X0345500Y0311428D01*
X0345500Y0315365D02*
X0341531Y0315365D01*
X0340000Y0313833D01*
X0340000Y0309833D01*
X0341500Y0308333D01*
X0362500Y0308333D01*
X0365500Y0311333D01*
X0365500Y0322333D01*
X0365500Y0326333D01*
X0367000Y0327833D01*
X0389000Y0327833D01*
X0391000Y0325833D01*
X0391000Y0320333D01*
X0392031Y0319302D01*
X0395500Y0319302D01*
X0395500Y0323239D02*
X0395500Y0327333D01*
X0392500Y0330333D01*
X0358000Y0330333D01*
X0355500Y0327833D01*
X0355500Y0322333D01*
X0350500Y0328833D02*
X0347500Y0328833D01*
X0345500Y0326833D01*
X0345500Y0323239D01*
X0345500Y0319302D02*
X0339969Y0319302D01*
X0337000Y0316333D01*
X0337000Y0308333D01*
X0340000Y0305333D01*
X0375500Y0305333D01*
X0375500Y0315333D01*
X0375531Y0315365D01*
X0375500Y0315333D02*
X0375500Y0322333D01*
X0385500Y0322333D02*
X0385500Y0312833D01*
X0386906Y0311428D01*
X0395500Y0311428D01*
X0395500Y0315365D02*
X0400969Y0315365D01*
X0403500Y0312833D01*
X0403500Y0308333D01*
X0400500Y0305333D01*
X0375500Y0305333D01*
X0367000Y0295833D02*
X0389000Y0295833D01*
X0391000Y0293833D01*
X0391000Y0288333D01*
X0392031Y0287302D01*
X0395500Y0287302D01*
X0395500Y0291239D02*
X0395500Y0295333D01*
X0392500Y0298333D01*
X0358000Y0298333D01*
X0355500Y0295833D01*
X0355500Y0290333D01*
X0355500Y0282333D01*
X0352594Y0279428D01*
X0345500Y0279428D01*
X0341500Y0276333D02*
X0362500Y0276333D01*
X0365500Y0279333D01*
X0365500Y0290333D01*
X0365500Y0294333D01*
X0367000Y0295833D01*
X0375500Y0290333D02*
X0375500Y0283333D01*
X0375500Y0273333D01*
X0400500Y0273333D01*
X0403500Y0276333D01*
X0403500Y0280833D01*
X0400969Y0283365D01*
X0395500Y0283365D01*
X0395500Y0279428D02*
X0386906Y0279428D01*
X0385500Y0280833D01*
X0385500Y0290333D01*
X0375531Y0283365D02*
X0375500Y0283333D01*
X0375500Y0273333D02*
X0340000Y0273333D01*
X0337000Y0276333D01*
X0337000Y0284333D01*
X0339969Y0287302D01*
X0345500Y0287302D01*
X0345500Y0291239D02*
X0345500Y0294833D01*
X0347500Y0296833D01*
X0350500Y0296833D01*
X0345500Y0283365D02*
X0341531Y0283365D01*
X0340000Y0281833D01*
X0340000Y0277833D01*
X0341500Y0276333D01*
X0347500Y0264833D02*
X0350500Y0264833D01*
X0347500Y0264833D02*
X0345500Y0262833D01*
X0345500Y0259239D01*
X0345500Y0255302D02*
X0339969Y0255302D01*
X0337000Y0252333D01*
X0337000Y0244333D01*
X0340000Y0241333D01*
X0375500Y0241333D01*
X0375500Y0251333D01*
X0375531Y0251365D01*
X0375500Y0251333D02*
X0375500Y0258333D01*
X0365500Y0258333D02*
X0365500Y0247333D01*
X0362500Y0244333D01*
X0341500Y0244333D01*
X0340000Y0245833D01*
X0340000Y0249833D01*
X0341531Y0251365D01*
X0345500Y0251365D01*
X0345500Y0247428D02*
X0352594Y0247428D01*
X0355500Y0250333D01*
X0355500Y0258333D01*
X0355500Y0263833D01*
X0358000Y0266333D01*
X0392500Y0266333D01*
X0395500Y0263333D01*
X0395500Y0259239D01*
X0395500Y0255302D02*
X0392031Y0255302D01*
X0391000Y0256333D01*
X0391000Y0261833D01*
X0389000Y0263833D01*
X0367000Y0263833D01*
X0365500Y0262333D01*
X0365500Y0258333D01*
X0385500Y0258333D02*
X0385500Y0248833D01*
X0386906Y0247428D01*
X0395500Y0247428D01*
X0400500Y0241333D02*
X0403500Y0244333D01*
X0403500Y0248833D01*
X0400969Y0251365D01*
X0395500Y0251365D01*
X0400500Y0241333D02*
X0375500Y0241333D01*
X0367000Y0231833D02*
X0389000Y0231833D01*
X0391000Y0229833D01*
X0391000Y0224333D01*
X0392031Y0223302D01*
X0395500Y0223302D01*
X0395500Y0227239D02*
X0395500Y0231333D01*
X0392500Y0234333D01*
X0358000Y0234333D01*
X0355500Y0231833D01*
X0355500Y0226333D01*
X0355500Y0218333D01*
X0352594Y0215428D01*
X0345500Y0215428D01*
X0345500Y0219365D02*
X0341531Y0219365D01*
X0340000Y0217833D01*
X0340000Y0213833D01*
X0341500Y0212333D01*
X0362500Y0212333D01*
X0365500Y0215333D01*
X0365500Y0226333D01*
X0365500Y0230333D01*
X0367000Y0231833D01*
X0375500Y0226333D02*
X0375500Y0219333D01*
X0375500Y0209333D01*
X0400500Y0209333D01*
X0403500Y0212333D01*
X0403500Y0216833D01*
X0400969Y0219365D01*
X0395500Y0219365D01*
X0395500Y0215428D02*
X0386906Y0215428D01*
X0385500Y0216833D01*
X0385500Y0226333D01*
X0375531Y0219365D02*
X0375500Y0219333D01*
X0375500Y0209333D02*
X0340000Y0209333D01*
X0337000Y0212333D01*
X0337000Y0220333D01*
X0339969Y0223302D01*
X0345500Y0223302D01*
X0345500Y0227239D02*
X0345500Y0230833D01*
X0347500Y0232833D01*
X0350500Y0232833D01*
X0358000Y0202333D02*
X0392500Y0202333D01*
X0395500Y0199333D01*
X0395500Y0195239D01*
X0395500Y0191302D02*
X0392031Y0191302D01*
X0391000Y0192333D01*
X0391000Y0197833D01*
X0389000Y0199833D01*
X0367000Y0199833D01*
X0365500Y0198333D01*
X0365500Y0194333D01*
X0365500Y0183333D01*
X0362500Y0180333D01*
X0341500Y0180333D01*
X0340000Y0181833D01*
X0340000Y0185833D01*
X0341531Y0187365D01*
X0345500Y0187365D01*
X0345500Y0191302D02*
X0339969Y0191302D01*
X0337000Y0188333D01*
X0337000Y0180333D01*
X0340000Y0177333D01*
X0375500Y0177333D01*
X0375500Y0187333D01*
X0375531Y0187365D01*
X0375500Y0187333D02*
X0375500Y0194333D01*
X0385500Y0194333D02*
X0385500Y0184833D01*
X0386906Y0183428D01*
X0395500Y0183428D01*
X0395500Y0187365D02*
X0400969Y0187365D01*
X0403500Y0184833D01*
X0403500Y0180333D01*
X0400500Y0177333D01*
X0375500Y0177333D01*
X0367000Y0167833D02*
X0389000Y0167833D01*
X0391000Y0165833D01*
X0391000Y0160333D01*
X0392031Y0159302D01*
X0395500Y0159302D01*
X0395500Y0163239D02*
X0395500Y0167333D01*
X0392500Y0170333D01*
X0358000Y0170333D01*
X0355500Y0167833D01*
X0355500Y0162333D01*
X0355500Y0154333D01*
X0352594Y0151428D01*
X0345500Y0151428D01*
X0345500Y0155365D02*
X0341531Y0155365D01*
X0340000Y0153833D01*
X0340000Y0149833D01*
X0341500Y0148333D01*
X0362500Y0148333D01*
X0365500Y0151333D01*
X0365500Y0162333D01*
X0365500Y0166333D01*
X0367000Y0167833D01*
X0375500Y0162333D02*
X0375500Y0155333D01*
X0375500Y0145333D01*
X0400500Y0145333D01*
X0403500Y0148333D01*
X0403500Y0152833D01*
X0400969Y0155365D01*
X0395500Y0155365D01*
X0395500Y0151428D02*
X0386906Y0151428D01*
X0385500Y0152833D01*
X0385500Y0162333D01*
X0375531Y0155365D02*
X0375500Y0155333D01*
X0375500Y0145333D02*
X0340000Y0145333D01*
X0337000Y0148333D01*
X0337000Y0156333D01*
X0339969Y0159302D01*
X0345500Y0159302D01*
X0345500Y0163239D02*
X0345500Y0166833D01*
X0347500Y0168833D01*
X0350500Y0168833D01*
X0352594Y0183428D02*
X0345500Y0183428D01*
X0352594Y0183428D02*
X0355500Y0186333D01*
X0355500Y0194333D01*
X0355500Y0199833D01*
X0358000Y0202333D01*
X0350500Y0200833D02*
X0347500Y0200833D01*
X0345500Y0198833D01*
X0345500Y0195239D01*
X0311500Y0184833D02*
X0311500Y0180333D01*
X0308500Y0177333D01*
X0283500Y0177333D01*
X0283500Y0187333D01*
X0283531Y0187365D01*
X0283500Y0187333D02*
X0283500Y0194333D01*
X0273500Y0194333D02*
X0273500Y0183333D01*
X0270500Y0180333D01*
X0249500Y0180333D01*
X0248000Y0181833D01*
X0248000Y0185833D01*
X0249531Y0187365D01*
X0253500Y0187365D01*
X0253500Y0191302D02*
X0247969Y0191302D01*
X0245000Y0188333D01*
X0245000Y0180333D01*
X0248000Y0177333D01*
X0283500Y0177333D01*
X0293500Y0184833D02*
X0293500Y0194333D01*
X0299000Y0192333D02*
X0299000Y0197833D01*
X0297000Y0199833D01*
X0275000Y0199833D01*
X0273500Y0198333D01*
X0273500Y0194333D01*
X0263500Y0194333D02*
X0263500Y0186333D01*
X0260594Y0183428D01*
X0253500Y0183428D01*
X0253500Y0195239D02*
X0253500Y0198833D01*
X0255500Y0200833D01*
X0258500Y0200833D01*
X0263500Y0199833D02*
X0263500Y0194333D01*
X0263500Y0199833D02*
X0266000Y0202333D01*
X0300500Y0202333D01*
X0303500Y0199333D01*
X0303500Y0195239D01*
X0303500Y0191302D02*
X0300031Y0191302D01*
X0299000Y0192333D01*
X0303500Y0187365D02*
X0308969Y0187365D01*
X0311500Y0184833D01*
X0303500Y0183428D02*
X0294906Y0183428D01*
X0293500Y0184833D01*
X0300500Y0170333D02*
X0266000Y0170333D01*
X0263500Y0167833D01*
X0263500Y0162333D01*
X0263500Y0154333D01*
X0260594Y0151428D01*
X0253500Y0151428D01*
X0253500Y0155365D02*
X0249531Y0155365D01*
X0248000Y0153833D01*
X0248000Y0149833D01*
X0249500Y0148333D01*
X0270500Y0148333D01*
X0273500Y0151333D01*
X0273500Y0162333D01*
X0273500Y0166333D01*
X0275000Y0167833D01*
X0297000Y0167833D01*
X0299000Y0165833D01*
X0299000Y0160333D01*
X0300031Y0159302D01*
X0303500Y0159302D01*
X0303500Y0163239D02*
X0303500Y0167333D01*
X0300500Y0170333D01*
X0293500Y0162333D02*
X0293500Y0152833D01*
X0294906Y0151428D01*
X0303500Y0151428D01*
X0303500Y0155365D02*
X0308969Y0155365D01*
X0311500Y0152833D01*
X0311500Y0148333D01*
X0308500Y0145333D01*
X0283500Y0145333D01*
X0283500Y0155333D01*
X0283531Y0155365D01*
X0283500Y0155333D02*
X0283500Y0162333D01*
X0283500Y0145333D02*
X0248000Y0145333D01*
X0245000Y0148333D01*
X0245000Y0156333D01*
X0247969Y0159302D01*
X0253500Y0159302D01*
X0253500Y0163239D02*
X0253500Y0166833D01*
X0255500Y0168833D01*
X0258500Y0168833D01*
X0219500Y0180333D02*
X0219500Y0184833D01*
X0216969Y0187365D01*
X0211500Y0187365D01*
X0211500Y0191302D02*
X0208031Y0191302D01*
X0207000Y0192333D01*
X0207000Y0197833D01*
X0205000Y0199833D01*
X0183000Y0199833D01*
X0181500Y0198333D01*
X0181500Y0194333D01*
X0181500Y0183333D01*
X0178500Y0180333D01*
X0157500Y0180333D01*
X0156000Y0181833D01*
X0156000Y0185833D01*
X0157531Y0187365D01*
X0161500Y0187365D01*
X0161500Y0191302D02*
X0155969Y0191302D01*
X0153000Y0188333D01*
X0153000Y0180333D01*
X0156000Y0177333D01*
X0191500Y0177333D01*
X0191500Y0187333D01*
X0191531Y0187365D01*
X0191500Y0187333D02*
X0191500Y0194333D01*
X0201500Y0194333D02*
X0201500Y0184833D01*
X0202906Y0183428D01*
X0211500Y0183428D01*
X0216500Y0177333D02*
X0219500Y0180333D01*
X0216500Y0177333D02*
X0191500Y0177333D01*
X0183000Y0167833D02*
X0205000Y0167833D01*
X0207000Y0165833D01*
X0207000Y0160333D01*
X0208031Y0159302D01*
X0211500Y0159302D01*
X0211500Y0163239D02*
X0211500Y0167333D01*
X0208500Y0170333D01*
X0174000Y0170333D01*
X0171500Y0167833D01*
X0171500Y0162333D01*
X0171500Y0154333D01*
X0168594Y0151428D01*
X0161500Y0151428D01*
X0161500Y0155365D02*
X0157531Y0155365D01*
X0156000Y0153833D01*
X0156000Y0149833D01*
X0157500Y0148333D01*
X0178500Y0148333D01*
X0181500Y0151333D01*
X0181500Y0162333D01*
X0181500Y0166333D01*
X0183000Y0167833D01*
X0191500Y0162333D02*
X0191500Y0155333D01*
X0191500Y0145333D01*
X0216500Y0145333D01*
X0219500Y0148333D01*
X0219500Y0152833D01*
X0216969Y0155365D01*
X0211500Y0155365D01*
X0211500Y0151428D02*
X0202906Y0151428D01*
X0201500Y0152833D01*
X0201500Y0162333D01*
X0191531Y0155365D02*
X0191500Y0155333D01*
X0191500Y0145333D02*
X0156000Y0145333D01*
X0153000Y0148333D01*
X0153000Y0156333D01*
X0155969Y0159302D01*
X0161500Y0159302D01*
X0161500Y0163239D02*
X0161500Y0166833D01*
X0163500Y0168833D01*
X0166500Y0168833D01*
X0168594Y0183428D02*
X0161500Y0183428D01*
X0168594Y0183428D02*
X0171500Y0186333D01*
X0171500Y0194333D01*
X0171500Y0199833D01*
X0174000Y0202333D01*
X0208500Y0202333D01*
X0211500Y0199333D01*
X0211500Y0195239D01*
X0216500Y0209333D02*
X0191500Y0209333D01*
X0191500Y0219333D01*
X0191531Y0219365D01*
X0191500Y0219333D02*
X0191500Y0226333D01*
X0181500Y0226333D02*
X0181500Y0215333D01*
X0178500Y0212333D01*
X0157500Y0212333D01*
X0156000Y0213833D01*
X0156000Y0217833D01*
X0157531Y0219365D01*
X0161500Y0219365D01*
X0161500Y0223302D02*
X0155969Y0223302D01*
X0153000Y0220333D01*
X0153000Y0212333D01*
X0156000Y0209333D01*
X0191500Y0209333D01*
X0201500Y0216833D02*
X0201500Y0226333D01*
X0207000Y0224333D02*
X0207000Y0229833D01*
X0205000Y0231833D01*
X0183000Y0231833D01*
X0181500Y0230333D01*
X0181500Y0226333D01*
X0174000Y0234333D02*
X0208500Y0234333D01*
X0211500Y0231333D01*
X0211500Y0227239D01*
X0211500Y0223302D02*
X0208031Y0223302D01*
X0207000Y0224333D01*
X0211500Y0219365D02*
X0216969Y0219365D01*
X0219500Y0216833D01*
X0219500Y0212333D01*
X0216500Y0209333D01*
X0211500Y0215428D02*
X0202906Y0215428D01*
X0201500Y0216833D01*
X0174000Y0234333D02*
X0171500Y0231833D01*
X0171500Y0226333D01*
X0171500Y0218333D01*
X0168594Y0215428D01*
X0161500Y0215428D01*
X0161500Y0227239D02*
X0161500Y0230833D01*
X0163500Y0232833D01*
X0166500Y0232833D01*
X0156000Y0241333D02*
X0191500Y0241333D01*
X0191500Y0251333D01*
X0191531Y0251365D01*
X0191500Y0251333D02*
X0191500Y0258333D01*
X0181500Y0258333D02*
X0181500Y0247333D01*
X0178500Y0244333D01*
X0157500Y0244333D01*
X0156000Y0245833D01*
X0156000Y0249833D01*
X0157531Y0251365D01*
X0161500Y0251365D01*
X0161500Y0255302D02*
X0155969Y0255302D01*
X0153000Y0252333D01*
X0153000Y0244333D01*
X0156000Y0241333D01*
X0161500Y0247428D02*
X0168594Y0247428D01*
X0171500Y0250333D01*
X0171500Y0258333D01*
X0171500Y0263833D01*
X0174000Y0266333D01*
X0208500Y0266333D01*
X0211500Y0263333D01*
X0211500Y0259239D01*
X0211500Y0255302D02*
X0208031Y0255302D01*
X0207000Y0256333D01*
X0207000Y0261833D01*
X0205000Y0263833D01*
X0183000Y0263833D01*
X0181500Y0262333D01*
X0181500Y0258333D01*
X0166500Y0264833D02*
X0163500Y0264833D01*
X0161500Y0262833D01*
X0161500Y0259239D01*
X0156000Y0273333D02*
X0191500Y0273333D01*
X0191500Y0283333D01*
X0191531Y0283365D01*
X0191500Y0283333D02*
X0191500Y0290333D01*
X0181500Y0290333D02*
X0181500Y0294333D01*
X0183000Y0295833D01*
X0205000Y0295833D01*
X0207000Y0293833D01*
X0207000Y0288333D01*
X0208031Y0287302D01*
X0211500Y0287302D01*
X0211500Y0291239D02*
X0211500Y0295333D01*
X0208500Y0298333D01*
X0174000Y0298333D01*
X0171500Y0295833D01*
X0171500Y0290333D01*
X0171500Y0282333D01*
X0168594Y0279428D01*
X0161500Y0279428D01*
X0157500Y0276333D02*
X0178500Y0276333D01*
X0181500Y0279333D01*
X0181500Y0290333D01*
X0166500Y0296833D02*
X0163500Y0296833D01*
X0161500Y0294833D01*
X0161500Y0291239D01*
X0161500Y0287302D02*
X0155969Y0287302D01*
X0153000Y0284333D01*
X0153000Y0276333D01*
X0156000Y0273333D01*
X0157500Y0276333D02*
X0156000Y0277833D01*
X0156000Y0281833D01*
X0157531Y0283365D01*
X0161500Y0283365D01*
X0156000Y0305333D02*
X0191500Y0305333D01*
X0191500Y0315333D01*
X0191531Y0315365D01*
X0191500Y0315333D02*
X0191500Y0322333D01*
X0201500Y0322333D02*
X0201500Y0312833D01*
X0202906Y0311428D01*
X0211500Y0311428D01*
X0211500Y0315365D02*
X0216969Y0315365D01*
X0219500Y0312833D01*
X0219500Y0308333D01*
X0216500Y0305333D01*
X0191500Y0305333D01*
X0181500Y0311333D02*
X0178500Y0308333D01*
X0157500Y0308333D01*
X0156000Y0309833D01*
X0156000Y0313833D01*
X0157531Y0315365D01*
X0161500Y0315365D01*
X0161500Y0311428D02*
X0168594Y0311428D01*
X0171500Y0314333D01*
X0171500Y0322333D01*
X0171500Y0327833D01*
X0174000Y0330333D01*
X0208500Y0330333D01*
X0211500Y0327333D01*
X0211500Y0323239D01*
X0211500Y0319302D02*
X0208031Y0319302D01*
X0207000Y0320333D01*
X0207000Y0325833D01*
X0205000Y0327833D01*
X0183000Y0327833D01*
X0181500Y0326333D01*
X0181500Y0322333D01*
X0181500Y0311333D01*
X0161500Y0319302D02*
X0155969Y0319302D01*
X0153000Y0316333D01*
X0153000Y0308333D01*
X0156000Y0305333D01*
X0161500Y0323239D02*
X0161500Y0326833D01*
X0163500Y0328833D01*
X0166500Y0328833D01*
X0127500Y0312833D02*
X0127500Y0308333D01*
X0124500Y0305333D01*
X0099500Y0305333D01*
X0099500Y0315333D01*
X0099531Y0315365D01*
X0099500Y0315333D02*
X0099500Y0322333D01*
X0109500Y0322333D02*
X0109500Y0312833D01*
X0110906Y0311428D01*
X0119500Y0311428D01*
X0119500Y0315365D02*
X0124969Y0315365D01*
X0127500Y0312833D01*
X0119500Y0319302D02*
X0116031Y0319302D01*
X0115000Y0320333D01*
X0115000Y0325833D01*
X0113000Y0327833D01*
X0091000Y0327833D01*
X0089500Y0326333D01*
X0089500Y0322333D01*
X0089500Y0311333D01*
X0086500Y0308333D01*
X0065500Y0308333D01*
X0064000Y0309833D01*
X0064000Y0313833D01*
X0065531Y0315365D01*
X0069500Y0315365D01*
X0069500Y0311428D02*
X0076594Y0311428D01*
X0079500Y0314333D01*
X0079500Y0322333D01*
X0079500Y0327833D01*
X0082000Y0330333D01*
X0116500Y0330333D01*
X0119500Y0327333D01*
X0119500Y0323239D01*
X0099500Y0305333D02*
X0064000Y0305333D01*
X0061000Y0308333D01*
X0061000Y0316333D01*
X0063969Y0319302D01*
X0069500Y0319302D01*
X0069500Y0323239D02*
X0069500Y0326833D01*
X0071500Y0328833D01*
X0074500Y0328833D01*
X0082000Y0298333D02*
X0116500Y0298333D01*
X0119500Y0295333D01*
X0119500Y0291239D01*
X0119500Y0287302D02*
X0116031Y0287302D01*
X0115000Y0288333D01*
X0115000Y0293833D01*
X0113000Y0295833D01*
X0091000Y0295833D01*
X0089500Y0294333D01*
X0089500Y0290333D01*
X0089500Y0279333D01*
X0086500Y0276333D01*
X0065500Y0276333D01*
X0064000Y0277833D01*
X0064000Y0281833D01*
X0065531Y0283365D01*
X0069500Y0283365D01*
X0069500Y0287302D02*
X0063969Y0287302D01*
X0061000Y0284333D01*
X0061000Y0276333D01*
X0064000Y0273333D01*
X0099500Y0273333D01*
X0099500Y0283333D01*
X0099531Y0283365D01*
X0099500Y0283333D02*
X0099500Y0290333D01*
X0109500Y0290333D02*
X0109500Y0280833D01*
X0110906Y0279428D01*
X0119500Y0279428D01*
X0124969Y0283365D02*
X0127500Y0280833D01*
X0127500Y0276333D01*
X0124500Y0273333D01*
X0099500Y0273333D01*
X0091000Y0263833D02*
X0089500Y0262333D01*
X0089500Y0258333D01*
X0089500Y0247333D01*
X0086500Y0244333D01*
X0065500Y0244333D01*
X0064000Y0245833D01*
X0064000Y0249833D01*
X0065531Y0251365D01*
X0069500Y0251365D01*
X0069500Y0255302D02*
X0063969Y0255302D01*
X0061000Y0252333D01*
X0061000Y0244333D01*
X0064000Y0241333D01*
X0099500Y0241333D01*
X0099500Y0251333D01*
X0099531Y0251365D01*
X0099500Y0251333D02*
X0099500Y0258333D01*
X0091000Y0263833D02*
X0113000Y0263833D01*
X0115000Y0261833D01*
X0115000Y0256333D01*
X0116031Y0255302D01*
X0119500Y0255302D01*
X0119500Y0259239D02*
X0119500Y0263333D01*
X0116500Y0266333D01*
X0082000Y0266333D01*
X0079500Y0263833D01*
X0079500Y0258333D01*
X0079500Y0250333D01*
X0076594Y0247428D01*
X0069500Y0247428D01*
X0082000Y0234333D02*
X0116500Y0234333D01*
X0119500Y0231333D01*
X0119500Y0227239D01*
X0119500Y0223302D02*
X0116031Y0223302D01*
X0115000Y0224333D01*
X0115000Y0229833D01*
X0113000Y0231833D01*
X0091000Y0231833D01*
X0089500Y0230333D01*
X0089500Y0226333D01*
X0089500Y0215333D01*
X0086500Y0212333D01*
X0065500Y0212333D01*
X0064000Y0213833D01*
X0064000Y0217833D01*
X0065531Y0219365D01*
X0069500Y0219365D01*
X0069500Y0223302D02*
X0063969Y0223302D01*
X0061000Y0220333D01*
X0061000Y0212333D01*
X0064000Y0209333D01*
X0099500Y0209333D01*
X0099500Y0219333D01*
X0099531Y0219365D01*
X0099500Y0219333D02*
X0099500Y0226333D01*
X0109500Y0226333D02*
X0109500Y0216833D01*
X0110906Y0215428D01*
X0119500Y0215428D01*
X0119500Y0219365D02*
X0124969Y0219365D01*
X0127500Y0216833D01*
X0127500Y0212333D01*
X0124500Y0209333D01*
X0099500Y0209333D01*
X0091000Y0199833D02*
X0089500Y0198333D01*
X0089500Y0194333D01*
X0089500Y0183333D01*
X0086500Y0180333D01*
X0065500Y0180333D01*
X0064000Y0181833D01*
X0064000Y0185833D01*
X0065531Y0187365D01*
X0069500Y0187365D01*
X0069500Y0191302D02*
X0063969Y0191302D01*
X0061000Y0188333D01*
X0061000Y0180333D01*
X0064000Y0177333D01*
X0099500Y0177333D01*
X0099500Y0187333D01*
X0099531Y0187365D01*
X0099500Y0187333D02*
X0099500Y0194333D01*
X0091000Y0199833D02*
X0113000Y0199833D01*
X0115000Y0197833D01*
X0115000Y0192333D01*
X0116031Y0191302D01*
X0119500Y0191302D01*
X0119500Y0195239D02*
X0119500Y0199333D01*
X0116500Y0202333D01*
X0082000Y0202333D01*
X0079500Y0199833D01*
X0079500Y0194333D01*
X0079500Y0186333D01*
X0076594Y0183428D01*
X0069500Y0183428D01*
X0069500Y0195239D02*
X0069500Y0198833D01*
X0071500Y0200833D01*
X0074500Y0200833D01*
X0076594Y0215428D02*
X0069500Y0215428D01*
X0076594Y0215428D02*
X0079500Y0218333D01*
X0079500Y0226333D01*
X0079500Y0231833D01*
X0082000Y0234333D01*
X0074500Y0232833D02*
X0071500Y0232833D01*
X0069500Y0230833D01*
X0069500Y0227239D01*
X0099500Y0241333D02*
X0124500Y0241333D01*
X0127500Y0244333D01*
X0127500Y0248833D01*
X0124969Y0251365D01*
X0119500Y0251365D01*
X0119500Y0247428D02*
X0110906Y0247428D01*
X0109500Y0248833D01*
X0109500Y0258333D01*
X0079500Y0282333D02*
X0076594Y0279428D01*
X0069500Y0279428D01*
X0079500Y0282333D02*
X0079500Y0290333D01*
X0079500Y0295833D01*
X0082000Y0298333D01*
X0074500Y0296833D02*
X0071500Y0296833D01*
X0069500Y0294833D01*
X0069500Y0291239D01*
X0071500Y0264833D02*
X0074500Y0264833D01*
X0071500Y0264833D02*
X0069500Y0262833D01*
X0069500Y0259239D01*
X0119500Y0283365D02*
X0124969Y0283365D01*
X0191500Y0273333D02*
X0216500Y0273333D01*
X0219500Y0276333D01*
X0219500Y0280833D01*
X0216969Y0283365D01*
X0211500Y0283365D01*
X0211500Y0279428D02*
X0202906Y0279428D01*
X0201500Y0280833D01*
X0201500Y0290333D01*
X0201500Y0258333D02*
X0201500Y0248833D01*
X0202906Y0247428D01*
X0211500Y0247428D01*
X0216500Y0241333D02*
X0219500Y0244333D01*
X0219500Y0248833D01*
X0216969Y0251365D01*
X0211500Y0251365D01*
X0216500Y0241333D02*
X0191500Y0241333D01*
X0245000Y0244333D02*
X0248000Y0241333D01*
X0283500Y0241333D01*
X0283500Y0251333D01*
X0283531Y0251365D01*
X0283500Y0251333D02*
X0283500Y0258333D01*
X0273500Y0258333D02*
X0273500Y0247333D01*
X0270500Y0244333D01*
X0249500Y0244333D01*
X0248000Y0245833D01*
X0248000Y0249833D01*
X0249531Y0251365D01*
X0253500Y0251365D01*
X0253500Y0255302D02*
X0247969Y0255302D01*
X0245000Y0252333D01*
X0245000Y0244333D01*
X0253500Y0247428D02*
X0260594Y0247428D01*
X0263500Y0250333D01*
X0263500Y0258333D01*
X0263500Y0263833D01*
X0266000Y0266333D01*
X0300500Y0266333D01*
X0303500Y0263333D01*
X0303500Y0259239D01*
X0303500Y0255302D02*
X0300031Y0255302D01*
X0299000Y0256333D01*
X0299000Y0261833D01*
X0297000Y0263833D01*
X0275000Y0263833D01*
X0273500Y0262333D01*
X0273500Y0258333D01*
X0258500Y0264833D02*
X0255500Y0264833D01*
X0253500Y0262833D01*
X0253500Y0259239D01*
X0248000Y0273333D02*
X0283500Y0273333D01*
X0283500Y0283333D01*
X0283531Y0283365D01*
X0283500Y0283333D02*
X0283500Y0290333D01*
X0273500Y0290333D02*
X0273500Y0294333D01*
X0275000Y0295833D01*
X0297000Y0295833D01*
X0299000Y0293833D01*
X0299000Y0288333D01*
X0300031Y0287302D01*
X0303500Y0287302D01*
X0303500Y0291239D02*
X0303500Y0295333D01*
X0300500Y0298333D01*
X0266000Y0298333D01*
X0263500Y0295833D01*
X0263500Y0290333D01*
X0263500Y0282333D01*
X0260594Y0279428D01*
X0253500Y0279428D01*
X0249500Y0276333D02*
X0270500Y0276333D01*
X0273500Y0279333D01*
X0273500Y0290333D01*
X0258500Y0296833D02*
X0255500Y0296833D01*
X0253500Y0294833D01*
X0253500Y0291239D01*
X0253500Y0287302D02*
X0247969Y0287302D01*
X0245000Y0284333D01*
X0245000Y0276333D01*
X0248000Y0273333D01*
X0249500Y0276333D02*
X0248000Y0277833D01*
X0248000Y0281833D01*
X0249531Y0283365D01*
X0253500Y0283365D01*
X0248000Y0305333D02*
X0283500Y0305333D01*
X0283500Y0315333D01*
X0283531Y0315365D01*
X0283500Y0315333D02*
X0283500Y0322333D01*
X0293500Y0322333D02*
X0293500Y0312833D01*
X0294906Y0311428D01*
X0303500Y0311428D01*
X0303500Y0315365D02*
X0308969Y0315365D01*
X0311500Y0312833D01*
X0311500Y0308333D01*
X0308500Y0305333D01*
X0283500Y0305333D01*
X0273500Y0311333D02*
X0270500Y0308333D01*
X0249500Y0308333D01*
X0248000Y0309833D01*
X0248000Y0313833D01*
X0249531Y0315365D01*
X0253500Y0315365D01*
X0253500Y0311428D02*
X0260594Y0311428D01*
X0263500Y0314333D01*
X0263500Y0322333D01*
X0263500Y0327833D01*
X0266000Y0330333D01*
X0300500Y0330333D01*
X0303500Y0327333D01*
X0303500Y0323239D01*
X0303500Y0319302D02*
X0300031Y0319302D01*
X0299000Y0320333D01*
X0299000Y0325833D01*
X0297000Y0327833D01*
X0275000Y0327833D01*
X0273500Y0326333D01*
X0273500Y0322333D01*
X0273500Y0311333D01*
X0253500Y0319302D02*
X0247969Y0319302D01*
X0245000Y0316333D01*
X0245000Y0308333D01*
X0248000Y0305333D01*
X0253500Y0323239D02*
X0253500Y0326833D01*
X0255500Y0328833D01*
X0258500Y0328833D01*
X0293500Y0290333D02*
X0293500Y0280833D01*
X0294906Y0279428D01*
X0303500Y0279428D01*
X0308500Y0273333D02*
X0311500Y0276333D01*
X0311500Y0280833D01*
X0308969Y0283365D01*
X0303500Y0283365D01*
X0308500Y0273333D02*
X0283500Y0273333D01*
X0293500Y0258333D02*
X0293500Y0248833D01*
X0294906Y0247428D01*
X0303500Y0247428D01*
X0308500Y0241333D02*
X0311500Y0244333D01*
X0311500Y0248833D01*
X0308969Y0251365D01*
X0303500Y0251365D01*
X0308500Y0241333D02*
X0283500Y0241333D01*
X0275000Y0231833D02*
X0297000Y0231833D01*
X0299000Y0229833D01*
X0299000Y0224333D01*
X0300031Y0223302D01*
X0303500Y0223302D01*
X0303500Y0227239D02*
X0303500Y0231333D01*
X0300500Y0234333D01*
X0266000Y0234333D01*
X0263500Y0231833D01*
X0263500Y0226333D01*
X0263500Y0218333D01*
X0260594Y0215428D01*
X0253500Y0215428D01*
X0253500Y0219365D02*
X0249531Y0219365D01*
X0248000Y0217833D01*
X0248000Y0213833D01*
X0249500Y0212333D01*
X0270500Y0212333D01*
X0273500Y0215333D01*
X0273500Y0226333D01*
X0273500Y0230333D01*
X0275000Y0231833D01*
X0283500Y0226333D02*
X0283500Y0219333D01*
X0283500Y0209333D01*
X0308500Y0209333D01*
X0311500Y0212333D01*
X0311500Y0216833D01*
X0308969Y0219365D01*
X0303500Y0219365D01*
X0303500Y0215428D02*
X0294906Y0215428D01*
X0293500Y0216833D01*
X0293500Y0226333D01*
X0283531Y0219365D02*
X0283500Y0219333D01*
X0283500Y0209333D02*
X0248000Y0209333D01*
X0245000Y0212333D01*
X0245000Y0220333D01*
X0247969Y0223302D01*
X0253500Y0223302D01*
X0253500Y0227239D02*
X0253500Y0230833D01*
X0255500Y0232833D01*
X0258500Y0232833D01*
X0166500Y0200833D02*
X0163500Y0200833D01*
X0161500Y0198833D01*
X0161500Y0195239D01*
X0127500Y0184833D02*
X0127500Y0180333D01*
X0124500Y0177333D01*
X0099500Y0177333D01*
X0109500Y0184833D02*
X0109500Y0194333D01*
X0109500Y0184833D02*
X0110906Y0183428D01*
X0119500Y0183428D01*
X0119500Y0187365D02*
X0124969Y0187365D01*
X0127500Y0184833D01*
X0116500Y0170333D02*
X0082000Y0170333D01*
X0079500Y0167833D01*
X0079500Y0162333D01*
X0079500Y0154333D01*
X0076594Y0151428D01*
X0069500Y0151428D01*
X0069500Y0155365D02*
X0065531Y0155365D01*
X0064000Y0153833D01*
X0064000Y0149833D01*
X0065500Y0148333D01*
X0086500Y0148333D01*
X0089500Y0151333D01*
X0089500Y0162333D01*
X0089500Y0166333D01*
X0091000Y0167833D01*
X0113000Y0167833D01*
X0115000Y0165833D01*
X0115000Y0160333D01*
X0116031Y0159302D01*
X0119500Y0159302D01*
X0119500Y0163239D02*
X0119500Y0167333D01*
X0116500Y0170333D01*
X0109500Y0162333D02*
X0109500Y0152833D01*
X0110906Y0151428D01*
X0119500Y0151428D01*
X0119500Y0155365D02*
X0124969Y0155365D01*
X0127500Y0152833D01*
X0127500Y0148333D01*
X0124500Y0145333D01*
X0099500Y0145333D01*
X0099500Y0155333D01*
X0099531Y0155365D01*
X0099500Y0155333D02*
X0099500Y0162333D01*
X0099500Y0145333D02*
X0064000Y0145333D01*
X0061000Y0148333D01*
X0061000Y0156333D01*
X0063969Y0159302D01*
X0069500Y0159302D01*
X0069500Y0163239D02*
X0069500Y0166833D01*
X0071500Y0168833D01*
X0074500Y0168833D01*
X0082000Y0138333D02*
X0116500Y0138333D01*
X0119500Y0135333D01*
X0119500Y0131239D01*
X0119500Y0127302D02*
X0116031Y0127302D01*
X0115000Y0128333D01*
X0115000Y0133833D01*
X0113000Y0135833D01*
X0091000Y0135833D01*
X0089500Y0134333D01*
X0089500Y0130333D01*
X0089500Y0119333D01*
X0086500Y0116333D01*
X0065500Y0116333D01*
X0064000Y0117833D01*
X0064000Y0121833D01*
X0065531Y0123365D01*
X0069500Y0123365D01*
X0069500Y0127302D02*
X0063969Y0127302D01*
X0061000Y0124333D01*
X0061000Y0116333D01*
X0064000Y0113333D01*
X0099500Y0113333D01*
X0099500Y0123333D01*
X0099531Y0123365D01*
X0099500Y0123333D02*
X0099500Y0130333D01*
X0109500Y0130333D02*
X0109500Y0120833D01*
X0110906Y0119428D01*
X0119500Y0119428D01*
X0119500Y0123365D02*
X0124969Y0123365D01*
X0127500Y0120833D01*
X0127500Y0116333D01*
X0124500Y0113333D01*
X0099500Y0113333D01*
X0091000Y0103833D02*
X0089500Y0102333D01*
X0089500Y0098333D01*
X0089500Y0087333D01*
X0086500Y0084333D01*
X0065500Y0084333D01*
X0064000Y0085833D01*
X0064000Y0089833D01*
X0065531Y0091365D01*
X0069500Y0091365D01*
X0069500Y0095302D02*
X0063969Y0095302D01*
X0061000Y0092333D01*
X0061000Y0084333D01*
X0064000Y0081333D01*
X0099500Y0081333D01*
X0099500Y0091333D01*
X0099531Y0091365D01*
X0099500Y0091333D02*
X0099500Y0098333D01*
X0091000Y0103833D02*
X0113000Y0103833D01*
X0115000Y0101833D01*
X0115000Y0096333D01*
X0116031Y0095302D01*
X0119500Y0095302D01*
X0119500Y0099239D02*
X0119500Y0103333D01*
X0116500Y0106333D01*
X0082000Y0106333D01*
X0079500Y0103833D01*
X0079500Y0098333D01*
X0079500Y0090333D01*
X0076594Y0087428D01*
X0069500Y0087428D01*
X0069500Y0099239D02*
X0069500Y0102833D01*
X0071500Y0104833D01*
X0074500Y0104833D01*
X0076594Y0119428D02*
X0069500Y0119428D01*
X0076594Y0119428D02*
X0079500Y0122333D01*
X0079500Y0130333D01*
X0079500Y0135833D01*
X0082000Y0138333D01*
X0074500Y0136833D02*
X0071500Y0136833D01*
X0069500Y0134833D01*
X0069500Y0131239D01*
X0109500Y0098333D02*
X0109500Y0088833D01*
X0110906Y0087428D01*
X0119500Y0087428D01*
X0119500Y0091365D02*
X0124969Y0091365D01*
X0127500Y0088833D01*
X0127500Y0084333D01*
X0124500Y0081333D01*
X0099500Y0081333D01*
X0153000Y0084333D02*
X0156000Y0081333D01*
X0191500Y0081333D01*
X0191500Y0091333D01*
X0191531Y0091365D01*
X0191500Y0091333D02*
X0191500Y0098333D01*
X0181500Y0098333D02*
X0181500Y0087333D01*
X0178500Y0084333D01*
X0157500Y0084333D01*
X0156000Y0085833D01*
X0156000Y0089833D01*
X0157531Y0091365D01*
X0161500Y0091365D01*
X0161500Y0095302D02*
X0155969Y0095302D01*
X0153000Y0092333D01*
X0153000Y0084333D01*
X0161500Y0087428D02*
X0168594Y0087428D01*
X0171500Y0090333D01*
X0171500Y0098333D01*
X0171500Y0103833D01*
X0174000Y0106333D01*
X0208500Y0106333D01*
X0211500Y0103333D01*
X0211500Y0099239D01*
X0211500Y0095302D02*
X0208031Y0095302D01*
X0207000Y0096333D01*
X0207000Y0101833D01*
X0205000Y0103833D01*
X0183000Y0103833D01*
X0181500Y0102333D01*
X0181500Y0098333D01*
X0166500Y0104833D02*
X0163500Y0104833D01*
X0161500Y0102833D01*
X0161500Y0099239D01*
X0156000Y0113333D02*
X0191500Y0113333D01*
X0191500Y0123333D01*
X0191531Y0123365D01*
X0191500Y0123333D02*
X0191500Y0130333D01*
X0181500Y0130333D02*
X0181500Y0119333D01*
X0178500Y0116333D01*
X0157500Y0116333D01*
X0156000Y0117833D01*
X0156000Y0121833D01*
X0157531Y0123365D01*
X0161500Y0123365D01*
X0161500Y0127302D02*
X0155969Y0127302D01*
X0153000Y0124333D01*
X0153000Y0116333D01*
X0156000Y0113333D01*
X0161500Y0119428D02*
X0168594Y0119428D01*
X0171500Y0122333D01*
X0171500Y0130333D01*
X0171500Y0135833D01*
X0174000Y0138333D01*
X0208500Y0138333D01*
X0211500Y0135333D01*
X0211500Y0131239D01*
X0211500Y0127302D02*
X0208031Y0127302D01*
X0207000Y0128333D01*
X0207000Y0133833D01*
X0205000Y0135833D01*
X0183000Y0135833D01*
X0181500Y0134333D01*
X0181500Y0130333D01*
X0166500Y0136833D02*
X0163500Y0136833D01*
X0161500Y0134833D01*
X0161500Y0131239D01*
X0191500Y0113333D02*
X0216500Y0113333D01*
X0219500Y0116333D01*
X0219500Y0120833D01*
X0216969Y0123365D01*
X0211500Y0123365D01*
X0211500Y0119428D02*
X0202906Y0119428D01*
X0201500Y0120833D01*
X0201500Y0130333D01*
X0201500Y0098333D02*
X0201500Y0088833D01*
X0202906Y0087428D01*
X0211500Y0087428D01*
X0211500Y0091365D02*
X0216969Y0091365D01*
X0219500Y0088833D01*
X0219500Y0084333D01*
X0216500Y0081333D01*
X0191500Y0081333D01*
X0245000Y0084333D02*
X0248000Y0081333D01*
X0283500Y0081333D01*
X0283500Y0091333D01*
X0283531Y0091365D01*
X0283500Y0091333D02*
X0283500Y0098333D01*
X0273500Y0098333D02*
X0273500Y0087333D01*
X0270500Y0084333D01*
X0249500Y0084333D01*
X0248000Y0085833D01*
X0248000Y0089833D01*
X0249531Y0091365D01*
X0253500Y0091365D01*
X0253500Y0095302D02*
X0247969Y0095302D01*
X0245000Y0092333D01*
X0245000Y0084333D01*
X0253500Y0087428D02*
X0260594Y0087428D01*
X0263500Y0090333D01*
X0263500Y0098333D01*
X0263500Y0103833D01*
X0266000Y0106333D01*
X0300500Y0106333D01*
X0303500Y0103333D01*
X0303500Y0099239D01*
X0303500Y0095302D02*
X0300031Y0095302D01*
X0299000Y0096333D01*
X0299000Y0101833D01*
X0297000Y0103833D01*
X0275000Y0103833D01*
X0273500Y0102333D01*
X0273500Y0098333D01*
X0258500Y0104833D02*
X0255500Y0104833D01*
X0253500Y0102833D01*
X0253500Y0099239D01*
X0248000Y0113333D02*
X0283500Y0113333D01*
X0283500Y0123333D01*
X0283531Y0123365D01*
X0283500Y0123333D02*
X0283500Y0130333D01*
X0273500Y0130333D02*
X0273500Y0119333D01*
X0270500Y0116333D01*
X0249500Y0116333D01*
X0248000Y0117833D01*
X0248000Y0121833D01*
X0249531Y0123365D01*
X0253500Y0123365D01*
X0253500Y0127302D02*
X0247969Y0127302D01*
X0245000Y0124333D01*
X0245000Y0116333D01*
X0248000Y0113333D01*
X0253500Y0119428D02*
X0260594Y0119428D01*
X0263500Y0122333D01*
X0263500Y0130333D01*
X0263500Y0135833D01*
X0266000Y0138333D01*
X0300500Y0138333D01*
X0303500Y0135333D01*
X0303500Y0131239D01*
X0303500Y0127302D02*
X0300031Y0127302D01*
X0299000Y0128333D01*
X0299000Y0133833D01*
X0297000Y0135833D01*
X0275000Y0135833D01*
X0273500Y0134333D01*
X0273500Y0130333D01*
X0258500Y0136833D02*
X0255500Y0136833D01*
X0253500Y0134833D01*
X0253500Y0131239D01*
X0283500Y0113333D02*
X0308500Y0113333D01*
X0311500Y0116333D01*
X0311500Y0120833D01*
X0308969Y0123365D01*
X0303500Y0123365D01*
X0303500Y0119428D02*
X0294906Y0119428D01*
X0293500Y0120833D01*
X0293500Y0130333D01*
X0293500Y0098333D02*
X0293500Y0088833D01*
X0294906Y0087428D01*
X0303500Y0087428D01*
X0303500Y0091365D02*
X0308969Y0091365D01*
X0311500Y0088833D01*
X0311500Y0084333D01*
X0308500Y0081333D01*
X0283500Y0081333D01*
X0337000Y0084333D02*
X0340000Y0081333D01*
X0375500Y0081333D01*
X0375500Y0091333D01*
X0375531Y0091365D01*
X0375500Y0091333D02*
X0375500Y0098333D01*
X0365500Y0098333D02*
X0365500Y0087333D01*
X0362500Y0084333D01*
X0341500Y0084333D01*
X0340000Y0085833D01*
X0340000Y0089833D01*
X0341531Y0091365D01*
X0345500Y0091365D01*
X0345500Y0095302D02*
X0339969Y0095302D01*
X0337000Y0092333D01*
X0337000Y0084333D01*
X0345500Y0087428D02*
X0352594Y0087428D01*
X0355500Y0090333D01*
X0355500Y0098333D01*
X0355500Y0103833D01*
X0358000Y0106333D01*
X0392500Y0106333D01*
X0395500Y0103333D01*
X0395500Y0099239D01*
X0395500Y0095302D02*
X0392031Y0095302D01*
X0391000Y0096333D01*
X0391000Y0101833D01*
X0389000Y0103833D01*
X0367000Y0103833D01*
X0365500Y0102333D01*
X0365500Y0098333D01*
X0350500Y0104833D02*
X0347500Y0104833D01*
X0345500Y0102833D01*
X0345500Y0099239D01*
X0340000Y0113333D02*
X0375500Y0113333D01*
X0375500Y0123333D01*
X0375531Y0123365D01*
X0375500Y0123333D02*
X0375500Y0130333D01*
X0365500Y0130333D02*
X0365500Y0119333D01*
X0362500Y0116333D01*
X0341500Y0116333D01*
X0340000Y0117833D01*
X0340000Y0121833D01*
X0341531Y0123365D01*
X0345500Y0123365D01*
X0345500Y0127302D02*
X0339969Y0127302D01*
X0337000Y0124333D01*
X0337000Y0116333D01*
X0340000Y0113333D01*
X0345500Y0119428D02*
X0352594Y0119428D01*
X0355500Y0122333D01*
X0355500Y0130333D01*
X0355500Y0135833D01*
X0358000Y0138333D01*
X0392500Y0138333D01*
X0395500Y0135333D01*
X0395500Y0131239D01*
X0395500Y0127302D02*
X0392031Y0127302D01*
X0391000Y0128333D01*
X0391000Y0133833D01*
X0389000Y0135833D01*
X0367000Y0135833D01*
X0365500Y0134333D01*
X0365500Y0130333D01*
X0350500Y0136833D02*
X0347500Y0136833D01*
X0345500Y0134833D01*
X0345500Y0131239D01*
X0375500Y0113333D02*
X0400500Y0113333D01*
X0403500Y0116333D01*
X0403500Y0120833D01*
X0400969Y0123365D01*
X0395500Y0123365D01*
X0395500Y0119428D02*
X0386906Y0119428D01*
X0385500Y0120833D01*
X0385500Y0130333D01*
X0385500Y0098333D02*
X0385500Y0088833D01*
X0386906Y0087428D01*
X0395500Y0087428D01*
X0395500Y0091365D02*
X0400969Y0091365D01*
X0403500Y0088833D01*
X0403500Y0084333D01*
X0400500Y0081333D01*
X0375500Y0081333D01*
D14*
X0350500Y0104833D03*
X0350500Y0136833D03*
X0350500Y0168833D03*
X0350500Y0200833D03*
X0350500Y0232833D03*
X0350500Y0264833D03*
X0350500Y0296833D03*
X0350500Y0328833D03*
X0258500Y0328833D03*
X0258500Y0296833D03*
X0258500Y0264833D03*
X0258500Y0232833D03*
X0258500Y0200833D03*
X0258500Y0168833D03*
X0258500Y0136833D03*
X0258500Y0104833D03*
X0166500Y0104833D03*
X0166500Y0136833D03*
X0166500Y0168833D03*
X0166500Y0200833D03*
X0166500Y0232833D03*
X0166500Y0264833D03*
X0166500Y0296833D03*
X0166500Y0328833D03*
X0074500Y0328833D03*
X0074500Y0296833D03*
X0074500Y0264833D03*
X0074500Y0232833D03*
X0074500Y0200833D03*
X0074500Y0168833D03*
X0074500Y0136833D03*
X0074500Y0104833D03*
M02*
