G75*
%MOIN*%
%OFA0B0*%
%FSLAX25Y25*%
%IPPOS*%
%LPD*%
%AMOC8*
5,1,8,0,0,1.08239X$1,22.5*
%
%ADD10C,0.01200*%
D10*
X0049500Y0078333D02*
X0139500Y0078333D01*
X0139500Y0108333D01*
X0049500Y0108333D01*
X0049500Y0078333D01*
X0049500Y0110333D02*
X0139500Y0110333D01*
X0139500Y0140333D01*
X0049500Y0140333D01*
X0049500Y0110333D01*
X0049500Y0142333D02*
X0139500Y0142333D01*
X0139500Y0172333D01*
X0049500Y0172333D01*
X0049500Y0142333D01*
X0049500Y0174333D02*
X0139500Y0174333D01*
X0139500Y0204333D01*
X0049500Y0204333D01*
X0049500Y0174333D01*
X0049500Y0206333D02*
X0139500Y0206333D01*
X0139500Y0236333D01*
X0049500Y0236333D01*
X0049500Y0206333D01*
X0049500Y0238333D02*
X0139500Y0238333D01*
X0139500Y0268333D01*
X0049500Y0268333D01*
X0049500Y0238333D01*
X0049500Y0270333D02*
X0139500Y0270333D01*
X0139500Y0300333D01*
X0049500Y0300333D01*
X0049500Y0270333D01*
X0049500Y0302333D02*
X0139500Y0302333D01*
X0139500Y0332333D01*
X0049500Y0332333D01*
X0049500Y0302333D01*
X0141500Y0302333D02*
X0231500Y0302333D01*
X0231500Y0332333D01*
X0141500Y0332333D01*
X0141500Y0302333D01*
X0141500Y0300333D02*
X0231500Y0300333D01*
X0231500Y0270333D01*
X0141500Y0270333D01*
X0141500Y0300333D01*
X0141500Y0268333D02*
X0231500Y0268333D01*
X0231500Y0238333D01*
X0141500Y0238333D01*
X0141500Y0268333D01*
X0141500Y0236333D02*
X0231500Y0236333D01*
X0231500Y0206333D01*
X0141500Y0206333D01*
X0141500Y0236333D01*
X0141500Y0204333D02*
X0231500Y0204333D01*
X0231500Y0174333D01*
X0141500Y0174333D01*
X0141500Y0204333D01*
X0141500Y0172333D02*
X0231500Y0172333D01*
X0231500Y0142333D01*
X0141500Y0142333D01*
X0141500Y0172333D01*
X0141500Y0140333D02*
X0231500Y0140333D01*
X0231500Y0110333D01*
X0141500Y0110333D01*
X0141500Y0140333D01*
X0141500Y0108333D02*
X0231500Y0108333D01*
X0231500Y0078333D01*
X0141500Y0078333D01*
X0141500Y0108333D01*
X0233500Y0108333D02*
X0233500Y0078333D01*
X0323500Y0078333D01*
X0323500Y0108333D01*
X0233500Y0108333D01*
X0233500Y0110333D02*
X0323500Y0110333D01*
X0323500Y0140333D01*
X0233500Y0140333D01*
X0233500Y0110333D01*
X0233500Y0142333D02*
X0323500Y0142333D01*
X0323500Y0172333D01*
X0233500Y0172333D01*
X0233500Y0142333D01*
X0233500Y0174333D02*
X0323500Y0174333D01*
X0323500Y0204333D01*
X0233500Y0204333D01*
X0233500Y0174333D01*
X0233500Y0206333D02*
X0323500Y0206333D01*
X0323500Y0236333D01*
X0233500Y0236333D01*
X0233500Y0206333D01*
X0233500Y0238333D02*
X0323500Y0238333D01*
X0323500Y0268333D01*
X0233500Y0268333D01*
X0233500Y0238333D01*
X0233500Y0270333D02*
X0323500Y0270333D01*
X0323500Y0300333D01*
X0233500Y0300333D01*
X0233500Y0270333D01*
X0233500Y0302333D02*
X0323500Y0302333D01*
X0323500Y0332333D01*
X0233500Y0332333D01*
X0233500Y0302333D01*
X0325500Y0302333D02*
X0415500Y0302333D01*
X0415500Y0332333D01*
X0325500Y0332333D01*
X0325500Y0302333D01*
X0325500Y0300333D02*
X0415500Y0300333D01*
X0415500Y0270333D01*
X0325500Y0270333D01*
X0325500Y0300333D01*
X0325500Y0268333D02*
X0415500Y0268333D01*
X0415500Y0238333D01*
X0325500Y0238333D01*
X0325500Y0268333D01*
X0325500Y0236333D02*
X0415500Y0236333D01*
X0415500Y0206333D01*
X0325500Y0206333D01*
X0325500Y0236333D01*
X0325500Y0204333D02*
X0415500Y0204333D01*
X0415500Y0174333D01*
X0325500Y0174333D01*
X0325500Y0204333D01*
X0325500Y0172333D02*
X0415500Y0172333D01*
X0415500Y0142333D01*
X0325500Y0142333D01*
X0325500Y0172333D01*
X0325500Y0140333D02*
X0415500Y0140333D01*
X0415500Y0110333D01*
X0325500Y0110333D01*
X0325500Y0140333D01*
X0325500Y0108333D02*
X0415500Y0108333D01*
X0415500Y0078333D01*
X0325500Y0078333D01*
X0325500Y0108333D01*
M02*
