G75*
%MOIN*%
%OFA0B0*%
%FSLAX25Y25*%
%IPPOS*%
%LPD*%
%AMOC8*
5,1,8,0,0,1.08239X$1,22.5*
%
%ADD10C,0.00600*%
%ADD11C,0.01000*%
%ADD12C,0.01575*%
D10*
X0097797Y0081309D02*
X0097797Y0082444D01*
X0098364Y0083011D01*
X0098931Y0083011D01*
X0099499Y0082444D01*
X0100066Y0083011D01*
X0100633Y0083011D01*
X0101200Y0082444D01*
X0101200Y0081309D01*
X0100633Y0080742D01*
X0099499Y0081877D02*
X0099499Y0082444D01*
X0098364Y0080742D02*
X0097797Y0081309D01*
X0100633Y0084425D02*
X0100633Y0084993D01*
X0101200Y0084993D01*
X0101200Y0084425D01*
X0100633Y0084425D01*
X0100633Y0086267D02*
X0101200Y0086834D01*
X0101200Y0087968D01*
X0100633Y0088536D01*
X0100066Y0088536D01*
X0099499Y0087968D01*
X0099499Y0087401D01*
X0099499Y0087968D02*
X0098931Y0088536D01*
X0098364Y0088536D01*
X0097797Y0087968D01*
X0097797Y0086834D01*
X0098364Y0086267D01*
X0097797Y0089950D02*
X0100066Y0089950D01*
X0101200Y0091084D01*
X0100066Y0092219D01*
X0097797Y0092219D01*
X0091200Y0092219D02*
X0088931Y0092219D01*
X0087797Y0091084D01*
X0088931Y0089950D01*
X0091200Y0089950D01*
X0090633Y0088536D02*
X0088364Y0088536D01*
X0087797Y0087968D01*
X0087797Y0086267D01*
X0091200Y0086267D01*
X0091200Y0087968D01*
X0090633Y0088536D01*
X0089499Y0089950D02*
X0089499Y0092219D01*
X0081200Y0092219D02*
X0081200Y0089950D01*
X0077797Y0089950D01*
X0078364Y0088536D02*
X0077797Y0087968D01*
X0077797Y0086834D01*
X0078364Y0086267D01*
X0080633Y0086267D01*
X0081200Y0086834D01*
X0081200Y0087968D01*
X0080633Y0088536D01*
X0080633Y0084852D02*
X0081200Y0084285D01*
X0081200Y0083151D01*
X0080633Y0082584D01*
X0079499Y0083151D02*
X0079499Y0084285D01*
X0080066Y0084852D01*
X0080633Y0084852D01*
X0079499Y0083151D02*
X0078931Y0082584D01*
X0078364Y0082584D01*
X0077797Y0083151D01*
X0077797Y0084285D01*
X0078364Y0084852D01*
X0087797Y0084285D02*
X0087797Y0083151D01*
X0088364Y0082584D01*
X0088931Y0082584D01*
X0089499Y0083151D01*
X0089499Y0084285D01*
X0090066Y0084852D01*
X0090633Y0084852D01*
X0091200Y0084285D01*
X0091200Y0083151D01*
X0090633Y0082584D01*
X0088364Y0084852D02*
X0087797Y0084285D01*
X0107797Y0084285D02*
X0107797Y0083151D01*
X0108364Y0082584D01*
X0110633Y0082584D01*
X0111200Y0083151D01*
X0111200Y0084285D01*
X0110633Y0084852D01*
X0109499Y0084852D01*
X0109499Y0083718D01*
X0108364Y0084852D02*
X0107797Y0084285D01*
X0107797Y0086267D02*
X0111200Y0088536D01*
X0107797Y0088536D01*
X0107797Y0089950D02*
X0107797Y0091652D01*
X0108364Y0092219D01*
X0110633Y0092219D01*
X0111200Y0091652D01*
X0111200Y0089950D01*
X0107797Y0089950D01*
X0107797Y0086267D02*
X0111200Y0086267D01*
X0110633Y0114584D02*
X0108364Y0114584D01*
X0107797Y0115151D01*
X0107797Y0116285D01*
X0108364Y0116852D01*
X0109499Y0116852D02*
X0109499Y0115718D01*
X0109499Y0116852D02*
X0110633Y0116852D01*
X0111200Y0116285D01*
X0111200Y0115151D01*
X0110633Y0114584D01*
X0111200Y0118267D02*
X0107797Y0118267D01*
X0111200Y0120536D01*
X0107797Y0120536D01*
X0107797Y0121950D02*
X0107797Y0123652D01*
X0108364Y0124219D01*
X0110633Y0124219D01*
X0111200Y0123652D01*
X0111200Y0121950D01*
X0107797Y0121950D01*
X0101200Y0123084D02*
X0100066Y0124219D01*
X0097797Y0124219D01*
X0097797Y0121950D02*
X0100066Y0121950D01*
X0101200Y0123084D01*
X0100633Y0120536D02*
X0100066Y0120536D01*
X0099499Y0119968D01*
X0099499Y0119401D01*
X0099499Y0119968D02*
X0098931Y0120536D01*
X0098364Y0120536D01*
X0097797Y0119968D01*
X0097797Y0118834D01*
X0098364Y0118267D01*
X0100633Y0118267D02*
X0101200Y0118834D01*
X0101200Y0119968D01*
X0100633Y0120536D01*
X0100633Y0116993D02*
X0101200Y0116993D01*
X0101200Y0116425D01*
X0100633Y0116425D01*
X0100633Y0116993D01*
X0100633Y0115011D02*
X0101200Y0114444D01*
X0101200Y0113309D01*
X0100633Y0112742D01*
X0099499Y0113877D02*
X0099499Y0114444D01*
X0100066Y0115011D01*
X0100633Y0115011D01*
X0099499Y0114444D02*
X0098931Y0115011D01*
X0098364Y0115011D01*
X0097797Y0114444D01*
X0097797Y0113309D01*
X0098364Y0112742D01*
X0091200Y0115151D02*
X0090633Y0114584D01*
X0091200Y0115151D02*
X0091200Y0116285D01*
X0090633Y0116852D01*
X0090066Y0116852D01*
X0089499Y0116285D01*
X0089499Y0115151D01*
X0088931Y0114584D01*
X0088364Y0114584D01*
X0087797Y0115151D01*
X0087797Y0116285D01*
X0088364Y0116852D01*
X0087797Y0118267D02*
X0087797Y0119968D01*
X0088364Y0120536D01*
X0090633Y0120536D01*
X0091200Y0119968D01*
X0091200Y0118267D01*
X0087797Y0118267D01*
X0081200Y0118834D02*
X0081200Y0119968D01*
X0080633Y0120536D01*
X0081200Y0121950D02*
X0077797Y0121950D01*
X0078364Y0120536D02*
X0077797Y0119968D01*
X0077797Y0118834D01*
X0078364Y0118267D01*
X0080633Y0118267D01*
X0081200Y0118834D01*
X0080633Y0116852D02*
X0081200Y0116285D01*
X0081200Y0115151D01*
X0080633Y0114584D01*
X0079499Y0115151D02*
X0078931Y0114584D01*
X0078364Y0114584D01*
X0077797Y0115151D01*
X0077797Y0116285D01*
X0078364Y0116852D01*
X0079499Y0116285D02*
X0080066Y0116852D01*
X0080633Y0116852D01*
X0079499Y0116285D02*
X0079499Y0115151D01*
X0081200Y0121950D02*
X0081200Y0124219D01*
X0087797Y0123084D02*
X0088931Y0124219D01*
X0091200Y0124219D01*
X0089499Y0124219D02*
X0089499Y0121950D01*
X0088931Y0121950D02*
X0087797Y0123084D01*
X0088931Y0121950D02*
X0091200Y0121950D01*
X0098364Y0144742D02*
X0097797Y0145309D01*
X0097797Y0146444D01*
X0098364Y0147011D01*
X0098931Y0147011D01*
X0099499Y0146444D01*
X0100066Y0147011D01*
X0100633Y0147011D01*
X0101200Y0146444D01*
X0101200Y0145309D01*
X0100633Y0144742D01*
X0099499Y0145877D02*
X0099499Y0146444D01*
X0100633Y0148425D02*
X0100633Y0148993D01*
X0101200Y0148993D01*
X0101200Y0148425D01*
X0100633Y0148425D01*
X0100633Y0150267D02*
X0101200Y0150834D01*
X0101200Y0151968D01*
X0100633Y0152536D01*
X0100066Y0152536D01*
X0099499Y0151968D01*
X0099499Y0151401D01*
X0099499Y0151968D02*
X0098931Y0152536D01*
X0098364Y0152536D01*
X0097797Y0151968D01*
X0097797Y0150834D01*
X0098364Y0150267D01*
X0097797Y0153950D02*
X0100066Y0153950D01*
X0101200Y0155084D01*
X0100066Y0156219D01*
X0097797Y0156219D01*
X0091200Y0156219D02*
X0088931Y0156219D01*
X0087797Y0155084D01*
X0088931Y0153950D01*
X0091200Y0153950D01*
X0090633Y0152536D02*
X0088364Y0152536D01*
X0087797Y0151968D01*
X0087797Y0150267D01*
X0091200Y0150267D01*
X0091200Y0151968D01*
X0090633Y0152536D01*
X0089499Y0153950D02*
X0089499Y0156219D01*
X0081200Y0156219D02*
X0081200Y0153950D01*
X0077797Y0153950D01*
X0078364Y0152536D02*
X0077797Y0151968D01*
X0077797Y0150834D01*
X0078364Y0150267D01*
X0080633Y0150267D01*
X0081200Y0150834D01*
X0081200Y0151968D01*
X0080633Y0152536D01*
X0080633Y0148852D02*
X0081200Y0148285D01*
X0081200Y0147151D01*
X0080633Y0146584D01*
X0079499Y0147151D02*
X0078931Y0146584D01*
X0078364Y0146584D01*
X0077797Y0147151D01*
X0077797Y0148285D01*
X0078364Y0148852D01*
X0079499Y0148285D02*
X0080066Y0148852D01*
X0080633Y0148852D01*
X0079499Y0148285D02*
X0079499Y0147151D01*
X0087797Y0147151D02*
X0088364Y0146584D01*
X0088931Y0146584D01*
X0089499Y0147151D01*
X0089499Y0148285D01*
X0090066Y0148852D01*
X0090633Y0148852D01*
X0091200Y0148285D01*
X0091200Y0147151D01*
X0090633Y0146584D01*
X0087797Y0147151D02*
X0087797Y0148285D01*
X0088364Y0148852D01*
X0107797Y0148285D02*
X0107797Y0147151D01*
X0108364Y0146584D01*
X0110633Y0146584D01*
X0111200Y0147151D01*
X0111200Y0148285D01*
X0110633Y0148852D01*
X0109499Y0148852D01*
X0109499Y0147718D01*
X0108364Y0148852D02*
X0107797Y0148285D01*
X0107797Y0150267D02*
X0111200Y0152536D01*
X0107797Y0152536D01*
X0107797Y0153950D02*
X0107797Y0155652D01*
X0108364Y0156219D01*
X0110633Y0156219D01*
X0111200Y0155652D01*
X0111200Y0153950D01*
X0107797Y0153950D01*
X0107797Y0150267D02*
X0111200Y0150267D01*
X0110633Y0178584D02*
X0108364Y0178584D01*
X0107797Y0179151D01*
X0107797Y0180285D01*
X0108364Y0180852D01*
X0109499Y0180852D02*
X0109499Y0179718D01*
X0109499Y0180852D02*
X0110633Y0180852D01*
X0111200Y0180285D01*
X0111200Y0179151D01*
X0110633Y0178584D01*
X0111200Y0182267D02*
X0107797Y0182267D01*
X0111200Y0184536D01*
X0107797Y0184536D01*
X0107797Y0185950D02*
X0107797Y0187652D01*
X0108364Y0188219D01*
X0110633Y0188219D01*
X0111200Y0187652D01*
X0111200Y0185950D01*
X0107797Y0185950D01*
X0101200Y0187084D02*
X0100066Y0188219D01*
X0097797Y0188219D01*
X0097797Y0185950D02*
X0100066Y0185950D01*
X0101200Y0187084D01*
X0100633Y0184536D02*
X0100066Y0184536D01*
X0099499Y0183968D01*
X0099499Y0183401D01*
X0099499Y0183968D02*
X0098931Y0184536D01*
X0098364Y0184536D01*
X0097797Y0183968D01*
X0097797Y0182834D01*
X0098364Y0182267D01*
X0100633Y0182267D02*
X0101200Y0182834D01*
X0101200Y0183968D01*
X0100633Y0184536D01*
X0100633Y0180993D02*
X0101200Y0180993D01*
X0101200Y0180425D01*
X0100633Y0180425D01*
X0100633Y0180993D01*
X0100633Y0179011D02*
X0100066Y0179011D01*
X0099499Y0178444D01*
X0099499Y0177877D01*
X0099499Y0178444D02*
X0098931Y0179011D01*
X0098364Y0179011D01*
X0097797Y0178444D01*
X0097797Y0177309D01*
X0098364Y0176742D01*
X0100633Y0176742D02*
X0101200Y0177309D01*
X0101200Y0178444D01*
X0100633Y0179011D01*
X0091200Y0179151D02*
X0090633Y0178584D01*
X0091200Y0179151D02*
X0091200Y0180285D01*
X0090633Y0180852D01*
X0090066Y0180852D01*
X0089499Y0180285D01*
X0089499Y0179151D01*
X0088931Y0178584D01*
X0088364Y0178584D01*
X0087797Y0179151D01*
X0087797Y0180285D01*
X0088364Y0180852D01*
X0087797Y0182267D02*
X0087797Y0183968D01*
X0088364Y0184536D01*
X0090633Y0184536D01*
X0091200Y0183968D01*
X0091200Y0182267D01*
X0087797Y0182267D01*
X0088931Y0185950D02*
X0087797Y0187084D01*
X0088931Y0188219D01*
X0091200Y0188219D01*
X0089499Y0188219D02*
X0089499Y0185950D01*
X0088931Y0185950D02*
X0091200Y0185950D01*
X0081200Y0185950D02*
X0081200Y0188219D01*
X0081200Y0185950D02*
X0077797Y0185950D01*
X0078364Y0184536D02*
X0077797Y0183968D01*
X0077797Y0182834D01*
X0078364Y0182267D01*
X0080633Y0182267D01*
X0081200Y0182834D01*
X0081200Y0183968D01*
X0080633Y0184536D01*
X0080633Y0180852D02*
X0081200Y0180285D01*
X0081200Y0179151D01*
X0080633Y0178584D01*
X0079499Y0179151D02*
X0079499Y0180285D01*
X0080066Y0180852D01*
X0080633Y0180852D01*
X0079499Y0179151D02*
X0078931Y0178584D01*
X0078364Y0178584D01*
X0077797Y0179151D01*
X0077797Y0180285D01*
X0078364Y0180852D01*
X0078364Y0210584D02*
X0078931Y0210584D01*
X0079499Y0211151D01*
X0079499Y0212285D01*
X0080066Y0212852D01*
X0080633Y0212852D01*
X0081200Y0212285D01*
X0081200Y0211151D01*
X0080633Y0210584D01*
X0078364Y0210584D02*
X0077797Y0211151D01*
X0077797Y0212285D01*
X0078364Y0212852D01*
X0078364Y0214267D02*
X0080633Y0214267D01*
X0081200Y0214834D01*
X0081200Y0215968D01*
X0080633Y0216536D01*
X0081200Y0217950D02*
X0077797Y0217950D01*
X0078364Y0216536D02*
X0077797Y0215968D01*
X0077797Y0214834D01*
X0078364Y0214267D01*
X0081200Y0217950D02*
X0081200Y0220219D01*
X0087797Y0219084D02*
X0088931Y0217950D01*
X0091200Y0217950D01*
X0090633Y0216536D02*
X0088364Y0216536D01*
X0087797Y0215968D01*
X0087797Y0214267D01*
X0091200Y0214267D01*
X0091200Y0215968D01*
X0090633Y0216536D01*
X0089499Y0217950D02*
X0089499Y0220219D01*
X0088931Y0220219D02*
X0091200Y0220219D01*
X0088931Y0220219D02*
X0087797Y0219084D01*
X0088364Y0212852D02*
X0087797Y0212285D01*
X0087797Y0211151D01*
X0088364Y0210584D01*
X0088931Y0210584D01*
X0089499Y0211151D01*
X0089499Y0212285D01*
X0090066Y0212852D01*
X0090633Y0212852D01*
X0091200Y0212285D01*
X0091200Y0211151D01*
X0090633Y0210584D01*
X0097797Y0210444D02*
X0098364Y0211011D01*
X0098931Y0211011D01*
X0099499Y0210444D01*
X0100066Y0211011D01*
X0100633Y0211011D01*
X0101200Y0210444D01*
X0101200Y0209309D01*
X0100633Y0208742D01*
X0099499Y0209877D02*
X0099499Y0210444D01*
X0097797Y0210444D02*
X0097797Y0209309D01*
X0098364Y0208742D01*
X0100633Y0212425D02*
X0100633Y0212993D01*
X0101200Y0212993D01*
X0101200Y0212425D01*
X0100633Y0212425D01*
X0100633Y0214267D02*
X0101200Y0214834D01*
X0101200Y0215968D01*
X0100633Y0216536D01*
X0100066Y0216536D01*
X0099499Y0215968D01*
X0099499Y0215401D01*
X0099499Y0215968D02*
X0098931Y0216536D01*
X0098364Y0216536D01*
X0097797Y0215968D01*
X0097797Y0214834D01*
X0098364Y0214267D01*
X0097797Y0217950D02*
X0100066Y0217950D01*
X0101200Y0219084D01*
X0100066Y0220219D01*
X0097797Y0220219D01*
X0107797Y0219652D02*
X0107797Y0217950D01*
X0111200Y0217950D01*
X0111200Y0219652D01*
X0110633Y0220219D01*
X0108364Y0220219D01*
X0107797Y0219652D01*
X0107797Y0216536D02*
X0111200Y0216536D01*
X0107797Y0214267D01*
X0111200Y0214267D01*
X0110633Y0212852D02*
X0109499Y0212852D01*
X0109499Y0211718D01*
X0110633Y0210584D02*
X0108364Y0210584D01*
X0107797Y0211151D01*
X0107797Y0212285D01*
X0108364Y0212852D01*
X0110633Y0212852D02*
X0111200Y0212285D01*
X0111200Y0211151D01*
X0110633Y0210584D01*
X0100633Y0240742D02*
X0101200Y0241309D01*
X0101200Y0242444D01*
X0100633Y0243011D01*
X0100066Y0243011D01*
X0099499Y0242444D01*
X0099499Y0241877D01*
X0099499Y0242444D02*
X0098931Y0243011D01*
X0098364Y0243011D01*
X0097797Y0242444D01*
X0097797Y0241309D01*
X0098364Y0240742D01*
X0100633Y0244425D02*
X0100633Y0244993D01*
X0101200Y0244993D01*
X0101200Y0244425D01*
X0100633Y0244425D01*
X0100633Y0246267D02*
X0101200Y0246834D01*
X0101200Y0247968D01*
X0100633Y0248536D01*
X0100066Y0248536D01*
X0099499Y0247968D01*
X0099499Y0247401D01*
X0099499Y0247968D02*
X0098931Y0248536D01*
X0098364Y0248536D01*
X0097797Y0247968D01*
X0097797Y0246834D01*
X0098364Y0246267D01*
X0097797Y0249950D02*
X0100066Y0249950D01*
X0101200Y0251084D01*
X0100066Y0252219D01*
X0097797Y0252219D01*
X0091200Y0252219D02*
X0088931Y0252219D01*
X0087797Y0251084D01*
X0088931Y0249950D01*
X0091200Y0249950D01*
X0090633Y0248536D02*
X0088364Y0248536D01*
X0087797Y0247968D01*
X0087797Y0246267D01*
X0091200Y0246267D01*
X0091200Y0247968D01*
X0090633Y0248536D01*
X0089499Y0249950D02*
X0089499Y0252219D01*
X0081200Y0252219D02*
X0081200Y0249950D01*
X0077797Y0249950D01*
X0078364Y0248536D02*
X0077797Y0247968D01*
X0077797Y0246834D01*
X0078364Y0246267D01*
X0080633Y0246267D01*
X0081200Y0246834D01*
X0081200Y0247968D01*
X0080633Y0248536D01*
X0080633Y0244852D02*
X0081200Y0244285D01*
X0081200Y0243151D01*
X0080633Y0242584D01*
X0079499Y0243151D02*
X0079499Y0244285D01*
X0080066Y0244852D01*
X0080633Y0244852D01*
X0079499Y0243151D02*
X0078931Y0242584D01*
X0078364Y0242584D01*
X0077797Y0243151D01*
X0077797Y0244285D01*
X0078364Y0244852D01*
X0087797Y0244285D02*
X0087797Y0243151D01*
X0088364Y0242584D01*
X0088931Y0242584D01*
X0089499Y0243151D01*
X0089499Y0244285D01*
X0090066Y0244852D01*
X0090633Y0244852D01*
X0091200Y0244285D01*
X0091200Y0243151D01*
X0090633Y0242584D01*
X0088364Y0244852D02*
X0087797Y0244285D01*
X0107797Y0244285D02*
X0107797Y0243151D01*
X0108364Y0242584D01*
X0110633Y0242584D01*
X0111200Y0243151D01*
X0111200Y0244285D01*
X0110633Y0244852D01*
X0109499Y0244852D01*
X0109499Y0243718D01*
X0108364Y0244852D02*
X0107797Y0244285D01*
X0107797Y0246267D02*
X0111200Y0248536D01*
X0107797Y0248536D01*
X0107797Y0249950D02*
X0107797Y0251652D01*
X0108364Y0252219D01*
X0110633Y0252219D01*
X0111200Y0251652D01*
X0111200Y0249950D01*
X0107797Y0249950D01*
X0107797Y0246267D02*
X0111200Y0246267D01*
X0110633Y0274584D02*
X0108364Y0274584D01*
X0107797Y0275151D01*
X0107797Y0276285D01*
X0108364Y0276852D01*
X0109499Y0276852D02*
X0109499Y0275718D01*
X0109499Y0276852D02*
X0110633Y0276852D01*
X0111200Y0276285D01*
X0111200Y0275151D01*
X0110633Y0274584D01*
X0111200Y0278267D02*
X0107797Y0278267D01*
X0111200Y0280536D01*
X0107797Y0280536D01*
X0107797Y0281950D02*
X0107797Y0283652D01*
X0108364Y0284219D01*
X0110633Y0284219D01*
X0111200Y0283652D01*
X0111200Y0281950D01*
X0107797Y0281950D01*
X0101200Y0283084D02*
X0100066Y0284219D01*
X0097797Y0284219D01*
X0097797Y0281950D02*
X0100066Y0281950D01*
X0101200Y0283084D01*
X0100633Y0280536D02*
X0101200Y0279968D01*
X0101200Y0278834D01*
X0100633Y0278267D01*
X0100633Y0276993D02*
X0101200Y0276993D01*
X0101200Y0276425D01*
X0100633Y0276425D01*
X0100633Y0276993D01*
X0100633Y0275011D02*
X0100066Y0275011D01*
X0099499Y0274444D01*
X0099499Y0273877D01*
X0099499Y0274444D02*
X0098931Y0275011D01*
X0098364Y0275011D01*
X0097797Y0274444D01*
X0097797Y0273309D01*
X0098364Y0272742D01*
X0100633Y0272742D02*
X0101200Y0273309D01*
X0101200Y0274444D01*
X0100633Y0275011D01*
X0098364Y0278267D02*
X0097797Y0278834D01*
X0097797Y0279968D01*
X0098364Y0280536D01*
X0098931Y0280536D01*
X0099499Y0279968D01*
X0100066Y0280536D01*
X0100633Y0280536D01*
X0099499Y0279968D02*
X0099499Y0279401D01*
X0091200Y0279968D02*
X0090633Y0280536D01*
X0088364Y0280536D01*
X0087797Y0279968D01*
X0087797Y0278267D01*
X0091200Y0278267D01*
X0091200Y0279968D01*
X0091200Y0281950D02*
X0088931Y0281950D01*
X0087797Y0283084D01*
X0088931Y0284219D01*
X0091200Y0284219D01*
X0089499Y0284219D02*
X0089499Y0281950D01*
X0090066Y0276852D02*
X0090633Y0276852D01*
X0091200Y0276285D01*
X0091200Y0275151D01*
X0090633Y0274584D01*
X0089499Y0275151D02*
X0089499Y0276285D01*
X0090066Y0276852D01*
X0088364Y0276852D02*
X0087797Y0276285D01*
X0087797Y0275151D01*
X0088364Y0274584D01*
X0088931Y0274584D01*
X0089499Y0275151D01*
X0081200Y0275151D02*
X0081200Y0276285D01*
X0080633Y0276852D01*
X0080066Y0276852D01*
X0079499Y0276285D01*
X0079499Y0275151D01*
X0078931Y0274584D01*
X0078364Y0274584D01*
X0077797Y0275151D01*
X0077797Y0276285D01*
X0078364Y0276852D01*
X0078364Y0278267D02*
X0080633Y0278267D01*
X0081200Y0278834D01*
X0081200Y0279968D01*
X0080633Y0280536D01*
X0081200Y0281950D02*
X0077797Y0281950D01*
X0078364Y0280536D02*
X0077797Y0279968D01*
X0077797Y0278834D01*
X0078364Y0278267D01*
X0081200Y0275151D02*
X0080633Y0274584D01*
X0081200Y0281950D02*
X0081200Y0284219D01*
X0098364Y0304742D02*
X0097797Y0305309D01*
X0097797Y0306444D01*
X0098364Y0307011D01*
X0098931Y0307011D01*
X0099499Y0306444D01*
X0100066Y0307011D01*
X0100633Y0307011D01*
X0101200Y0306444D01*
X0101200Y0305309D01*
X0100633Y0304742D01*
X0099499Y0305877D02*
X0099499Y0306444D01*
X0100633Y0308425D02*
X0100633Y0308993D01*
X0101200Y0308993D01*
X0101200Y0308425D01*
X0100633Y0308425D01*
X0100633Y0310267D02*
X0101200Y0310834D01*
X0101200Y0311968D01*
X0100633Y0312536D01*
X0100066Y0312536D01*
X0099499Y0311968D01*
X0099499Y0311401D01*
X0099499Y0311968D02*
X0098931Y0312536D01*
X0098364Y0312536D01*
X0097797Y0311968D01*
X0097797Y0310834D01*
X0098364Y0310267D01*
X0097797Y0313950D02*
X0100066Y0313950D01*
X0101200Y0315084D01*
X0100066Y0316219D01*
X0097797Y0316219D01*
X0091200Y0316219D02*
X0088931Y0316219D01*
X0087797Y0315084D01*
X0088931Y0313950D01*
X0091200Y0313950D01*
X0090633Y0312536D02*
X0088364Y0312536D01*
X0087797Y0311968D01*
X0087797Y0310267D01*
X0091200Y0310267D01*
X0091200Y0311968D01*
X0090633Y0312536D01*
X0089499Y0313950D02*
X0089499Y0316219D01*
X0081200Y0316219D02*
X0081200Y0313950D01*
X0077797Y0313950D01*
X0078364Y0312536D02*
X0077797Y0311968D01*
X0077797Y0310834D01*
X0078364Y0310267D01*
X0080633Y0310267D01*
X0081200Y0310834D01*
X0081200Y0311968D01*
X0080633Y0312536D01*
X0080633Y0308852D02*
X0081200Y0308285D01*
X0081200Y0307151D01*
X0080633Y0306584D01*
X0079499Y0307151D02*
X0079499Y0308285D01*
X0080066Y0308852D01*
X0080633Y0308852D01*
X0079499Y0307151D02*
X0078931Y0306584D01*
X0078364Y0306584D01*
X0077797Y0307151D01*
X0077797Y0308285D01*
X0078364Y0308852D01*
X0087797Y0308285D02*
X0087797Y0307151D01*
X0088364Y0306584D01*
X0088931Y0306584D01*
X0089499Y0307151D01*
X0089499Y0308285D01*
X0090066Y0308852D01*
X0090633Y0308852D01*
X0091200Y0308285D01*
X0091200Y0307151D01*
X0090633Y0306584D01*
X0088364Y0308852D02*
X0087797Y0308285D01*
X0107797Y0308285D02*
X0107797Y0307151D01*
X0108364Y0306584D01*
X0110633Y0306584D01*
X0111200Y0307151D01*
X0111200Y0308285D01*
X0110633Y0308852D01*
X0109499Y0308852D01*
X0109499Y0307718D01*
X0108364Y0308852D02*
X0107797Y0308285D01*
X0107797Y0310267D02*
X0111200Y0312536D01*
X0107797Y0312536D01*
X0107797Y0313950D02*
X0107797Y0315652D01*
X0108364Y0316219D01*
X0110633Y0316219D01*
X0111200Y0315652D01*
X0111200Y0313950D01*
X0107797Y0313950D01*
X0107797Y0310267D02*
X0111200Y0310267D01*
X0169797Y0310834D02*
X0170364Y0310267D01*
X0172633Y0310267D01*
X0173200Y0310834D01*
X0173200Y0311968D01*
X0172633Y0312536D01*
X0173200Y0313950D02*
X0173200Y0316219D01*
X0173200Y0313950D02*
X0169797Y0313950D01*
X0170364Y0312536D02*
X0169797Y0311968D01*
X0169797Y0310834D01*
X0170364Y0308852D02*
X0169797Y0308285D01*
X0169797Y0307151D01*
X0170364Y0306584D01*
X0170931Y0306584D01*
X0171499Y0307151D01*
X0171499Y0308285D01*
X0172066Y0308852D01*
X0172633Y0308852D01*
X0173200Y0308285D01*
X0173200Y0307151D01*
X0172633Y0306584D01*
X0179797Y0307151D02*
X0180364Y0306584D01*
X0180931Y0306584D01*
X0181499Y0307151D01*
X0181499Y0308285D01*
X0182066Y0308852D01*
X0182633Y0308852D01*
X0183200Y0308285D01*
X0183200Y0307151D01*
X0182633Y0306584D01*
X0179797Y0307151D02*
X0179797Y0308285D01*
X0180364Y0308852D01*
X0179797Y0310267D02*
X0179797Y0311968D01*
X0180364Y0312536D01*
X0182633Y0312536D01*
X0183200Y0311968D01*
X0183200Y0310267D01*
X0179797Y0310267D01*
X0180931Y0313950D02*
X0179797Y0315084D01*
X0180931Y0316219D01*
X0183200Y0316219D01*
X0181499Y0316219D02*
X0181499Y0313950D01*
X0180931Y0313950D02*
X0183200Y0313950D01*
X0189797Y0313950D02*
X0192066Y0313950D01*
X0193200Y0315084D01*
X0192066Y0316219D01*
X0189797Y0316219D01*
X0190364Y0312536D02*
X0190931Y0312536D01*
X0191499Y0311968D01*
X0192066Y0312536D01*
X0192633Y0312536D01*
X0193200Y0311968D01*
X0193200Y0310834D01*
X0192633Y0310267D01*
X0192633Y0308993D02*
X0193200Y0308993D01*
X0193200Y0308425D01*
X0192633Y0308425D01*
X0192633Y0308993D01*
X0192633Y0307011D02*
X0193200Y0306444D01*
X0193200Y0305309D01*
X0192633Y0304742D01*
X0191499Y0305877D02*
X0191499Y0306444D01*
X0192066Y0307011D01*
X0192633Y0307011D01*
X0191499Y0306444D02*
X0190931Y0307011D01*
X0190364Y0307011D01*
X0189797Y0306444D01*
X0189797Y0305309D01*
X0190364Y0304742D01*
X0190364Y0310267D02*
X0189797Y0310834D01*
X0189797Y0311968D01*
X0190364Y0312536D01*
X0191499Y0311968D02*
X0191499Y0311401D01*
X0199797Y0310267D02*
X0203200Y0312536D01*
X0199797Y0312536D01*
X0199797Y0313950D02*
X0199797Y0315652D01*
X0200364Y0316219D01*
X0202633Y0316219D01*
X0203200Y0315652D01*
X0203200Y0313950D01*
X0199797Y0313950D01*
X0199797Y0310267D02*
X0203200Y0310267D01*
X0202633Y0308852D02*
X0201499Y0308852D01*
X0201499Y0307718D01*
X0202633Y0306584D02*
X0203200Y0307151D01*
X0203200Y0308285D01*
X0202633Y0308852D01*
X0202633Y0306584D02*
X0200364Y0306584D01*
X0199797Y0307151D01*
X0199797Y0308285D01*
X0200364Y0308852D01*
X0200364Y0284219D02*
X0199797Y0283652D01*
X0199797Y0281950D01*
X0203200Y0281950D01*
X0203200Y0283652D01*
X0202633Y0284219D01*
X0200364Y0284219D01*
X0199797Y0280536D02*
X0203200Y0280536D01*
X0199797Y0278267D01*
X0203200Y0278267D01*
X0202633Y0276852D02*
X0201499Y0276852D01*
X0201499Y0275718D01*
X0202633Y0274584D02*
X0203200Y0275151D01*
X0203200Y0276285D01*
X0202633Y0276852D01*
X0202633Y0274584D02*
X0200364Y0274584D01*
X0199797Y0275151D01*
X0199797Y0276285D01*
X0200364Y0276852D01*
X0193200Y0276993D02*
X0193200Y0276425D01*
X0192633Y0276425D01*
X0192633Y0276993D01*
X0193200Y0276993D01*
X0192633Y0278267D02*
X0193200Y0278834D01*
X0193200Y0279968D01*
X0192633Y0280536D01*
X0192066Y0280536D01*
X0191499Y0279968D01*
X0191499Y0279401D01*
X0191499Y0279968D02*
X0190931Y0280536D01*
X0190364Y0280536D01*
X0189797Y0279968D01*
X0189797Y0278834D01*
X0190364Y0278267D01*
X0190364Y0275011D02*
X0190931Y0275011D01*
X0191499Y0274444D01*
X0192066Y0275011D01*
X0192633Y0275011D01*
X0193200Y0274444D01*
X0193200Y0273309D01*
X0192633Y0272742D01*
X0191499Y0273877D02*
X0191499Y0274444D01*
X0190364Y0275011D02*
X0189797Y0274444D01*
X0189797Y0273309D01*
X0190364Y0272742D01*
X0183200Y0275151D02*
X0183200Y0276285D01*
X0182633Y0276852D01*
X0182066Y0276852D01*
X0181499Y0276285D01*
X0181499Y0275151D01*
X0180931Y0274584D01*
X0180364Y0274584D01*
X0179797Y0275151D01*
X0179797Y0276285D01*
X0180364Y0276852D01*
X0179797Y0278267D02*
X0179797Y0279968D01*
X0180364Y0280536D01*
X0182633Y0280536D01*
X0183200Y0279968D01*
X0183200Y0278267D01*
X0179797Y0278267D01*
X0180931Y0281950D02*
X0179797Y0283084D01*
X0180931Y0284219D01*
X0183200Y0284219D01*
X0181499Y0284219D02*
X0181499Y0281950D01*
X0180931Y0281950D02*
X0183200Y0281950D01*
X0189797Y0281950D02*
X0192066Y0281950D01*
X0193200Y0283084D01*
X0192066Y0284219D01*
X0189797Y0284219D01*
X0183200Y0275151D02*
X0182633Y0274584D01*
X0173200Y0275151D02*
X0172633Y0274584D01*
X0173200Y0275151D02*
X0173200Y0276285D01*
X0172633Y0276852D01*
X0172066Y0276852D01*
X0171499Y0276285D01*
X0171499Y0275151D01*
X0170931Y0274584D01*
X0170364Y0274584D01*
X0169797Y0275151D01*
X0169797Y0276285D01*
X0170364Y0276852D01*
X0170364Y0278267D02*
X0172633Y0278267D01*
X0173200Y0278834D01*
X0173200Y0279968D01*
X0172633Y0280536D01*
X0173200Y0281950D02*
X0173200Y0284219D01*
X0173200Y0281950D02*
X0169797Y0281950D01*
X0170364Y0280536D02*
X0169797Y0279968D01*
X0169797Y0278834D01*
X0170364Y0278267D01*
X0173200Y0252219D02*
X0173200Y0249950D01*
X0169797Y0249950D01*
X0170364Y0248536D02*
X0169797Y0247968D01*
X0169797Y0246834D01*
X0170364Y0246267D01*
X0172633Y0246267D01*
X0173200Y0246834D01*
X0173200Y0247968D01*
X0172633Y0248536D01*
X0172633Y0244852D02*
X0173200Y0244285D01*
X0173200Y0243151D01*
X0172633Y0242584D01*
X0171499Y0243151D02*
X0171499Y0244285D01*
X0172066Y0244852D01*
X0172633Y0244852D01*
X0171499Y0243151D02*
X0170931Y0242584D01*
X0170364Y0242584D01*
X0169797Y0243151D01*
X0169797Y0244285D01*
X0170364Y0244852D01*
X0179797Y0244285D02*
X0179797Y0243151D01*
X0180364Y0242584D01*
X0180931Y0242584D01*
X0181499Y0243151D01*
X0181499Y0244285D01*
X0182066Y0244852D01*
X0182633Y0244852D01*
X0183200Y0244285D01*
X0183200Y0243151D01*
X0182633Y0242584D01*
X0180364Y0244852D02*
X0179797Y0244285D01*
X0179797Y0246267D02*
X0179797Y0247968D01*
X0180364Y0248536D01*
X0182633Y0248536D01*
X0183200Y0247968D01*
X0183200Y0246267D01*
X0179797Y0246267D01*
X0180931Y0249950D02*
X0179797Y0251084D01*
X0180931Y0252219D01*
X0183200Y0252219D01*
X0181499Y0252219D02*
X0181499Y0249950D01*
X0180931Y0249950D02*
X0183200Y0249950D01*
X0189797Y0249950D02*
X0192066Y0249950D01*
X0193200Y0251084D01*
X0192066Y0252219D01*
X0189797Y0252219D01*
X0190364Y0248536D02*
X0190931Y0248536D01*
X0191499Y0247968D01*
X0192066Y0248536D01*
X0192633Y0248536D01*
X0193200Y0247968D01*
X0193200Y0246834D01*
X0192633Y0246267D01*
X0192633Y0244993D02*
X0193200Y0244993D01*
X0193200Y0244425D01*
X0192633Y0244425D01*
X0192633Y0244993D01*
X0192633Y0243011D02*
X0193200Y0242444D01*
X0193200Y0241309D01*
X0192633Y0240742D01*
X0191499Y0241877D02*
X0191499Y0242444D01*
X0192066Y0243011D01*
X0192633Y0243011D01*
X0191499Y0242444D02*
X0190931Y0243011D01*
X0190364Y0243011D01*
X0189797Y0242444D01*
X0189797Y0241309D01*
X0190364Y0240742D01*
X0190364Y0246267D02*
X0189797Y0246834D01*
X0189797Y0247968D01*
X0190364Y0248536D01*
X0191499Y0247968D02*
X0191499Y0247401D01*
X0199797Y0246267D02*
X0203200Y0248536D01*
X0199797Y0248536D01*
X0199797Y0249950D02*
X0199797Y0251652D01*
X0200364Y0252219D01*
X0202633Y0252219D01*
X0203200Y0251652D01*
X0203200Y0249950D01*
X0199797Y0249950D01*
X0199797Y0246267D02*
X0203200Y0246267D01*
X0202633Y0244852D02*
X0201499Y0244852D01*
X0201499Y0243718D01*
X0202633Y0242584D02*
X0203200Y0243151D01*
X0203200Y0244285D01*
X0202633Y0244852D01*
X0202633Y0242584D02*
X0200364Y0242584D01*
X0199797Y0243151D01*
X0199797Y0244285D01*
X0200364Y0244852D01*
X0200364Y0220219D02*
X0199797Y0219652D01*
X0199797Y0217950D01*
X0203200Y0217950D01*
X0203200Y0219652D01*
X0202633Y0220219D01*
X0200364Y0220219D01*
X0199797Y0216536D02*
X0203200Y0216536D01*
X0199797Y0214267D01*
X0203200Y0214267D01*
X0202633Y0212852D02*
X0201499Y0212852D01*
X0201499Y0211718D01*
X0202633Y0210584D02*
X0203200Y0211151D01*
X0203200Y0212285D01*
X0202633Y0212852D01*
X0202633Y0210584D02*
X0200364Y0210584D01*
X0199797Y0211151D01*
X0199797Y0212285D01*
X0200364Y0212852D01*
X0193200Y0212993D02*
X0193200Y0212425D01*
X0192633Y0212425D01*
X0192633Y0212993D01*
X0193200Y0212993D01*
X0192633Y0214267D02*
X0193200Y0214834D01*
X0193200Y0215968D01*
X0192633Y0216536D01*
X0192066Y0216536D01*
X0191499Y0215968D01*
X0191499Y0215401D01*
X0191499Y0215968D02*
X0190931Y0216536D01*
X0190364Y0216536D01*
X0189797Y0215968D01*
X0189797Y0214834D01*
X0190364Y0214267D01*
X0190364Y0211011D02*
X0190931Y0211011D01*
X0191499Y0210444D01*
X0192066Y0211011D01*
X0192633Y0211011D01*
X0193200Y0210444D01*
X0193200Y0209309D01*
X0192633Y0208742D01*
X0191499Y0209877D02*
X0191499Y0210444D01*
X0190364Y0211011D02*
X0189797Y0210444D01*
X0189797Y0209309D01*
X0190364Y0208742D01*
X0183200Y0211151D02*
X0183200Y0212285D01*
X0182633Y0212852D01*
X0182066Y0212852D01*
X0181499Y0212285D01*
X0181499Y0211151D01*
X0180931Y0210584D01*
X0180364Y0210584D01*
X0179797Y0211151D01*
X0179797Y0212285D01*
X0180364Y0212852D01*
X0179797Y0214267D02*
X0179797Y0215968D01*
X0180364Y0216536D01*
X0182633Y0216536D01*
X0183200Y0215968D01*
X0183200Y0214267D01*
X0179797Y0214267D01*
X0180931Y0217950D02*
X0179797Y0219084D01*
X0180931Y0220219D01*
X0183200Y0220219D01*
X0181499Y0220219D02*
X0181499Y0217950D01*
X0180931Y0217950D02*
X0183200Y0217950D01*
X0189797Y0217950D02*
X0192066Y0217950D01*
X0193200Y0219084D01*
X0192066Y0220219D01*
X0189797Y0220219D01*
X0183200Y0211151D02*
X0182633Y0210584D01*
X0173200Y0211151D02*
X0172633Y0210584D01*
X0173200Y0211151D02*
X0173200Y0212285D01*
X0172633Y0212852D01*
X0172066Y0212852D01*
X0171499Y0212285D01*
X0171499Y0211151D01*
X0170931Y0210584D01*
X0170364Y0210584D01*
X0169797Y0211151D01*
X0169797Y0212285D01*
X0170364Y0212852D01*
X0170364Y0214267D02*
X0172633Y0214267D01*
X0173200Y0214834D01*
X0173200Y0215968D01*
X0172633Y0216536D01*
X0173200Y0217950D02*
X0173200Y0220219D01*
X0173200Y0217950D02*
X0169797Y0217950D01*
X0170364Y0216536D02*
X0169797Y0215968D01*
X0169797Y0214834D01*
X0170364Y0214267D01*
X0173200Y0188219D02*
X0173200Y0185950D01*
X0169797Y0185950D01*
X0170364Y0184536D02*
X0169797Y0183968D01*
X0169797Y0182834D01*
X0170364Y0182267D01*
X0172633Y0182267D01*
X0173200Y0182834D01*
X0173200Y0183968D01*
X0172633Y0184536D01*
X0172633Y0180852D02*
X0173200Y0180285D01*
X0173200Y0179151D01*
X0172633Y0178584D01*
X0171499Y0179151D02*
X0171499Y0180285D01*
X0172066Y0180852D01*
X0172633Y0180852D01*
X0171499Y0179151D02*
X0170931Y0178584D01*
X0170364Y0178584D01*
X0169797Y0179151D01*
X0169797Y0180285D01*
X0170364Y0180852D01*
X0179797Y0180285D02*
X0179797Y0179151D01*
X0180364Y0178584D01*
X0180931Y0178584D01*
X0181499Y0179151D01*
X0181499Y0180285D01*
X0182066Y0180852D01*
X0182633Y0180852D01*
X0183200Y0180285D01*
X0183200Y0179151D01*
X0182633Y0178584D01*
X0180364Y0180852D02*
X0179797Y0180285D01*
X0179797Y0182267D02*
X0179797Y0183968D01*
X0180364Y0184536D01*
X0182633Y0184536D01*
X0183200Y0183968D01*
X0183200Y0182267D01*
X0179797Y0182267D01*
X0180931Y0185950D02*
X0179797Y0187084D01*
X0180931Y0188219D01*
X0183200Y0188219D01*
X0181499Y0188219D02*
X0181499Y0185950D01*
X0180931Y0185950D02*
X0183200Y0185950D01*
X0189797Y0185950D02*
X0192066Y0185950D01*
X0193200Y0187084D01*
X0192066Y0188219D01*
X0189797Y0188219D01*
X0190364Y0184536D02*
X0190931Y0184536D01*
X0191499Y0183968D01*
X0192066Y0184536D01*
X0192633Y0184536D01*
X0193200Y0183968D01*
X0193200Y0182834D01*
X0192633Y0182267D01*
X0192633Y0180993D02*
X0193200Y0180993D01*
X0193200Y0180425D01*
X0192633Y0180425D01*
X0192633Y0180993D01*
X0192633Y0179011D02*
X0193200Y0178444D01*
X0193200Y0177309D01*
X0192633Y0176742D01*
X0191499Y0177877D02*
X0191499Y0178444D01*
X0192066Y0179011D01*
X0192633Y0179011D01*
X0191499Y0178444D02*
X0190931Y0179011D01*
X0190364Y0179011D01*
X0189797Y0178444D01*
X0189797Y0177309D01*
X0190364Y0176742D01*
X0190364Y0182267D02*
X0189797Y0182834D01*
X0189797Y0183968D01*
X0190364Y0184536D01*
X0191499Y0183968D02*
X0191499Y0183401D01*
X0199797Y0182267D02*
X0203200Y0184536D01*
X0199797Y0184536D01*
X0199797Y0185950D02*
X0199797Y0187652D01*
X0200364Y0188219D01*
X0202633Y0188219D01*
X0203200Y0187652D01*
X0203200Y0185950D01*
X0199797Y0185950D01*
X0199797Y0182267D02*
X0203200Y0182267D01*
X0202633Y0180852D02*
X0201499Y0180852D01*
X0201499Y0179718D01*
X0202633Y0178584D02*
X0203200Y0179151D01*
X0203200Y0180285D01*
X0202633Y0180852D01*
X0202633Y0178584D02*
X0200364Y0178584D01*
X0199797Y0179151D01*
X0199797Y0180285D01*
X0200364Y0180852D01*
X0200364Y0156219D02*
X0199797Y0155652D01*
X0199797Y0153950D01*
X0203200Y0153950D01*
X0203200Y0155652D01*
X0202633Y0156219D01*
X0200364Y0156219D01*
X0199797Y0152536D02*
X0203200Y0152536D01*
X0199797Y0150267D01*
X0203200Y0150267D01*
X0202633Y0148852D02*
X0201499Y0148852D01*
X0201499Y0147718D01*
X0202633Y0146584D02*
X0203200Y0147151D01*
X0203200Y0148285D01*
X0202633Y0148852D01*
X0202633Y0146584D02*
X0200364Y0146584D01*
X0199797Y0147151D01*
X0199797Y0148285D01*
X0200364Y0148852D01*
X0193200Y0148993D02*
X0193200Y0148425D01*
X0192633Y0148425D01*
X0192633Y0148993D01*
X0193200Y0148993D01*
X0192633Y0150267D02*
X0193200Y0150834D01*
X0193200Y0151968D01*
X0192633Y0152536D01*
X0192066Y0152536D01*
X0191499Y0151968D01*
X0191499Y0151401D01*
X0191499Y0151968D02*
X0190931Y0152536D01*
X0190364Y0152536D01*
X0189797Y0151968D01*
X0189797Y0150834D01*
X0190364Y0150267D01*
X0190364Y0147011D02*
X0190931Y0147011D01*
X0191499Y0146444D01*
X0192066Y0147011D01*
X0192633Y0147011D01*
X0193200Y0146444D01*
X0193200Y0145309D01*
X0192633Y0144742D01*
X0191499Y0145877D02*
X0191499Y0146444D01*
X0190364Y0147011D02*
X0189797Y0146444D01*
X0189797Y0145309D01*
X0190364Y0144742D01*
X0183200Y0147151D02*
X0182633Y0146584D01*
X0183200Y0147151D02*
X0183200Y0148285D01*
X0182633Y0148852D01*
X0182066Y0148852D01*
X0181499Y0148285D01*
X0181499Y0147151D01*
X0180931Y0146584D01*
X0180364Y0146584D01*
X0179797Y0147151D01*
X0179797Y0148285D01*
X0180364Y0148852D01*
X0179797Y0150267D02*
X0179797Y0151968D01*
X0180364Y0152536D01*
X0182633Y0152536D01*
X0183200Y0151968D01*
X0183200Y0150267D01*
X0179797Y0150267D01*
X0180931Y0153950D02*
X0179797Y0155084D01*
X0180931Y0156219D01*
X0183200Y0156219D01*
X0181499Y0156219D02*
X0181499Y0153950D01*
X0180931Y0153950D02*
X0183200Y0153950D01*
X0189797Y0153950D02*
X0192066Y0153950D01*
X0193200Y0155084D01*
X0192066Y0156219D01*
X0189797Y0156219D01*
X0173200Y0156219D02*
X0173200Y0153950D01*
X0169797Y0153950D01*
X0170364Y0152536D02*
X0169797Y0151968D01*
X0169797Y0150834D01*
X0170364Y0150267D01*
X0172633Y0150267D01*
X0173200Y0150834D01*
X0173200Y0151968D01*
X0172633Y0152536D01*
X0172633Y0148852D02*
X0173200Y0148285D01*
X0173200Y0147151D01*
X0172633Y0146584D01*
X0171499Y0147151D02*
X0171499Y0148285D01*
X0172066Y0148852D01*
X0172633Y0148852D01*
X0171499Y0147151D02*
X0170931Y0146584D01*
X0170364Y0146584D01*
X0169797Y0147151D01*
X0169797Y0148285D01*
X0170364Y0148852D01*
X0173200Y0124219D02*
X0173200Y0121950D01*
X0169797Y0121950D01*
X0170364Y0120536D02*
X0169797Y0119968D01*
X0169797Y0118834D01*
X0170364Y0118267D01*
X0172633Y0118267D01*
X0173200Y0118834D01*
X0173200Y0119968D01*
X0172633Y0120536D01*
X0172633Y0116852D02*
X0173200Y0116285D01*
X0173200Y0115151D01*
X0172633Y0114584D01*
X0171499Y0115151D02*
X0171499Y0116285D01*
X0172066Y0116852D01*
X0172633Y0116852D01*
X0171499Y0115151D02*
X0170931Y0114584D01*
X0170364Y0114584D01*
X0169797Y0115151D01*
X0169797Y0116285D01*
X0170364Y0116852D01*
X0179797Y0116285D02*
X0179797Y0115151D01*
X0180364Y0114584D01*
X0180931Y0114584D01*
X0181499Y0115151D01*
X0181499Y0116285D01*
X0182066Y0116852D01*
X0182633Y0116852D01*
X0183200Y0116285D01*
X0183200Y0115151D01*
X0182633Y0114584D01*
X0180364Y0116852D02*
X0179797Y0116285D01*
X0179797Y0118267D02*
X0179797Y0119968D01*
X0180364Y0120536D01*
X0182633Y0120536D01*
X0183200Y0119968D01*
X0183200Y0118267D01*
X0179797Y0118267D01*
X0180931Y0121950D02*
X0179797Y0123084D01*
X0180931Y0124219D01*
X0183200Y0124219D01*
X0181499Y0124219D02*
X0181499Y0121950D01*
X0180931Y0121950D02*
X0183200Y0121950D01*
X0189797Y0121950D02*
X0192066Y0121950D01*
X0193200Y0123084D01*
X0192066Y0124219D01*
X0189797Y0124219D01*
X0190364Y0120536D02*
X0190931Y0120536D01*
X0191499Y0119968D01*
X0192066Y0120536D01*
X0192633Y0120536D01*
X0193200Y0119968D01*
X0193200Y0118834D01*
X0192633Y0118267D01*
X0192633Y0116993D02*
X0193200Y0116993D01*
X0193200Y0116425D01*
X0192633Y0116425D01*
X0192633Y0116993D01*
X0192633Y0115011D02*
X0193200Y0114444D01*
X0193200Y0113309D01*
X0192633Y0112742D01*
X0191499Y0113877D02*
X0191499Y0114444D01*
X0192066Y0115011D01*
X0192633Y0115011D01*
X0191499Y0114444D02*
X0190931Y0115011D01*
X0190364Y0115011D01*
X0189797Y0114444D01*
X0189797Y0113309D01*
X0190364Y0112742D01*
X0190364Y0118267D02*
X0189797Y0118834D01*
X0189797Y0119968D01*
X0190364Y0120536D01*
X0191499Y0119968D02*
X0191499Y0119401D01*
X0199797Y0118267D02*
X0203200Y0120536D01*
X0199797Y0120536D01*
X0199797Y0121950D02*
X0199797Y0123652D01*
X0200364Y0124219D01*
X0202633Y0124219D01*
X0203200Y0123652D01*
X0203200Y0121950D01*
X0199797Y0121950D01*
X0199797Y0118267D02*
X0203200Y0118267D01*
X0202633Y0116852D02*
X0201499Y0116852D01*
X0201499Y0115718D01*
X0202633Y0114584D02*
X0203200Y0115151D01*
X0203200Y0116285D01*
X0202633Y0116852D01*
X0202633Y0114584D02*
X0200364Y0114584D01*
X0199797Y0115151D01*
X0199797Y0116285D01*
X0200364Y0116852D01*
X0200364Y0092219D02*
X0199797Y0091652D01*
X0199797Y0089950D01*
X0203200Y0089950D01*
X0203200Y0091652D01*
X0202633Y0092219D01*
X0200364Y0092219D01*
X0199797Y0088536D02*
X0203200Y0088536D01*
X0199797Y0086267D01*
X0203200Y0086267D01*
X0202633Y0084852D02*
X0201499Y0084852D01*
X0201499Y0083718D01*
X0202633Y0082584D02*
X0203200Y0083151D01*
X0203200Y0084285D01*
X0202633Y0084852D01*
X0202633Y0082584D02*
X0200364Y0082584D01*
X0199797Y0083151D01*
X0199797Y0084285D01*
X0200364Y0084852D01*
X0193200Y0084993D02*
X0193200Y0084425D01*
X0192633Y0084425D01*
X0192633Y0084993D01*
X0193200Y0084993D01*
X0192633Y0086267D02*
X0193200Y0086834D01*
X0193200Y0087968D01*
X0192633Y0088536D01*
X0192066Y0088536D01*
X0191499Y0087968D01*
X0191499Y0087401D01*
X0191499Y0087968D02*
X0190931Y0088536D01*
X0190364Y0088536D01*
X0189797Y0087968D01*
X0189797Y0086834D01*
X0190364Y0086267D01*
X0190364Y0083011D02*
X0190931Y0083011D01*
X0191499Y0082444D01*
X0192066Y0083011D01*
X0192633Y0083011D01*
X0193200Y0082444D01*
X0193200Y0081309D01*
X0192633Y0080742D01*
X0191499Y0081877D02*
X0191499Y0082444D01*
X0190364Y0083011D02*
X0189797Y0082444D01*
X0189797Y0081309D01*
X0190364Y0080742D01*
X0183200Y0083151D02*
X0182633Y0082584D01*
X0183200Y0083151D02*
X0183200Y0084285D01*
X0182633Y0084852D01*
X0182066Y0084852D01*
X0181499Y0084285D01*
X0181499Y0083151D01*
X0180931Y0082584D01*
X0180364Y0082584D01*
X0179797Y0083151D01*
X0179797Y0084285D01*
X0180364Y0084852D01*
X0179797Y0086267D02*
X0179797Y0087968D01*
X0180364Y0088536D01*
X0182633Y0088536D01*
X0183200Y0087968D01*
X0183200Y0086267D01*
X0179797Y0086267D01*
X0180931Y0089950D02*
X0179797Y0091084D01*
X0180931Y0092219D01*
X0183200Y0092219D01*
X0181499Y0092219D02*
X0181499Y0089950D01*
X0180931Y0089950D02*
X0183200Y0089950D01*
X0189797Y0089950D02*
X0192066Y0089950D01*
X0193200Y0091084D01*
X0192066Y0092219D01*
X0189797Y0092219D01*
X0173200Y0092219D02*
X0173200Y0089950D01*
X0169797Y0089950D01*
X0170364Y0088536D02*
X0169797Y0087968D01*
X0169797Y0086834D01*
X0170364Y0086267D01*
X0172633Y0086267D01*
X0173200Y0086834D01*
X0173200Y0087968D01*
X0172633Y0088536D01*
X0172633Y0084852D02*
X0173200Y0084285D01*
X0173200Y0083151D01*
X0172633Y0082584D01*
X0171499Y0083151D02*
X0171499Y0084285D01*
X0172066Y0084852D01*
X0172633Y0084852D01*
X0171499Y0083151D02*
X0170931Y0082584D01*
X0170364Y0082584D01*
X0169797Y0083151D01*
X0169797Y0084285D01*
X0170364Y0084852D01*
X0261797Y0084285D02*
X0261797Y0083151D01*
X0262364Y0082584D01*
X0262931Y0082584D01*
X0263499Y0083151D01*
X0263499Y0084285D01*
X0264066Y0084852D01*
X0264633Y0084852D01*
X0265200Y0084285D01*
X0265200Y0083151D01*
X0264633Y0082584D01*
X0262364Y0084852D02*
X0261797Y0084285D01*
X0262364Y0086267D02*
X0261797Y0086834D01*
X0261797Y0087968D01*
X0262364Y0088536D01*
X0261797Y0089950D02*
X0265200Y0089950D01*
X0265200Y0092219D01*
X0264633Y0088536D02*
X0265200Y0087968D01*
X0265200Y0086834D01*
X0264633Y0086267D01*
X0262364Y0086267D01*
X0271797Y0086267D02*
X0271797Y0087968D01*
X0272364Y0088536D01*
X0274633Y0088536D01*
X0275200Y0087968D01*
X0275200Y0086267D01*
X0271797Y0086267D01*
X0272364Y0084852D02*
X0271797Y0084285D01*
X0271797Y0083151D01*
X0272364Y0082584D01*
X0272931Y0082584D01*
X0273499Y0083151D01*
X0273499Y0084285D01*
X0274066Y0084852D01*
X0274633Y0084852D01*
X0275200Y0084285D01*
X0275200Y0083151D01*
X0274633Y0082584D01*
X0281797Y0082444D02*
X0282364Y0083011D01*
X0282931Y0083011D01*
X0283499Y0082444D01*
X0284066Y0083011D01*
X0284633Y0083011D01*
X0285200Y0082444D01*
X0285200Y0081309D01*
X0284633Y0080742D01*
X0283499Y0081877D02*
X0283499Y0082444D01*
X0281797Y0082444D02*
X0281797Y0081309D01*
X0282364Y0080742D01*
X0284633Y0084425D02*
X0284633Y0084993D01*
X0285200Y0084993D01*
X0285200Y0084425D01*
X0284633Y0084425D01*
X0284633Y0086267D02*
X0285200Y0086834D01*
X0285200Y0087968D01*
X0284633Y0088536D01*
X0284066Y0088536D01*
X0283499Y0087968D01*
X0283499Y0087401D01*
X0283499Y0087968D02*
X0282931Y0088536D01*
X0282364Y0088536D01*
X0281797Y0087968D01*
X0281797Y0086834D01*
X0282364Y0086267D01*
X0281797Y0089950D02*
X0284066Y0089950D01*
X0285200Y0091084D01*
X0284066Y0092219D01*
X0281797Y0092219D01*
X0275200Y0092219D02*
X0272931Y0092219D01*
X0271797Y0091084D01*
X0272931Y0089950D01*
X0275200Y0089950D01*
X0273499Y0089950D02*
X0273499Y0092219D01*
X0291797Y0091652D02*
X0291797Y0089950D01*
X0295200Y0089950D01*
X0295200Y0091652D01*
X0294633Y0092219D01*
X0292364Y0092219D01*
X0291797Y0091652D01*
X0291797Y0088536D02*
X0295200Y0088536D01*
X0291797Y0086267D01*
X0295200Y0086267D01*
X0294633Y0084852D02*
X0293499Y0084852D01*
X0293499Y0083718D01*
X0294633Y0082584D02*
X0295200Y0083151D01*
X0295200Y0084285D01*
X0294633Y0084852D01*
X0294633Y0082584D02*
X0292364Y0082584D01*
X0291797Y0083151D01*
X0291797Y0084285D01*
X0292364Y0084852D01*
X0284633Y0112742D02*
X0285200Y0113309D01*
X0285200Y0114444D01*
X0284633Y0115011D01*
X0284066Y0115011D01*
X0283499Y0114444D01*
X0283499Y0113877D01*
X0283499Y0114444D02*
X0282931Y0115011D01*
X0282364Y0115011D01*
X0281797Y0114444D01*
X0281797Y0113309D01*
X0282364Y0112742D01*
X0284633Y0116425D02*
X0284633Y0116993D01*
X0285200Y0116993D01*
X0285200Y0116425D01*
X0284633Y0116425D01*
X0284633Y0118267D02*
X0285200Y0118834D01*
X0285200Y0119968D01*
X0284633Y0120536D01*
X0284066Y0120536D01*
X0283499Y0119968D01*
X0283499Y0119401D01*
X0283499Y0119968D02*
X0282931Y0120536D01*
X0282364Y0120536D01*
X0281797Y0119968D01*
X0281797Y0118834D01*
X0282364Y0118267D01*
X0281797Y0121950D02*
X0284066Y0121950D01*
X0285200Y0123084D01*
X0284066Y0124219D01*
X0281797Y0124219D01*
X0275200Y0124219D02*
X0272931Y0124219D01*
X0271797Y0123084D01*
X0272931Y0121950D01*
X0275200Y0121950D01*
X0274633Y0120536D02*
X0272364Y0120536D01*
X0271797Y0119968D01*
X0271797Y0118267D01*
X0275200Y0118267D01*
X0275200Y0119968D01*
X0274633Y0120536D01*
X0273499Y0121950D02*
X0273499Y0124219D01*
X0274066Y0116852D02*
X0274633Y0116852D01*
X0275200Y0116285D01*
X0275200Y0115151D01*
X0274633Y0114584D01*
X0273499Y0115151D02*
X0272931Y0114584D01*
X0272364Y0114584D01*
X0271797Y0115151D01*
X0271797Y0116285D01*
X0272364Y0116852D01*
X0273499Y0116285D02*
X0274066Y0116852D01*
X0273499Y0116285D02*
X0273499Y0115151D01*
X0265200Y0115151D02*
X0264633Y0114584D01*
X0265200Y0115151D02*
X0265200Y0116285D01*
X0264633Y0116852D01*
X0264066Y0116852D01*
X0263499Y0116285D01*
X0263499Y0115151D01*
X0262931Y0114584D01*
X0262364Y0114584D01*
X0261797Y0115151D01*
X0261797Y0116285D01*
X0262364Y0116852D01*
X0262364Y0118267D02*
X0264633Y0118267D01*
X0265200Y0118834D01*
X0265200Y0119968D01*
X0264633Y0120536D01*
X0265200Y0121950D02*
X0261797Y0121950D01*
X0262364Y0120536D02*
X0261797Y0119968D01*
X0261797Y0118834D01*
X0262364Y0118267D01*
X0265200Y0121950D02*
X0265200Y0124219D01*
X0264633Y0146584D02*
X0265200Y0147151D01*
X0265200Y0148285D01*
X0264633Y0148852D01*
X0264066Y0148852D01*
X0263499Y0148285D01*
X0263499Y0147151D01*
X0262931Y0146584D01*
X0262364Y0146584D01*
X0261797Y0147151D01*
X0261797Y0148285D01*
X0262364Y0148852D01*
X0262364Y0150267D02*
X0264633Y0150267D01*
X0265200Y0150834D01*
X0265200Y0151968D01*
X0264633Y0152536D01*
X0265200Y0153950D02*
X0265200Y0156219D01*
X0265200Y0153950D02*
X0261797Y0153950D01*
X0262364Y0152536D02*
X0261797Y0151968D01*
X0261797Y0150834D01*
X0262364Y0150267D01*
X0271797Y0150267D02*
X0271797Y0151968D01*
X0272364Y0152536D01*
X0274633Y0152536D01*
X0275200Y0151968D01*
X0275200Y0150267D01*
X0271797Y0150267D01*
X0272364Y0148852D02*
X0271797Y0148285D01*
X0271797Y0147151D01*
X0272364Y0146584D01*
X0272931Y0146584D01*
X0273499Y0147151D01*
X0273499Y0148285D01*
X0274066Y0148852D01*
X0274633Y0148852D01*
X0275200Y0148285D01*
X0275200Y0147151D01*
X0274633Y0146584D01*
X0281797Y0146444D02*
X0282364Y0147011D01*
X0282931Y0147011D01*
X0283499Y0146444D01*
X0284066Y0147011D01*
X0284633Y0147011D01*
X0285200Y0146444D01*
X0285200Y0145309D01*
X0284633Y0144742D01*
X0283499Y0145877D02*
X0283499Y0146444D01*
X0281797Y0146444D02*
X0281797Y0145309D01*
X0282364Y0144742D01*
X0284633Y0148425D02*
X0284633Y0148993D01*
X0285200Y0148993D01*
X0285200Y0148425D01*
X0284633Y0148425D01*
X0284633Y0150267D02*
X0285200Y0150834D01*
X0285200Y0151968D01*
X0284633Y0152536D01*
X0284066Y0152536D01*
X0283499Y0151968D01*
X0283499Y0151401D01*
X0283499Y0151968D02*
X0282931Y0152536D01*
X0282364Y0152536D01*
X0281797Y0151968D01*
X0281797Y0150834D01*
X0282364Y0150267D01*
X0281797Y0153950D02*
X0284066Y0153950D01*
X0285200Y0155084D01*
X0284066Y0156219D01*
X0281797Y0156219D01*
X0275200Y0156219D02*
X0272931Y0156219D01*
X0271797Y0155084D01*
X0272931Y0153950D01*
X0275200Y0153950D01*
X0273499Y0153950D02*
X0273499Y0156219D01*
X0291797Y0155652D02*
X0291797Y0153950D01*
X0295200Y0153950D01*
X0295200Y0155652D01*
X0294633Y0156219D01*
X0292364Y0156219D01*
X0291797Y0155652D01*
X0291797Y0152536D02*
X0295200Y0152536D01*
X0291797Y0150267D01*
X0295200Y0150267D01*
X0294633Y0148852D02*
X0293499Y0148852D01*
X0293499Y0147718D01*
X0294633Y0146584D02*
X0295200Y0147151D01*
X0295200Y0148285D01*
X0294633Y0148852D01*
X0294633Y0146584D02*
X0292364Y0146584D01*
X0291797Y0147151D01*
X0291797Y0148285D01*
X0292364Y0148852D01*
X0292364Y0124219D02*
X0291797Y0123652D01*
X0291797Y0121950D01*
X0295200Y0121950D01*
X0295200Y0123652D01*
X0294633Y0124219D01*
X0292364Y0124219D01*
X0291797Y0120536D02*
X0295200Y0120536D01*
X0291797Y0118267D01*
X0295200Y0118267D01*
X0294633Y0116852D02*
X0293499Y0116852D01*
X0293499Y0115718D01*
X0294633Y0114584D02*
X0295200Y0115151D01*
X0295200Y0116285D01*
X0294633Y0116852D01*
X0294633Y0114584D02*
X0292364Y0114584D01*
X0291797Y0115151D01*
X0291797Y0116285D01*
X0292364Y0116852D01*
X0353797Y0116285D02*
X0353797Y0115151D01*
X0354364Y0114584D01*
X0354931Y0114584D01*
X0355499Y0115151D01*
X0355499Y0116285D01*
X0356066Y0116852D01*
X0356633Y0116852D01*
X0357200Y0116285D01*
X0357200Y0115151D01*
X0356633Y0114584D01*
X0354364Y0116852D02*
X0353797Y0116285D01*
X0354364Y0118267D02*
X0356633Y0118267D01*
X0357200Y0118834D01*
X0357200Y0119968D01*
X0356633Y0120536D01*
X0357200Y0121950D02*
X0357200Y0124219D01*
X0357200Y0121950D02*
X0353797Y0121950D01*
X0354364Y0120536D02*
X0353797Y0119968D01*
X0353797Y0118834D01*
X0354364Y0118267D01*
X0363797Y0118267D02*
X0363797Y0119968D01*
X0364364Y0120536D01*
X0366633Y0120536D01*
X0367200Y0119968D01*
X0367200Y0118267D01*
X0363797Y0118267D01*
X0364364Y0116852D02*
X0363797Y0116285D01*
X0363797Y0115151D01*
X0364364Y0114584D01*
X0364931Y0114584D01*
X0365499Y0115151D01*
X0365499Y0116285D01*
X0366066Y0116852D01*
X0366633Y0116852D01*
X0367200Y0116285D01*
X0367200Y0115151D01*
X0366633Y0114584D01*
X0373797Y0114444D02*
X0374364Y0115011D01*
X0374931Y0115011D01*
X0375499Y0114444D01*
X0376066Y0115011D01*
X0376633Y0115011D01*
X0377200Y0114444D01*
X0377200Y0113309D01*
X0376633Y0112742D01*
X0375499Y0113877D02*
X0375499Y0114444D01*
X0373797Y0114444D02*
X0373797Y0113309D01*
X0374364Y0112742D01*
X0376633Y0116425D02*
X0376633Y0116993D01*
X0377200Y0116993D01*
X0377200Y0116425D01*
X0376633Y0116425D01*
X0376633Y0118267D02*
X0377200Y0118834D01*
X0377200Y0119968D01*
X0376633Y0120536D01*
X0376066Y0120536D01*
X0375499Y0119968D01*
X0375499Y0119401D01*
X0375499Y0119968D02*
X0374931Y0120536D01*
X0374364Y0120536D01*
X0373797Y0119968D01*
X0373797Y0118834D01*
X0374364Y0118267D01*
X0373797Y0121950D02*
X0376066Y0121950D01*
X0377200Y0123084D01*
X0376066Y0124219D01*
X0373797Y0124219D01*
X0367200Y0124219D02*
X0364931Y0124219D01*
X0363797Y0123084D01*
X0364931Y0121950D01*
X0367200Y0121950D01*
X0365499Y0121950D02*
X0365499Y0124219D01*
X0383797Y0123652D02*
X0383797Y0121950D01*
X0387200Y0121950D01*
X0387200Y0123652D01*
X0386633Y0124219D01*
X0384364Y0124219D01*
X0383797Y0123652D01*
X0383797Y0120536D02*
X0387200Y0120536D01*
X0383797Y0118267D01*
X0387200Y0118267D01*
X0386633Y0116852D02*
X0385499Y0116852D01*
X0385499Y0115718D01*
X0386633Y0114584D02*
X0384364Y0114584D01*
X0383797Y0115151D01*
X0383797Y0116285D01*
X0384364Y0116852D01*
X0386633Y0116852D02*
X0387200Y0116285D01*
X0387200Y0115151D01*
X0386633Y0114584D01*
X0386633Y0092219D02*
X0384364Y0092219D01*
X0383797Y0091652D01*
X0383797Y0089950D01*
X0387200Y0089950D01*
X0387200Y0091652D01*
X0386633Y0092219D01*
X0387200Y0088536D02*
X0383797Y0088536D01*
X0383797Y0086267D02*
X0387200Y0088536D01*
X0387200Y0086267D02*
X0383797Y0086267D01*
X0384364Y0084852D02*
X0383797Y0084285D01*
X0383797Y0083151D01*
X0384364Y0082584D01*
X0386633Y0082584D01*
X0387200Y0083151D01*
X0387200Y0084285D01*
X0386633Y0084852D01*
X0385499Y0084852D01*
X0385499Y0083718D01*
X0377200Y0084425D02*
X0377200Y0084993D01*
X0376633Y0084993D01*
X0376633Y0084425D01*
X0377200Y0084425D01*
X0376633Y0083011D02*
X0377200Y0082444D01*
X0377200Y0081309D01*
X0376633Y0080742D01*
X0375499Y0081877D02*
X0375499Y0082444D01*
X0376066Y0083011D01*
X0376633Y0083011D01*
X0375499Y0082444D02*
X0374931Y0083011D01*
X0374364Y0083011D01*
X0373797Y0082444D01*
X0373797Y0081309D01*
X0374364Y0080742D01*
X0374364Y0086267D02*
X0373797Y0086834D01*
X0373797Y0087968D01*
X0374364Y0088536D01*
X0374931Y0088536D01*
X0375499Y0087968D01*
X0376066Y0088536D01*
X0376633Y0088536D01*
X0377200Y0087968D01*
X0377200Y0086834D01*
X0376633Y0086267D01*
X0375499Y0087401D02*
X0375499Y0087968D01*
X0376066Y0089950D02*
X0377200Y0091084D01*
X0376066Y0092219D01*
X0373797Y0092219D01*
X0373797Y0089950D02*
X0376066Y0089950D01*
X0367200Y0089950D02*
X0364931Y0089950D01*
X0363797Y0091084D01*
X0364931Y0092219D01*
X0367200Y0092219D01*
X0365499Y0092219D02*
X0365499Y0089950D01*
X0366633Y0088536D02*
X0364364Y0088536D01*
X0363797Y0087968D01*
X0363797Y0086267D01*
X0367200Y0086267D01*
X0367200Y0087968D01*
X0366633Y0088536D01*
X0366633Y0084852D02*
X0367200Y0084285D01*
X0367200Y0083151D01*
X0366633Y0082584D01*
X0365499Y0083151D02*
X0365499Y0084285D01*
X0366066Y0084852D01*
X0366633Y0084852D01*
X0365499Y0083151D02*
X0364931Y0082584D01*
X0364364Y0082584D01*
X0363797Y0083151D01*
X0363797Y0084285D01*
X0364364Y0084852D01*
X0357200Y0084285D02*
X0357200Y0083151D01*
X0356633Y0082584D01*
X0355499Y0083151D02*
X0355499Y0084285D01*
X0356066Y0084852D01*
X0356633Y0084852D01*
X0357200Y0084285D01*
X0355499Y0083151D02*
X0354931Y0082584D01*
X0354364Y0082584D01*
X0353797Y0083151D01*
X0353797Y0084285D01*
X0354364Y0084852D01*
X0354364Y0086267D02*
X0356633Y0086267D01*
X0357200Y0086834D01*
X0357200Y0087968D01*
X0356633Y0088536D01*
X0357200Y0089950D02*
X0357200Y0092219D01*
X0357200Y0089950D02*
X0353797Y0089950D01*
X0354364Y0088536D02*
X0353797Y0087968D01*
X0353797Y0086834D01*
X0354364Y0086267D01*
X0354364Y0146584D02*
X0354931Y0146584D01*
X0355499Y0147151D01*
X0355499Y0148285D01*
X0356066Y0148852D01*
X0356633Y0148852D01*
X0357200Y0148285D01*
X0357200Y0147151D01*
X0356633Y0146584D01*
X0354364Y0146584D02*
X0353797Y0147151D01*
X0353797Y0148285D01*
X0354364Y0148852D01*
X0354364Y0150267D02*
X0356633Y0150267D01*
X0357200Y0150834D01*
X0357200Y0151968D01*
X0356633Y0152536D01*
X0357200Y0153950D02*
X0357200Y0156219D01*
X0357200Y0153950D02*
X0353797Y0153950D01*
X0354364Y0152536D02*
X0353797Y0151968D01*
X0353797Y0150834D01*
X0354364Y0150267D01*
X0363797Y0150267D02*
X0363797Y0151968D01*
X0364364Y0152536D01*
X0366633Y0152536D01*
X0367200Y0151968D01*
X0367200Y0150267D01*
X0363797Y0150267D01*
X0364364Y0148852D02*
X0363797Y0148285D01*
X0363797Y0147151D01*
X0364364Y0146584D01*
X0364931Y0146584D01*
X0365499Y0147151D01*
X0365499Y0148285D01*
X0366066Y0148852D01*
X0366633Y0148852D01*
X0367200Y0148285D01*
X0367200Y0147151D01*
X0366633Y0146584D01*
X0373797Y0146444D02*
X0374364Y0147011D01*
X0374931Y0147011D01*
X0375499Y0146444D01*
X0376066Y0147011D01*
X0376633Y0147011D01*
X0377200Y0146444D01*
X0377200Y0145309D01*
X0376633Y0144742D01*
X0375499Y0145877D02*
X0375499Y0146444D01*
X0373797Y0146444D02*
X0373797Y0145309D01*
X0374364Y0144742D01*
X0376633Y0148425D02*
X0376633Y0148993D01*
X0377200Y0148993D01*
X0377200Y0148425D01*
X0376633Y0148425D01*
X0376633Y0150267D02*
X0377200Y0150834D01*
X0377200Y0151968D01*
X0376633Y0152536D01*
X0376066Y0152536D01*
X0375499Y0151968D01*
X0375499Y0151401D01*
X0375499Y0151968D02*
X0374931Y0152536D01*
X0374364Y0152536D01*
X0373797Y0151968D01*
X0373797Y0150834D01*
X0374364Y0150267D01*
X0373797Y0153950D02*
X0376066Y0153950D01*
X0377200Y0155084D01*
X0376066Y0156219D01*
X0373797Y0156219D01*
X0367200Y0156219D02*
X0364931Y0156219D01*
X0363797Y0155084D01*
X0364931Y0153950D01*
X0367200Y0153950D01*
X0365499Y0153950D02*
X0365499Y0156219D01*
X0383797Y0155652D02*
X0383797Y0153950D01*
X0387200Y0153950D01*
X0387200Y0155652D01*
X0386633Y0156219D01*
X0384364Y0156219D01*
X0383797Y0155652D01*
X0383797Y0152536D02*
X0387200Y0152536D01*
X0383797Y0150267D01*
X0387200Y0150267D01*
X0386633Y0148852D02*
X0385499Y0148852D01*
X0385499Y0147718D01*
X0386633Y0146584D02*
X0384364Y0146584D01*
X0383797Y0147151D01*
X0383797Y0148285D01*
X0384364Y0148852D01*
X0386633Y0148852D02*
X0387200Y0148285D01*
X0387200Y0147151D01*
X0386633Y0146584D01*
X0376633Y0176742D02*
X0377200Y0177309D01*
X0377200Y0178444D01*
X0376633Y0179011D01*
X0376066Y0179011D01*
X0375499Y0178444D01*
X0375499Y0177877D01*
X0375499Y0178444D02*
X0374931Y0179011D01*
X0374364Y0179011D01*
X0373797Y0178444D01*
X0373797Y0177309D01*
X0374364Y0176742D01*
X0376633Y0180425D02*
X0376633Y0180993D01*
X0377200Y0180993D01*
X0377200Y0180425D01*
X0376633Y0180425D01*
X0376633Y0182267D02*
X0377200Y0182834D01*
X0377200Y0183968D01*
X0376633Y0184536D01*
X0376066Y0184536D01*
X0375499Y0183968D01*
X0375499Y0183401D01*
X0375499Y0183968D02*
X0374931Y0184536D01*
X0374364Y0184536D01*
X0373797Y0183968D01*
X0373797Y0182834D01*
X0374364Y0182267D01*
X0373797Y0185950D02*
X0376066Y0185950D01*
X0377200Y0187084D01*
X0376066Y0188219D01*
X0373797Y0188219D01*
X0367200Y0188219D02*
X0364931Y0188219D01*
X0363797Y0187084D01*
X0364931Y0185950D01*
X0367200Y0185950D01*
X0366633Y0184536D02*
X0364364Y0184536D01*
X0363797Y0183968D01*
X0363797Y0182267D01*
X0367200Y0182267D01*
X0367200Y0183968D01*
X0366633Y0184536D01*
X0365499Y0185950D02*
X0365499Y0188219D01*
X0366066Y0180852D02*
X0366633Y0180852D01*
X0367200Y0180285D01*
X0367200Y0179151D01*
X0366633Y0178584D01*
X0365499Y0179151D02*
X0365499Y0180285D01*
X0366066Y0180852D01*
X0364364Y0180852D02*
X0363797Y0180285D01*
X0363797Y0179151D01*
X0364364Y0178584D01*
X0364931Y0178584D01*
X0365499Y0179151D01*
X0357200Y0179151D02*
X0356633Y0178584D01*
X0357200Y0179151D02*
X0357200Y0180285D01*
X0356633Y0180852D01*
X0356066Y0180852D01*
X0355499Y0180285D01*
X0355499Y0179151D01*
X0354931Y0178584D01*
X0354364Y0178584D01*
X0353797Y0179151D01*
X0353797Y0180285D01*
X0354364Y0180852D01*
X0354364Y0182267D02*
X0356633Y0182267D01*
X0357200Y0182834D01*
X0357200Y0183968D01*
X0356633Y0184536D01*
X0357200Y0185950D02*
X0357200Y0188219D01*
X0357200Y0185950D02*
X0353797Y0185950D01*
X0354364Y0184536D02*
X0353797Y0183968D01*
X0353797Y0182834D01*
X0354364Y0182267D01*
X0383797Y0182267D02*
X0387200Y0184536D01*
X0383797Y0184536D01*
X0383797Y0185950D02*
X0383797Y0187652D01*
X0384364Y0188219D01*
X0386633Y0188219D01*
X0387200Y0187652D01*
X0387200Y0185950D01*
X0383797Y0185950D01*
X0383797Y0182267D02*
X0387200Y0182267D01*
X0386633Y0180852D02*
X0385499Y0180852D01*
X0385499Y0179718D01*
X0386633Y0178584D02*
X0384364Y0178584D01*
X0383797Y0179151D01*
X0383797Y0180285D01*
X0384364Y0180852D01*
X0386633Y0180852D02*
X0387200Y0180285D01*
X0387200Y0179151D01*
X0386633Y0178584D01*
X0376633Y0208742D02*
X0377200Y0209309D01*
X0377200Y0210444D01*
X0376633Y0211011D01*
X0376066Y0211011D01*
X0375499Y0210444D01*
X0375499Y0209877D01*
X0375499Y0210444D02*
X0374931Y0211011D01*
X0374364Y0211011D01*
X0373797Y0210444D01*
X0373797Y0209309D01*
X0374364Y0208742D01*
X0376633Y0212425D02*
X0376633Y0212993D01*
X0377200Y0212993D01*
X0377200Y0212425D01*
X0376633Y0212425D01*
X0376633Y0214267D02*
X0377200Y0214834D01*
X0377200Y0215968D01*
X0376633Y0216536D01*
X0376066Y0216536D01*
X0375499Y0215968D01*
X0375499Y0215401D01*
X0375499Y0215968D02*
X0374931Y0216536D01*
X0374364Y0216536D01*
X0373797Y0215968D01*
X0373797Y0214834D01*
X0374364Y0214267D01*
X0373797Y0217950D02*
X0376066Y0217950D01*
X0377200Y0219084D01*
X0376066Y0220219D01*
X0373797Y0220219D01*
X0367200Y0220219D02*
X0364931Y0220219D01*
X0363797Y0219084D01*
X0364931Y0217950D01*
X0367200Y0217950D01*
X0366633Y0216536D02*
X0364364Y0216536D01*
X0363797Y0215968D01*
X0363797Y0214267D01*
X0367200Y0214267D01*
X0367200Y0215968D01*
X0366633Y0216536D01*
X0365499Y0217950D02*
X0365499Y0220219D01*
X0366066Y0212852D02*
X0366633Y0212852D01*
X0367200Y0212285D01*
X0367200Y0211151D01*
X0366633Y0210584D01*
X0365499Y0211151D02*
X0365499Y0212285D01*
X0366066Y0212852D01*
X0364364Y0212852D02*
X0363797Y0212285D01*
X0363797Y0211151D01*
X0364364Y0210584D01*
X0364931Y0210584D01*
X0365499Y0211151D01*
X0357200Y0211151D02*
X0356633Y0210584D01*
X0357200Y0211151D02*
X0357200Y0212285D01*
X0356633Y0212852D01*
X0356066Y0212852D01*
X0355499Y0212285D01*
X0355499Y0211151D01*
X0354931Y0210584D01*
X0354364Y0210584D01*
X0353797Y0211151D01*
X0353797Y0212285D01*
X0354364Y0212852D01*
X0354364Y0214267D02*
X0356633Y0214267D01*
X0357200Y0214834D01*
X0357200Y0215968D01*
X0356633Y0216536D01*
X0357200Y0217950D02*
X0357200Y0220219D01*
X0357200Y0217950D02*
X0353797Y0217950D01*
X0354364Y0216536D02*
X0353797Y0215968D01*
X0353797Y0214834D01*
X0354364Y0214267D01*
X0383797Y0214267D02*
X0387200Y0216536D01*
X0383797Y0216536D01*
X0383797Y0217950D02*
X0383797Y0219652D01*
X0384364Y0220219D01*
X0386633Y0220219D01*
X0387200Y0219652D01*
X0387200Y0217950D01*
X0383797Y0217950D01*
X0383797Y0214267D02*
X0387200Y0214267D01*
X0386633Y0212852D02*
X0385499Y0212852D01*
X0385499Y0211718D01*
X0386633Y0210584D02*
X0384364Y0210584D01*
X0383797Y0211151D01*
X0383797Y0212285D01*
X0384364Y0212852D01*
X0386633Y0212852D02*
X0387200Y0212285D01*
X0387200Y0211151D01*
X0386633Y0210584D01*
X0376633Y0240742D02*
X0377200Y0241309D01*
X0377200Y0242444D01*
X0376633Y0243011D01*
X0376066Y0243011D01*
X0375499Y0242444D01*
X0375499Y0241877D01*
X0375499Y0242444D02*
X0374931Y0243011D01*
X0374364Y0243011D01*
X0373797Y0242444D01*
X0373797Y0241309D01*
X0374364Y0240742D01*
X0376633Y0244425D02*
X0376633Y0244993D01*
X0377200Y0244993D01*
X0377200Y0244425D01*
X0376633Y0244425D01*
X0376633Y0246267D02*
X0377200Y0246834D01*
X0377200Y0247968D01*
X0376633Y0248536D01*
X0376066Y0248536D01*
X0375499Y0247968D01*
X0375499Y0247401D01*
X0375499Y0247968D02*
X0374931Y0248536D01*
X0374364Y0248536D01*
X0373797Y0247968D01*
X0373797Y0246834D01*
X0374364Y0246267D01*
X0373797Y0249950D02*
X0376066Y0249950D01*
X0377200Y0251084D01*
X0376066Y0252219D01*
X0373797Y0252219D01*
X0367200Y0252219D02*
X0364931Y0252219D01*
X0363797Y0251084D01*
X0364931Y0249950D01*
X0367200Y0249950D01*
X0366633Y0248536D02*
X0364364Y0248536D01*
X0363797Y0247968D01*
X0363797Y0246267D01*
X0367200Y0246267D01*
X0367200Y0247968D01*
X0366633Y0248536D01*
X0365499Y0249950D02*
X0365499Y0252219D01*
X0366066Y0244852D02*
X0366633Y0244852D01*
X0367200Y0244285D01*
X0367200Y0243151D01*
X0366633Y0242584D01*
X0365499Y0243151D02*
X0365499Y0244285D01*
X0366066Y0244852D01*
X0364364Y0244852D02*
X0363797Y0244285D01*
X0363797Y0243151D01*
X0364364Y0242584D01*
X0364931Y0242584D01*
X0365499Y0243151D01*
X0357200Y0243151D02*
X0356633Y0242584D01*
X0357200Y0243151D02*
X0357200Y0244285D01*
X0356633Y0244852D01*
X0356066Y0244852D01*
X0355499Y0244285D01*
X0355499Y0243151D01*
X0354931Y0242584D01*
X0354364Y0242584D01*
X0353797Y0243151D01*
X0353797Y0244285D01*
X0354364Y0244852D01*
X0354364Y0246267D02*
X0356633Y0246267D01*
X0357200Y0246834D01*
X0357200Y0247968D01*
X0356633Y0248536D01*
X0357200Y0249950D02*
X0357200Y0252219D01*
X0357200Y0249950D02*
X0353797Y0249950D01*
X0354364Y0248536D02*
X0353797Y0247968D01*
X0353797Y0246834D01*
X0354364Y0246267D01*
X0383797Y0246267D02*
X0387200Y0248536D01*
X0383797Y0248536D01*
X0383797Y0249950D02*
X0383797Y0251652D01*
X0384364Y0252219D01*
X0386633Y0252219D01*
X0387200Y0251652D01*
X0387200Y0249950D01*
X0383797Y0249950D01*
X0383797Y0246267D02*
X0387200Y0246267D01*
X0386633Y0244852D02*
X0385499Y0244852D01*
X0385499Y0243718D01*
X0386633Y0242584D02*
X0384364Y0242584D01*
X0383797Y0243151D01*
X0383797Y0244285D01*
X0384364Y0244852D01*
X0386633Y0244852D02*
X0387200Y0244285D01*
X0387200Y0243151D01*
X0386633Y0242584D01*
X0376633Y0272742D02*
X0377200Y0273309D01*
X0377200Y0274444D01*
X0376633Y0275011D01*
X0376066Y0275011D01*
X0375499Y0274444D01*
X0375499Y0273877D01*
X0375499Y0274444D02*
X0374931Y0275011D01*
X0374364Y0275011D01*
X0373797Y0274444D01*
X0373797Y0273309D01*
X0374364Y0272742D01*
X0376633Y0276425D02*
X0376633Y0276993D01*
X0377200Y0276993D01*
X0377200Y0276425D01*
X0376633Y0276425D01*
X0376633Y0278267D02*
X0377200Y0278834D01*
X0377200Y0279968D01*
X0376633Y0280536D01*
X0376066Y0280536D01*
X0375499Y0279968D01*
X0375499Y0279401D01*
X0375499Y0279968D02*
X0374931Y0280536D01*
X0374364Y0280536D01*
X0373797Y0279968D01*
X0373797Y0278834D01*
X0374364Y0278267D01*
X0373797Y0281950D02*
X0376066Y0281950D01*
X0377200Y0283084D01*
X0376066Y0284219D01*
X0373797Y0284219D01*
X0367200Y0284219D02*
X0364931Y0284219D01*
X0363797Y0283084D01*
X0364931Y0281950D01*
X0367200Y0281950D01*
X0366633Y0280536D02*
X0364364Y0280536D01*
X0363797Y0279968D01*
X0363797Y0278267D01*
X0367200Y0278267D01*
X0367200Y0279968D01*
X0366633Y0280536D01*
X0365499Y0281950D02*
X0365499Y0284219D01*
X0366066Y0276852D02*
X0366633Y0276852D01*
X0367200Y0276285D01*
X0367200Y0275151D01*
X0366633Y0274584D01*
X0365499Y0275151D02*
X0365499Y0276285D01*
X0366066Y0276852D01*
X0364364Y0276852D02*
X0363797Y0276285D01*
X0363797Y0275151D01*
X0364364Y0274584D01*
X0364931Y0274584D01*
X0365499Y0275151D01*
X0357200Y0275151D02*
X0356633Y0274584D01*
X0357200Y0275151D02*
X0357200Y0276285D01*
X0356633Y0276852D01*
X0356066Y0276852D01*
X0355499Y0276285D01*
X0355499Y0275151D01*
X0354931Y0274584D01*
X0354364Y0274584D01*
X0353797Y0275151D01*
X0353797Y0276285D01*
X0354364Y0276852D01*
X0354364Y0278267D02*
X0356633Y0278267D01*
X0357200Y0278834D01*
X0357200Y0279968D01*
X0356633Y0280536D01*
X0357200Y0281950D02*
X0357200Y0284219D01*
X0357200Y0281950D02*
X0353797Y0281950D01*
X0354364Y0280536D02*
X0353797Y0279968D01*
X0353797Y0278834D01*
X0354364Y0278267D01*
X0383797Y0278267D02*
X0387200Y0280536D01*
X0383797Y0280536D01*
X0383797Y0281950D02*
X0383797Y0283652D01*
X0384364Y0284219D01*
X0386633Y0284219D01*
X0387200Y0283652D01*
X0387200Y0281950D01*
X0383797Y0281950D01*
X0383797Y0278267D02*
X0387200Y0278267D01*
X0386633Y0276852D02*
X0385499Y0276852D01*
X0385499Y0275718D01*
X0386633Y0274584D02*
X0384364Y0274584D01*
X0383797Y0275151D01*
X0383797Y0276285D01*
X0384364Y0276852D01*
X0386633Y0276852D02*
X0387200Y0276285D01*
X0387200Y0275151D01*
X0386633Y0274584D01*
X0376633Y0304742D02*
X0377200Y0305309D01*
X0377200Y0306444D01*
X0376633Y0307011D01*
X0376066Y0307011D01*
X0375499Y0306444D01*
X0375499Y0305877D01*
X0375499Y0306444D02*
X0374931Y0307011D01*
X0374364Y0307011D01*
X0373797Y0306444D01*
X0373797Y0305309D01*
X0374364Y0304742D01*
X0376633Y0308425D02*
X0376633Y0308993D01*
X0377200Y0308993D01*
X0377200Y0308425D01*
X0376633Y0308425D01*
X0376633Y0310267D02*
X0377200Y0310834D01*
X0377200Y0311968D01*
X0376633Y0312536D01*
X0376066Y0312536D01*
X0375499Y0311968D01*
X0375499Y0311401D01*
X0375499Y0311968D02*
X0374931Y0312536D01*
X0374364Y0312536D01*
X0373797Y0311968D01*
X0373797Y0310834D01*
X0374364Y0310267D01*
X0373797Y0313950D02*
X0376066Y0313950D01*
X0377200Y0315084D01*
X0376066Y0316219D01*
X0373797Y0316219D01*
X0367200Y0316219D02*
X0364931Y0316219D01*
X0363797Y0315084D01*
X0364931Y0313950D01*
X0367200Y0313950D01*
X0366633Y0312536D02*
X0364364Y0312536D01*
X0363797Y0311968D01*
X0363797Y0310267D01*
X0367200Y0310267D01*
X0367200Y0311968D01*
X0366633Y0312536D01*
X0365499Y0313950D02*
X0365499Y0316219D01*
X0366066Y0308852D02*
X0366633Y0308852D01*
X0367200Y0308285D01*
X0367200Y0307151D01*
X0366633Y0306584D01*
X0365499Y0307151D02*
X0365499Y0308285D01*
X0366066Y0308852D01*
X0364364Y0308852D02*
X0363797Y0308285D01*
X0363797Y0307151D01*
X0364364Y0306584D01*
X0364931Y0306584D01*
X0365499Y0307151D01*
X0357200Y0307151D02*
X0356633Y0306584D01*
X0357200Y0307151D02*
X0357200Y0308285D01*
X0356633Y0308852D01*
X0356066Y0308852D01*
X0355499Y0308285D01*
X0355499Y0307151D01*
X0354931Y0306584D01*
X0354364Y0306584D01*
X0353797Y0307151D01*
X0353797Y0308285D01*
X0354364Y0308852D01*
X0354364Y0310267D02*
X0356633Y0310267D01*
X0357200Y0310834D01*
X0357200Y0311968D01*
X0356633Y0312536D01*
X0357200Y0313950D02*
X0357200Y0316219D01*
X0357200Y0313950D02*
X0353797Y0313950D01*
X0354364Y0312536D02*
X0353797Y0311968D01*
X0353797Y0310834D01*
X0354364Y0310267D01*
X0383797Y0310267D02*
X0387200Y0312536D01*
X0383797Y0312536D01*
X0383797Y0313950D02*
X0383797Y0315652D01*
X0384364Y0316219D01*
X0386633Y0316219D01*
X0387200Y0315652D01*
X0387200Y0313950D01*
X0383797Y0313950D01*
X0383797Y0310267D02*
X0387200Y0310267D01*
X0386633Y0308852D02*
X0385499Y0308852D01*
X0385499Y0307718D01*
X0386633Y0306584D02*
X0384364Y0306584D01*
X0383797Y0307151D01*
X0383797Y0308285D01*
X0384364Y0308852D01*
X0386633Y0308852D02*
X0387200Y0308285D01*
X0387200Y0307151D01*
X0386633Y0306584D01*
X0295200Y0307151D02*
X0295200Y0308285D01*
X0294633Y0308852D01*
X0293499Y0308852D01*
X0293499Y0307718D01*
X0294633Y0306584D02*
X0295200Y0307151D01*
X0294633Y0306584D02*
X0292364Y0306584D01*
X0291797Y0307151D01*
X0291797Y0308285D01*
X0292364Y0308852D01*
X0291797Y0310267D02*
X0295200Y0312536D01*
X0291797Y0312536D01*
X0291797Y0313950D02*
X0291797Y0315652D01*
X0292364Y0316219D01*
X0294633Y0316219D01*
X0295200Y0315652D01*
X0295200Y0313950D01*
X0291797Y0313950D01*
X0291797Y0310267D02*
X0295200Y0310267D01*
X0285200Y0310834D02*
X0284633Y0310267D01*
X0285200Y0310834D02*
X0285200Y0311968D01*
X0284633Y0312536D01*
X0284066Y0312536D01*
X0283499Y0311968D01*
X0283499Y0311401D01*
X0283499Y0311968D02*
X0282931Y0312536D01*
X0282364Y0312536D01*
X0281797Y0311968D01*
X0281797Y0310834D01*
X0282364Y0310267D01*
X0284633Y0308993D02*
X0285200Y0308993D01*
X0285200Y0308425D01*
X0284633Y0308425D01*
X0284633Y0308993D01*
X0284633Y0307011D02*
X0285200Y0306444D01*
X0285200Y0305309D01*
X0284633Y0304742D01*
X0283499Y0305877D02*
X0283499Y0306444D01*
X0284066Y0307011D01*
X0284633Y0307011D01*
X0283499Y0306444D02*
X0282931Y0307011D01*
X0282364Y0307011D01*
X0281797Y0306444D01*
X0281797Y0305309D01*
X0282364Y0304742D01*
X0275200Y0307151D02*
X0274633Y0306584D01*
X0275200Y0307151D02*
X0275200Y0308285D01*
X0274633Y0308852D01*
X0274066Y0308852D01*
X0273499Y0308285D01*
X0273499Y0307151D01*
X0272931Y0306584D01*
X0272364Y0306584D01*
X0271797Y0307151D01*
X0271797Y0308285D01*
X0272364Y0308852D01*
X0271797Y0310267D02*
X0275200Y0310267D01*
X0275200Y0311968D01*
X0274633Y0312536D01*
X0272364Y0312536D01*
X0271797Y0311968D01*
X0271797Y0310267D01*
X0272931Y0313950D02*
X0271797Y0315084D01*
X0272931Y0316219D01*
X0275200Y0316219D01*
X0273499Y0316219D02*
X0273499Y0313950D01*
X0272931Y0313950D02*
X0275200Y0313950D01*
X0281797Y0313950D02*
X0284066Y0313950D01*
X0285200Y0315084D01*
X0284066Y0316219D01*
X0281797Y0316219D01*
X0265200Y0316219D02*
X0265200Y0313950D01*
X0261797Y0313950D01*
X0262364Y0312536D02*
X0261797Y0311968D01*
X0261797Y0310834D01*
X0262364Y0310267D01*
X0264633Y0310267D01*
X0265200Y0310834D01*
X0265200Y0311968D01*
X0264633Y0312536D01*
X0264633Y0308852D02*
X0265200Y0308285D01*
X0265200Y0307151D01*
X0264633Y0306584D01*
X0263499Y0307151D02*
X0263499Y0308285D01*
X0264066Y0308852D01*
X0264633Y0308852D01*
X0263499Y0307151D02*
X0262931Y0306584D01*
X0262364Y0306584D01*
X0261797Y0307151D01*
X0261797Y0308285D01*
X0262364Y0308852D01*
X0265200Y0284219D02*
X0265200Y0281950D01*
X0261797Y0281950D01*
X0262364Y0280536D02*
X0261797Y0279968D01*
X0261797Y0278834D01*
X0262364Y0278267D01*
X0264633Y0278267D01*
X0265200Y0278834D01*
X0265200Y0279968D01*
X0264633Y0280536D01*
X0264633Y0276852D02*
X0265200Y0276285D01*
X0265200Y0275151D01*
X0264633Y0274584D01*
X0263499Y0275151D02*
X0263499Y0276285D01*
X0264066Y0276852D01*
X0264633Y0276852D01*
X0263499Y0275151D02*
X0262931Y0274584D01*
X0262364Y0274584D01*
X0261797Y0275151D01*
X0261797Y0276285D01*
X0262364Y0276852D01*
X0271797Y0276285D02*
X0271797Y0275151D01*
X0272364Y0274584D01*
X0272931Y0274584D01*
X0273499Y0275151D01*
X0273499Y0276285D01*
X0274066Y0276852D01*
X0274633Y0276852D01*
X0275200Y0276285D01*
X0275200Y0275151D01*
X0274633Y0274584D01*
X0272364Y0276852D02*
X0271797Y0276285D01*
X0271797Y0278267D02*
X0271797Y0279968D01*
X0272364Y0280536D01*
X0274633Y0280536D01*
X0275200Y0279968D01*
X0275200Y0278267D01*
X0271797Y0278267D01*
X0272931Y0281950D02*
X0271797Y0283084D01*
X0272931Y0284219D01*
X0275200Y0284219D01*
X0273499Y0284219D02*
X0273499Y0281950D01*
X0272931Y0281950D02*
X0275200Y0281950D01*
X0281797Y0281950D02*
X0284066Y0281950D01*
X0285200Y0283084D01*
X0284066Y0284219D01*
X0281797Y0284219D01*
X0282364Y0280536D02*
X0282931Y0280536D01*
X0283499Y0279968D01*
X0284066Y0280536D01*
X0284633Y0280536D01*
X0285200Y0279968D01*
X0285200Y0278834D01*
X0284633Y0278267D01*
X0284633Y0276993D02*
X0285200Y0276993D01*
X0285200Y0276425D01*
X0284633Y0276425D01*
X0284633Y0276993D01*
X0284633Y0275011D02*
X0285200Y0274444D01*
X0285200Y0273309D01*
X0284633Y0272742D01*
X0283499Y0273877D02*
X0283499Y0274444D01*
X0284066Y0275011D01*
X0284633Y0275011D01*
X0283499Y0274444D02*
X0282931Y0275011D01*
X0282364Y0275011D01*
X0281797Y0274444D01*
X0281797Y0273309D01*
X0282364Y0272742D01*
X0282364Y0278267D02*
X0281797Y0278834D01*
X0281797Y0279968D01*
X0282364Y0280536D01*
X0283499Y0279968D02*
X0283499Y0279401D01*
X0291797Y0278267D02*
X0295200Y0280536D01*
X0291797Y0280536D01*
X0291797Y0281950D02*
X0291797Y0283652D01*
X0292364Y0284219D01*
X0294633Y0284219D01*
X0295200Y0283652D01*
X0295200Y0281950D01*
X0291797Y0281950D01*
X0291797Y0278267D02*
X0295200Y0278267D01*
X0294633Y0276852D02*
X0293499Y0276852D01*
X0293499Y0275718D01*
X0294633Y0274584D02*
X0295200Y0275151D01*
X0295200Y0276285D01*
X0294633Y0276852D01*
X0294633Y0274584D02*
X0292364Y0274584D01*
X0291797Y0275151D01*
X0291797Y0276285D01*
X0292364Y0276852D01*
X0292364Y0252219D02*
X0291797Y0251652D01*
X0291797Y0249950D01*
X0295200Y0249950D01*
X0295200Y0251652D01*
X0294633Y0252219D01*
X0292364Y0252219D01*
X0291797Y0248536D02*
X0295200Y0248536D01*
X0291797Y0246267D01*
X0295200Y0246267D01*
X0294633Y0244852D02*
X0293499Y0244852D01*
X0293499Y0243718D01*
X0294633Y0242584D02*
X0295200Y0243151D01*
X0295200Y0244285D01*
X0294633Y0244852D01*
X0294633Y0242584D02*
X0292364Y0242584D01*
X0291797Y0243151D01*
X0291797Y0244285D01*
X0292364Y0244852D01*
X0285200Y0244993D02*
X0285200Y0244425D01*
X0284633Y0244425D01*
X0284633Y0244993D01*
X0285200Y0244993D01*
X0284633Y0246267D02*
X0285200Y0246834D01*
X0285200Y0247968D01*
X0284633Y0248536D01*
X0284066Y0248536D01*
X0283499Y0247968D01*
X0283499Y0247401D01*
X0283499Y0247968D02*
X0282931Y0248536D01*
X0282364Y0248536D01*
X0281797Y0247968D01*
X0281797Y0246834D01*
X0282364Y0246267D01*
X0282364Y0243011D02*
X0282931Y0243011D01*
X0283499Y0242444D01*
X0284066Y0243011D01*
X0284633Y0243011D01*
X0285200Y0242444D01*
X0285200Y0241309D01*
X0284633Y0240742D01*
X0283499Y0241877D02*
X0283499Y0242444D01*
X0282364Y0243011D02*
X0281797Y0242444D01*
X0281797Y0241309D01*
X0282364Y0240742D01*
X0275200Y0243151D02*
X0274633Y0242584D01*
X0275200Y0243151D02*
X0275200Y0244285D01*
X0274633Y0244852D01*
X0274066Y0244852D01*
X0273499Y0244285D01*
X0273499Y0243151D01*
X0272931Y0242584D01*
X0272364Y0242584D01*
X0271797Y0243151D01*
X0271797Y0244285D01*
X0272364Y0244852D01*
X0271797Y0246267D02*
X0275200Y0246267D01*
X0275200Y0247968D01*
X0274633Y0248536D01*
X0272364Y0248536D01*
X0271797Y0247968D01*
X0271797Y0246267D01*
X0272931Y0249950D02*
X0271797Y0251084D01*
X0272931Y0252219D01*
X0275200Y0252219D01*
X0273499Y0252219D02*
X0273499Y0249950D01*
X0272931Y0249950D02*
X0275200Y0249950D01*
X0281797Y0249950D02*
X0284066Y0249950D01*
X0285200Y0251084D01*
X0284066Y0252219D01*
X0281797Y0252219D01*
X0265200Y0252219D02*
X0265200Y0249950D01*
X0261797Y0249950D01*
X0262364Y0248536D02*
X0261797Y0247968D01*
X0261797Y0246834D01*
X0262364Y0246267D01*
X0264633Y0246267D01*
X0265200Y0246834D01*
X0265200Y0247968D01*
X0264633Y0248536D01*
X0264633Y0244852D02*
X0265200Y0244285D01*
X0265200Y0243151D01*
X0264633Y0242584D01*
X0263499Y0243151D02*
X0263499Y0244285D01*
X0264066Y0244852D01*
X0264633Y0244852D01*
X0263499Y0243151D02*
X0262931Y0242584D01*
X0262364Y0242584D01*
X0261797Y0243151D01*
X0261797Y0244285D01*
X0262364Y0244852D01*
X0265200Y0220219D02*
X0265200Y0217950D01*
X0261797Y0217950D01*
X0262364Y0216536D02*
X0261797Y0215968D01*
X0261797Y0214834D01*
X0262364Y0214267D01*
X0264633Y0214267D01*
X0265200Y0214834D01*
X0265200Y0215968D01*
X0264633Y0216536D01*
X0264633Y0212852D02*
X0265200Y0212285D01*
X0265200Y0211151D01*
X0264633Y0210584D01*
X0263499Y0211151D02*
X0263499Y0212285D01*
X0264066Y0212852D01*
X0264633Y0212852D01*
X0263499Y0211151D02*
X0262931Y0210584D01*
X0262364Y0210584D01*
X0261797Y0211151D01*
X0261797Y0212285D01*
X0262364Y0212852D01*
X0271797Y0212285D02*
X0271797Y0211151D01*
X0272364Y0210584D01*
X0272931Y0210584D01*
X0273499Y0211151D01*
X0273499Y0212285D01*
X0274066Y0212852D01*
X0274633Y0212852D01*
X0275200Y0212285D01*
X0275200Y0211151D01*
X0274633Y0210584D01*
X0272364Y0212852D02*
X0271797Y0212285D01*
X0271797Y0214267D02*
X0271797Y0215968D01*
X0272364Y0216536D01*
X0274633Y0216536D01*
X0275200Y0215968D01*
X0275200Y0214267D01*
X0271797Y0214267D01*
X0272931Y0217950D02*
X0271797Y0219084D01*
X0272931Y0220219D01*
X0275200Y0220219D01*
X0273499Y0220219D02*
X0273499Y0217950D01*
X0272931Y0217950D02*
X0275200Y0217950D01*
X0281797Y0217950D02*
X0284066Y0217950D01*
X0285200Y0219084D01*
X0284066Y0220219D01*
X0281797Y0220219D01*
X0282364Y0216536D02*
X0282931Y0216536D01*
X0283499Y0215968D01*
X0284066Y0216536D01*
X0284633Y0216536D01*
X0285200Y0215968D01*
X0285200Y0214834D01*
X0284633Y0214267D01*
X0284633Y0212993D02*
X0285200Y0212993D01*
X0285200Y0212425D01*
X0284633Y0212425D01*
X0284633Y0212993D01*
X0284633Y0211011D02*
X0285200Y0210444D01*
X0285200Y0209309D01*
X0284633Y0208742D01*
X0283499Y0209877D02*
X0283499Y0210444D01*
X0284066Y0211011D01*
X0284633Y0211011D01*
X0283499Y0210444D02*
X0282931Y0211011D01*
X0282364Y0211011D01*
X0281797Y0210444D01*
X0281797Y0209309D01*
X0282364Y0208742D01*
X0282364Y0214267D02*
X0281797Y0214834D01*
X0281797Y0215968D01*
X0282364Y0216536D01*
X0283499Y0215968D02*
X0283499Y0215401D01*
X0291797Y0214267D02*
X0295200Y0216536D01*
X0291797Y0216536D01*
X0291797Y0217950D02*
X0291797Y0219652D01*
X0292364Y0220219D01*
X0294633Y0220219D01*
X0295200Y0219652D01*
X0295200Y0217950D01*
X0291797Y0217950D01*
X0291797Y0214267D02*
X0295200Y0214267D01*
X0294633Y0212852D02*
X0293499Y0212852D01*
X0293499Y0211718D01*
X0294633Y0210584D02*
X0295200Y0211151D01*
X0295200Y0212285D01*
X0294633Y0212852D01*
X0294633Y0210584D02*
X0292364Y0210584D01*
X0291797Y0211151D01*
X0291797Y0212285D01*
X0292364Y0212852D01*
X0292364Y0188219D02*
X0291797Y0187652D01*
X0291797Y0185950D01*
X0295200Y0185950D01*
X0295200Y0187652D01*
X0294633Y0188219D01*
X0292364Y0188219D01*
X0291797Y0184536D02*
X0295200Y0184536D01*
X0291797Y0182267D01*
X0295200Y0182267D01*
X0294633Y0180852D02*
X0293499Y0180852D01*
X0293499Y0179718D01*
X0294633Y0178584D02*
X0295200Y0179151D01*
X0295200Y0180285D01*
X0294633Y0180852D01*
X0294633Y0178584D02*
X0292364Y0178584D01*
X0291797Y0179151D01*
X0291797Y0180285D01*
X0292364Y0180852D01*
X0285200Y0180993D02*
X0285200Y0180425D01*
X0284633Y0180425D01*
X0284633Y0180993D01*
X0285200Y0180993D01*
X0284633Y0182267D02*
X0285200Y0182834D01*
X0285200Y0183968D01*
X0284633Y0184536D01*
X0284066Y0184536D01*
X0283499Y0183968D01*
X0283499Y0183401D01*
X0283499Y0183968D02*
X0282931Y0184536D01*
X0282364Y0184536D01*
X0281797Y0183968D01*
X0281797Y0182834D01*
X0282364Y0182267D01*
X0282364Y0179011D02*
X0282931Y0179011D01*
X0283499Y0178444D01*
X0284066Y0179011D01*
X0284633Y0179011D01*
X0285200Y0178444D01*
X0285200Y0177309D01*
X0284633Y0176742D01*
X0283499Y0177877D02*
X0283499Y0178444D01*
X0282364Y0179011D02*
X0281797Y0178444D01*
X0281797Y0177309D01*
X0282364Y0176742D01*
X0275200Y0179151D02*
X0274633Y0178584D01*
X0275200Y0179151D02*
X0275200Y0180285D01*
X0274633Y0180852D01*
X0274066Y0180852D01*
X0273499Y0180285D01*
X0273499Y0179151D01*
X0272931Y0178584D01*
X0272364Y0178584D01*
X0271797Y0179151D01*
X0271797Y0180285D01*
X0272364Y0180852D01*
X0271797Y0182267D02*
X0275200Y0182267D01*
X0275200Y0183968D01*
X0274633Y0184536D01*
X0272364Y0184536D01*
X0271797Y0183968D01*
X0271797Y0182267D01*
X0272931Y0185950D02*
X0271797Y0187084D01*
X0272931Y0188219D01*
X0275200Y0188219D01*
X0273499Y0188219D02*
X0273499Y0185950D01*
X0272931Y0185950D02*
X0275200Y0185950D01*
X0281797Y0185950D02*
X0284066Y0185950D01*
X0285200Y0187084D01*
X0284066Y0188219D01*
X0281797Y0188219D01*
X0265200Y0188219D02*
X0265200Y0185950D01*
X0261797Y0185950D01*
X0262364Y0184536D02*
X0261797Y0183968D01*
X0261797Y0182834D01*
X0262364Y0182267D01*
X0264633Y0182267D01*
X0265200Y0182834D01*
X0265200Y0183968D01*
X0264633Y0184536D01*
X0264633Y0180852D02*
X0265200Y0180285D01*
X0265200Y0179151D01*
X0264633Y0178584D01*
X0263499Y0179151D02*
X0263499Y0180285D01*
X0264066Y0180852D01*
X0264633Y0180852D01*
X0263499Y0179151D02*
X0262931Y0178584D01*
X0262364Y0178584D01*
X0261797Y0179151D01*
X0261797Y0180285D01*
X0262364Y0180852D01*
D11*
X0068122Y0081522D02*
X0061626Y0081522D01*
X0068122Y0081522D02*
X0068122Y0084475D01*
X0051390Y0087428D02*
X0051390Y0099239D01*
X0061626Y0105144D02*
X0068122Y0105144D01*
X0068122Y0102192D01*
X0068122Y0113522D02*
X0061626Y0113522D01*
X0068122Y0113522D02*
X0068122Y0116475D01*
X0051390Y0119428D02*
X0051390Y0131239D01*
X0061626Y0137144D02*
X0068122Y0137144D01*
X0068122Y0134192D01*
X0068122Y0145522D02*
X0061626Y0145522D01*
X0068122Y0145522D02*
X0068122Y0148475D01*
X0051390Y0151428D02*
X0051390Y0163239D01*
X0061626Y0169144D02*
X0068122Y0169144D01*
X0068122Y0166192D01*
X0068122Y0177522D02*
X0061626Y0177522D01*
X0068122Y0177522D02*
X0068122Y0180475D01*
X0051390Y0183428D02*
X0051390Y0195239D01*
X0061626Y0201144D02*
X0068122Y0201144D01*
X0068122Y0198192D01*
X0068122Y0209522D02*
X0061626Y0209522D01*
X0068122Y0209522D02*
X0068122Y0212475D01*
X0051390Y0215428D02*
X0051390Y0227239D01*
X0061626Y0233144D02*
X0068122Y0233144D01*
X0068122Y0230192D01*
X0068122Y0241522D02*
X0061626Y0241522D01*
X0068122Y0241522D02*
X0068122Y0244475D01*
X0051390Y0247428D02*
X0051390Y0259239D01*
X0061626Y0265144D02*
X0068122Y0265144D01*
X0068122Y0262192D01*
X0068122Y0273522D02*
X0061626Y0273522D01*
X0068122Y0273522D02*
X0068122Y0276475D01*
X0051390Y0279428D02*
X0051390Y0291239D01*
X0061626Y0297144D02*
X0068122Y0297144D01*
X0068122Y0294192D01*
X0068122Y0305522D02*
X0061626Y0305522D01*
X0068122Y0305522D02*
X0068122Y0308475D01*
X0051390Y0311428D02*
X0051390Y0323239D01*
X0061626Y0329144D02*
X0068122Y0329144D01*
X0068122Y0326192D01*
X0120878Y0326192D02*
X0120878Y0329144D01*
X0127374Y0329144D01*
X0137610Y0323239D02*
X0137610Y0311428D01*
X0143390Y0311428D02*
X0143390Y0323239D01*
X0153626Y0329144D02*
X0160122Y0329144D01*
X0160122Y0326192D01*
X0160122Y0308475D02*
X0160122Y0305522D01*
X0153626Y0305522D01*
X0153626Y0297144D02*
X0160122Y0297144D01*
X0160122Y0294192D01*
X0143390Y0291239D02*
X0143390Y0279428D01*
X0137610Y0279428D02*
X0137610Y0291239D01*
X0127374Y0297144D02*
X0120878Y0297144D01*
X0120878Y0294192D01*
X0120878Y0305522D02*
X0120878Y0308475D01*
X0120878Y0305522D02*
X0127374Y0305522D01*
X0120878Y0276475D02*
X0120878Y0273522D01*
X0127374Y0273522D01*
X0127374Y0265144D02*
X0120878Y0265144D01*
X0120878Y0262192D01*
X0137610Y0259239D02*
X0137610Y0247428D01*
X0143390Y0247428D02*
X0143390Y0259239D01*
X0153626Y0265144D02*
X0160122Y0265144D01*
X0160122Y0262192D01*
X0160122Y0273522D02*
X0153626Y0273522D01*
X0160122Y0273522D02*
X0160122Y0276475D01*
X0160122Y0244475D02*
X0160122Y0241522D01*
X0153626Y0241522D01*
X0153626Y0233144D02*
X0160122Y0233144D01*
X0160122Y0230192D01*
X0143390Y0227239D02*
X0143390Y0215428D01*
X0137610Y0215428D02*
X0137610Y0227239D01*
X0127374Y0233144D02*
X0120878Y0233144D01*
X0120878Y0230192D01*
X0120878Y0241522D02*
X0120878Y0244475D01*
X0120878Y0241522D02*
X0127374Y0241522D01*
X0120878Y0212475D02*
X0120878Y0209522D01*
X0127374Y0209522D01*
X0127374Y0201144D02*
X0120878Y0201144D01*
X0120878Y0198192D01*
X0137610Y0195239D02*
X0137610Y0183428D01*
X0143390Y0183428D02*
X0143390Y0195239D01*
X0153626Y0201144D02*
X0160122Y0201144D01*
X0160122Y0198192D01*
X0160122Y0209522D02*
X0153626Y0209522D01*
X0160122Y0209522D02*
X0160122Y0212475D01*
X0160122Y0180475D02*
X0160122Y0177522D01*
X0153626Y0177522D01*
X0153626Y0169144D02*
X0160122Y0169144D01*
X0160122Y0166192D01*
X0143390Y0163239D02*
X0143390Y0151428D01*
X0137610Y0151428D02*
X0137610Y0163239D01*
X0127374Y0169144D02*
X0120878Y0169144D01*
X0120878Y0166192D01*
X0120878Y0177522D02*
X0120878Y0180475D01*
X0120878Y0177522D02*
X0127374Y0177522D01*
X0120878Y0148475D02*
X0120878Y0145522D01*
X0127374Y0145522D01*
X0127374Y0137144D02*
X0120878Y0137144D01*
X0120878Y0134192D01*
X0137610Y0131239D02*
X0137610Y0119428D01*
X0143390Y0119428D02*
X0143390Y0131239D01*
X0153626Y0137144D02*
X0160122Y0137144D01*
X0160122Y0134192D01*
X0160122Y0145522D02*
X0153626Y0145522D01*
X0160122Y0145522D02*
X0160122Y0148475D01*
X0160122Y0116475D02*
X0160122Y0113522D01*
X0153626Y0113522D01*
X0153626Y0105144D02*
X0160122Y0105144D01*
X0160122Y0102192D01*
X0143390Y0099239D02*
X0143390Y0087428D01*
X0137610Y0087428D02*
X0137610Y0099239D01*
X0127374Y0105144D02*
X0120878Y0105144D01*
X0120878Y0102192D01*
X0120878Y0113522D02*
X0120878Y0116475D01*
X0120878Y0113522D02*
X0127374Y0113522D01*
X0120878Y0084475D02*
X0120878Y0081522D01*
X0127374Y0081522D01*
X0153626Y0081522D02*
X0160122Y0081522D01*
X0160122Y0084475D01*
X0212878Y0084475D02*
X0212878Y0081522D01*
X0219374Y0081522D01*
X0229610Y0087428D02*
X0229610Y0099239D01*
X0235390Y0099239D02*
X0235390Y0087428D01*
X0245626Y0081522D02*
X0252122Y0081522D01*
X0252122Y0084475D01*
X0252122Y0102192D02*
X0252122Y0105144D01*
X0245626Y0105144D01*
X0245626Y0113522D02*
X0252122Y0113522D01*
X0252122Y0116475D01*
X0235390Y0119428D02*
X0235390Y0131239D01*
X0229610Y0131239D02*
X0229610Y0119428D01*
X0219374Y0113522D02*
X0212878Y0113522D01*
X0212878Y0116475D01*
X0212878Y0105144D02*
X0219374Y0105144D01*
X0212878Y0105144D02*
X0212878Y0102192D01*
X0212878Y0134192D02*
X0212878Y0137144D01*
X0219374Y0137144D01*
X0219374Y0145522D02*
X0212878Y0145522D01*
X0212878Y0148475D01*
X0229610Y0151428D02*
X0229610Y0163239D01*
X0235390Y0163239D02*
X0235390Y0151428D01*
X0245626Y0145522D02*
X0252122Y0145522D01*
X0252122Y0148475D01*
X0252122Y0137144D02*
X0245626Y0137144D01*
X0252122Y0137144D02*
X0252122Y0134192D01*
X0252122Y0166192D02*
X0252122Y0169144D01*
X0245626Y0169144D01*
X0245626Y0177522D02*
X0252122Y0177522D01*
X0252122Y0180475D01*
X0235390Y0183428D02*
X0235390Y0195239D01*
X0229610Y0195239D02*
X0229610Y0183428D01*
X0219374Y0177522D02*
X0212878Y0177522D01*
X0212878Y0180475D01*
X0212878Y0169144D02*
X0219374Y0169144D01*
X0212878Y0169144D02*
X0212878Y0166192D01*
X0212878Y0198192D02*
X0212878Y0201144D01*
X0219374Y0201144D01*
X0219374Y0209522D02*
X0212878Y0209522D01*
X0212878Y0212475D01*
X0229610Y0215428D02*
X0229610Y0227239D01*
X0235390Y0227239D02*
X0235390Y0215428D01*
X0245626Y0209522D02*
X0252122Y0209522D01*
X0252122Y0212475D01*
X0252122Y0201144D02*
X0245626Y0201144D01*
X0252122Y0201144D02*
X0252122Y0198192D01*
X0252122Y0230192D02*
X0252122Y0233144D01*
X0245626Y0233144D01*
X0245626Y0241522D02*
X0252122Y0241522D01*
X0252122Y0244475D01*
X0235390Y0247428D02*
X0235390Y0259239D01*
X0229610Y0259239D02*
X0229610Y0247428D01*
X0219374Y0241522D02*
X0212878Y0241522D01*
X0212878Y0244475D01*
X0212878Y0233144D02*
X0219374Y0233144D01*
X0212878Y0233144D02*
X0212878Y0230192D01*
X0212878Y0262192D02*
X0212878Y0265144D01*
X0219374Y0265144D01*
X0219374Y0273522D02*
X0212878Y0273522D01*
X0212878Y0276475D01*
X0229610Y0279428D02*
X0229610Y0291239D01*
X0235390Y0291239D02*
X0235390Y0279428D01*
X0245626Y0273522D02*
X0252122Y0273522D01*
X0252122Y0276475D01*
X0252122Y0265144D02*
X0245626Y0265144D01*
X0252122Y0265144D02*
X0252122Y0262192D01*
X0252122Y0294192D02*
X0252122Y0297144D01*
X0245626Y0297144D01*
X0245626Y0305522D02*
X0252122Y0305522D01*
X0252122Y0308475D01*
X0235390Y0311428D02*
X0235390Y0323239D01*
X0229610Y0323239D02*
X0229610Y0311428D01*
X0219374Y0305522D02*
X0212878Y0305522D01*
X0212878Y0308475D01*
X0212878Y0297144D02*
X0219374Y0297144D01*
X0212878Y0297144D02*
X0212878Y0294192D01*
X0212878Y0326192D02*
X0212878Y0329144D01*
X0219374Y0329144D01*
X0245626Y0329144D02*
X0252122Y0329144D01*
X0252122Y0326192D01*
X0304878Y0326192D02*
X0304878Y0329144D01*
X0311374Y0329144D01*
X0321610Y0323239D02*
X0321610Y0311428D01*
X0327390Y0311428D02*
X0327390Y0323239D01*
X0337626Y0329144D02*
X0344122Y0329144D01*
X0344122Y0326192D01*
X0344122Y0308475D02*
X0344122Y0305522D01*
X0337626Y0305522D01*
X0337626Y0297144D02*
X0344122Y0297144D01*
X0344122Y0294192D01*
X0327390Y0291239D02*
X0327390Y0279428D01*
X0321610Y0279428D02*
X0321610Y0291239D01*
X0311374Y0297144D02*
X0304878Y0297144D01*
X0304878Y0294192D01*
X0304878Y0305522D02*
X0304878Y0308475D01*
X0304878Y0305522D02*
X0311374Y0305522D01*
X0304878Y0276475D02*
X0304878Y0273522D01*
X0311374Y0273522D01*
X0311374Y0265144D02*
X0304878Y0265144D01*
X0304878Y0262192D01*
X0321610Y0259239D02*
X0321610Y0247428D01*
X0327390Y0247428D02*
X0327390Y0259239D01*
X0337626Y0265144D02*
X0344122Y0265144D01*
X0344122Y0262192D01*
X0344122Y0273522D02*
X0337626Y0273522D01*
X0344122Y0273522D02*
X0344122Y0276475D01*
X0344122Y0244475D02*
X0344122Y0241522D01*
X0337626Y0241522D01*
X0337626Y0233144D02*
X0344122Y0233144D01*
X0344122Y0230192D01*
X0327390Y0227239D02*
X0327390Y0215428D01*
X0321610Y0215428D02*
X0321610Y0227239D01*
X0311374Y0233144D02*
X0304878Y0233144D01*
X0304878Y0230192D01*
X0304878Y0241522D02*
X0304878Y0244475D01*
X0304878Y0241522D02*
X0311374Y0241522D01*
X0304878Y0212475D02*
X0304878Y0209522D01*
X0311374Y0209522D01*
X0311374Y0201144D02*
X0304878Y0201144D01*
X0304878Y0198192D01*
X0321610Y0195239D02*
X0321610Y0183428D01*
X0327390Y0183428D02*
X0327390Y0195239D01*
X0337626Y0201144D02*
X0344122Y0201144D01*
X0344122Y0198192D01*
X0344122Y0209522D02*
X0337626Y0209522D01*
X0344122Y0209522D02*
X0344122Y0212475D01*
X0344122Y0180475D02*
X0344122Y0177522D01*
X0337626Y0177522D01*
X0337626Y0169144D02*
X0344122Y0169144D01*
X0344122Y0166192D01*
X0327390Y0163239D02*
X0327390Y0151428D01*
X0321610Y0151428D02*
X0321610Y0163239D01*
X0311374Y0169144D02*
X0304878Y0169144D01*
X0304878Y0166192D01*
X0304878Y0177522D02*
X0304878Y0180475D01*
X0304878Y0177522D02*
X0311374Y0177522D01*
X0304878Y0148475D02*
X0304878Y0145522D01*
X0311374Y0145522D01*
X0311374Y0137144D02*
X0304878Y0137144D01*
X0304878Y0134192D01*
X0321610Y0131239D02*
X0321610Y0119428D01*
X0327390Y0119428D02*
X0327390Y0131239D01*
X0337626Y0137144D02*
X0344122Y0137144D01*
X0344122Y0134192D01*
X0344122Y0145522D02*
X0337626Y0145522D01*
X0344122Y0145522D02*
X0344122Y0148475D01*
X0344122Y0116475D02*
X0344122Y0113522D01*
X0337626Y0113522D01*
X0337626Y0105144D02*
X0344122Y0105144D01*
X0344122Y0102192D01*
X0327390Y0099239D02*
X0327390Y0087428D01*
X0321610Y0087428D02*
X0321610Y0099239D01*
X0311374Y0105144D02*
X0304878Y0105144D01*
X0304878Y0102192D01*
X0304878Y0113522D02*
X0304878Y0116475D01*
X0304878Y0113522D02*
X0311374Y0113522D01*
X0304878Y0084475D02*
X0304878Y0081522D01*
X0311374Y0081522D01*
X0337626Y0081522D02*
X0344122Y0081522D01*
X0344122Y0084475D01*
X0396878Y0084475D02*
X0396878Y0081522D01*
X0403374Y0081522D01*
X0413610Y0087428D02*
X0413610Y0099239D01*
X0403374Y0105144D02*
X0396878Y0105144D01*
X0396878Y0102192D01*
X0396878Y0113522D02*
X0396878Y0116475D01*
X0396878Y0113522D02*
X0403374Y0113522D01*
X0413610Y0119428D02*
X0413610Y0131239D01*
X0403374Y0137144D02*
X0396878Y0137144D01*
X0396878Y0134192D01*
X0396878Y0145522D02*
X0396878Y0148475D01*
X0396878Y0145522D02*
X0403374Y0145522D01*
X0413610Y0151428D02*
X0413610Y0163239D01*
X0403374Y0169144D02*
X0396878Y0169144D01*
X0396878Y0166192D01*
X0396878Y0177522D02*
X0396878Y0180475D01*
X0396878Y0177522D02*
X0403374Y0177522D01*
X0413610Y0183428D02*
X0413610Y0195239D01*
X0403374Y0201144D02*
X0396878Y0201144D01*
X0396878Y0198192D01*
X0396878Y0209522D02*
X0396878Y0212475D01*
X0396878Y0209522D02*
X0403374Y0209522D01*
X0413610Y0215428D02*
X0413610Y0227239D01*
X0403374Y0233144D02*
X0396878Y0233144D01*
X0396878Y0230192D01*
X0396878Y0241522D02*
X0396878Y0244475D01*
X0396878Y0241522D02*
X0403374Y0241522D01*
X0413610Y0247428D02*
X0413610Y0259239D01*
X0403374Y0265144D02*
X0396878Y0265144D01*
X0396878Y0262192D01*
X0396878Y0273522D02*
X0396878Y0276475D01*
X0396878Y0273522D02*
X0403374Y0273522D01*
X0413610Y0279428D02*
X0413610Y0291239D01*
X0403374Y0297144D02*
X0396878Y0297144D01*
X0396878Y0294192D01*
X0396878Y0305522D02*
X0396878Y0308475D01*
X0396878Y0305522D02*
X0403374Y0305522D01*
X0413610Y0311428D02*
X0413610Y0323239D01*
X0403374Y0329144D02*
X0396878Y0329144D01*
X0396878Y0326192D01*
D12*
X0393762Y0307491D02*
X0393764Y0307538D01*
X0393770Y0307584D01*
X0393779Y0307630D01*
X0393793Y0307674D01*
X0393810Y0307718D01*
X0393831Y0307759D01*
X0393855Y0307799D01*
X0393882Y0307837D01*
X0393913Y0307872D01*
X0393946Y0307905D01*
X0393982Y0307935D01*
X0394021Y0307961D01*
X0394061Y0307985D01*
X0394103Y0308004D01*
X0394147Y0308021D01*
X0394192Y0308033D01*
X0394238Y0308042D01*
X0394284Y0308047D01*
X0394331Y0308048D01*
X0394377Y0308045D01*
X0394423Y0308038D01*
X0394469Y0308027D01*
X0394513Y0308013D01*
X0394556Y0307995D01*
X0394597Y0307973D01*
X0394637Y0307948D01*
X0394674Y0307920D01*
X0394709Y0307889D01*
X0394741Y0307855D01*
X0394770Y0307818D01*
X0394795Y0307780D01*
X0394818Y0307739D01*
X0394837Y0307696D01*
X0394852Y0307652D01*
X0394864Y0307607D01*
X0394872Y0307561D01*
X0394876Y0307514D01*
X0394876Y0307468D01*
X0394872Y0307421D01*
X0394864Y0307375D01*
X0394852Y0307330D01*
X0394837Y0307286D01*
X0394818Y0307243D01*
X0394795Y0307202D01*
X0394770Y0307164D01*
X0394741Y0307127D01*
X0394709Y0307093D01*
X0394674Y0307062D01*
X0394637Y0307034D01*
X0394598Y0307009D01*
X0394556Y0306987D01*
X0394513Y0306969D01*
X0394469Y0306955D01*
X0394423Y0306944D01*
X0394377Y0306937D01*
X0394331Y0306934D01*
X0394284Y0306935D01*
X0394238Y0306940D01*
X0394192Y0306949D01*
X0394147Y0306961D01*
X0394103Y0306978D01*
X0394061Y0306997D01*
X0394021Y0307021D01*
X0393982Y0307047D01*
X0393946Y0307077D01*
X0393913Y0307110D01*
X0393882Y0307145D01*
X0393855Y0307183D01*
X0393831Y0307223D01*
X0393810Y0307264D01*
X0393793Y0307308D01*
X0393779Y0307352D01*
X0393770Y0307398D01*
X0393764Y0307444D01*
X0393762Y0307491D01*
X0393762Y0275491D02*
X0393764Y0275538D01*
X0393770Y0275584D01*
X0393779Y0275630D01*
X0393793Y0275674D01*
X0393810Y0275718D01*
X0393831Y0275759D01*
X0393855Y0275799D01*
X0393882Y0275837D01*
X0393913Y0275872D01*
X0393946Y0275905D01*
X0393982Y0275935D01*
X0394021Y0275961D01*
X0394061Y0275985D01*
X0394103Y0276004D01*
X0394147Y0276021D01*
X0394192Y0276033D01*
X0394238Y0276042D01*
X0394284Y0276047D01*
X0394331Y0276048D01*
X0394377Y0276045D01*
X0394423Y0276038D01*
X0394469Y0276027D01*
X0394513Y0276013D01*
X0394556Y0275995D01*
X0394597Y0275973D01*
X0394637Y0275948D01*
X0394674Y0275920D01*
X0394709Y0275889D01*
X0394741Y0275855D01*
X0394770Y0275818D01*
X0394795Y0275780D01*
X0394818Y0275739D01*
X0394837Y0275696D01*
X0394852Y0275652D01*
X0394864Y0275607D01*
X0394872Y0275561D01*
X0394876Y0275514D01*
X0394876Y0275468D01*
X0394872Y0275421D01*
X0394864Y0275375D01*
X0394852Y0275330D01*
X0394837Y0275286D01*
X0394818Y0275243D01*
X0394795Y0275202D01*
X0394770Y0275164D01*
X0394741Y0275127D01*
X0394709Y0275093D01*
X0394674Y0275062D01*
X0394637Y0275034D01*
X0394598Y0275009D01*
X0394556Y0274987D01*
X0394513Y0274969D01*
X0394469Y0274955D01*
X0394423Y0274944D01*
X0394377Y0274937D01*
X0394331Y0274934D01*
X0394284Y0274935D01*
X0394238Y0274940D01*
X0394192Y0274949D01*
X0394147Y0274961D01*
X0394103Y0274978D01*
X0394061Y0274997D01*
X0394021Y0275021D01*
X0393982Y0275047D01*
X0393946Y0275077D01*
X0393913Y0275110D01*
X0393882Y0275145D01*
X0393855Y0275183D01*
X0393831Y0275223D01*
X0393810Y0275264D01*
X0393793Y0275308D01*
X0393779Y0275352D01*
X0393770Y0275398D01*
X0393764Y0275444D01*
X0393762Y0275491D01*
X0393762Y0243491D02*
X0393764Y0243538D01*
X0393770Y0243584D01*
X0393779Y0243630D01*
X0393793Y0243674D01*
X0393810Y0243718D01*
X0393831Y0243759D01*
X0393855Y0243799D01*
X0393882Y0243837D01*
X0393913Y0243872D01*
X0393946Y0243905D01*
X0393982Y0243935D01*
X0394021Y0243961D01*
X0394061Y0243985D01*
X0394103Y0244004D01*
X0394147Y0244021D01*
X0394192Y0244033D01*
X0394238Y0244042D01*
X0394284Y0244047D01*
X0394331Y0244048D01*
X0394377Y0244045D01*
X0394423Y0244038D01*
X0394469Y0244027D01*
X0394513Y0244013D01*
X0394556Y0243995D01*
X0394597Y0243973D01*
X0394637Y0243948D01*
X0394674Y0243920D01*
X0394709Y0243889D01*
X0394741Y0243855D01*
X0394770Y0243818D01*
X0394795Y0243780D01*
X0394818Y0243739D01*
X0394837Y0243696D01*
X0394852Y0243652D01*
X0394864Y0243607D01*
X0394872Y0243561D01*
X0394876Y0243514D01*
X0394876Y0243468D01*
X0394872Y0243421D01*
X0394864Y0243375D01*
X0394852Y0243330D01*
X0394837Y0243286D01*
X0394818Y0243243D01*
X0394795Y0243202D01*
X0394770Y0243164D01*
X0394741Y0243127D01*
X0394709Y0243093D01*
X0394674Y0243062D01*
X0394637Y0243034D01*
X0394598Y0243009D01*
X0394556Y0242987D01*
X0394513Y0242969D01*
X0394469Y0242955D01*
X0394423Y0242944D01*
X0394377Y0242937D01*
X0394331Y0242934D01*
X0394284Y0242935D01*
X0394238Y0242940D01*
X0394192Y0242949D01*
X0394147Y0242961D01*
X0394103Y0242978D01*
X0394061Y0242997D01*
X0394021Y0243021D01*
X0393982Y0243047D01*
X0393946Y0243077D01*
X0393913Y0243110D01*
X0393882Y0243145D01*
X0393855Y0243183D01*
X0393831Y0243223D01*
X0393810Y0243264D01*
X0393793Y0243308D01*
X0393779Y0243352D01*
X0393770Y0243398D01*
X0393764Y0243444D01*
X0393762Y0243491D01*
X0393762Y0211491D02*
X0393764Y0211538D01*
X0393770Y0211584D01*
X0393779Y0211630D01*
X0393793Y0211674D01*
X0393810Y0211718D01*
X0393831Y0211759D01*
X0393855Y0211799D01*
X0393882Y0211837D01*
X0393913Y0211872D01*
X0393946Y0211905D01*
X0393982Y0211935D01*
X0394021Y0211961D01*
X0394061Y0211985D01*
X0394103Y0212004D01*
X0394147Y0212021D01*
X0394192Y0212033D01*
X0394238Y0212042D01*
X0394284Y0212047D01*
X0394331Y0212048D01*
X0394377Y0212045D01*
X0394423Y0212038D01*
X0394469Y0212027D01*
X0394513Y0212013D01*
X0394556Y0211995D01*
X0394597Y0211973D01*
X0394637Y0211948D01*
X0394674Y0211920D01*
X0394709Y0211889D01*
X0394741Y0211855D01*
X0394770Y0211818D01*
X0394795Y0211780D01*
X0394818Y0211739D01*
X0394837Y0211696D01*
X0394852Y0211652D01*
X0394864Y0211607D01*
X0394872Y0211561D01*
X0394876Y0211514D01*
X0394876Y0211468D01*
X0394872Y0211421D01*
X0394864Y0211375D01*
X0394852Y0211330D01*
X0394837Y0211286D01*
X0394818Y0211243D01*
X0394795Y0211202D01*
X0394770Y0211164D01*
X0394741Y0211127D01*
X0394709Y0211093D01*
X0394674Y0211062D01*
X0394637Y0211034D01*
X0394598Y0211009D01*
X0394556Y0210987D01*
X0394513Y0210969D01*
X0394469Y0210955D01*
X0394423Y0210944D01*
X0394377Y0210937D01*
X0394331Y0210934D01*
X0394284Y0210935D01*
X0394238Y0210940D01*
X0394192Y0210949D01*
X0394147Y0210961D01*
X0394103Y0210978D01*
X0394061Y0210997D01*
X0394021Y0211021D01*
X0393982Y0211047D01*
X0393946Y0211077D01*
X0393913Y0211110D01*
X0393882Y0211145D01*
X0393855Y0211183D01*
X0393831Y0211223D01*
X0393810Y0211264D01*
X0393793Y0211308D01*
X0393779Y0211352D01*
X0393770Y0211398D01*
X0393764Y0211444D01*
X0393762Y0211491D01*
X0393762Y0179491D02*
X0393764Y0179538D01*
X0393770Y0179584D01*
X0393779Y0179630D01*
X0393793Y0179674D01*
X0393810Y0179718D01*
X0393831Y0179759D01*
X0393855Y0179799D01*
X0393882Y0179837D01*
X0393913Y0179872D01*
X0393946Y0179905D01*
X0393982Y0179935D01*
X0394021Y0179961D01*
X0394061Y0179985D01*
X0394103Y0180004D01*
X0394147Y0180021D01*
X0394192Y0180033D01*
X0394238Y0180042D01*
X0394284Y0180047D01*
X0394331Y0180048D01*
X0394377Y0180045D01*
X0394423Y0180038D01*
X0394469Y0180027D01*
X0394513Y0180013D01*
X0394556Y0179995D01*
X0394597Y0179973D01*
X0394637Y0179948D01*
X0394674Y0179920D01*
X0394709Y0179889D01*
X0394741Y0179855D01*
X0394770Y0179818D01*
X0394795Y0179780D01*
X0394818Y0179739D01*
X0394837Y0179696D01*
X0394852Y0179652D01*
X0394864Y0179607D01*
X0394872Y0179561D01*
X0394876Y0179514D01*
X0394876Y0179468D01*
X0394872Y0179421D01*
X0394864Y0179375D01*
X0394852Y0179330D01*
X0394837Y0179286D01*
X0394818Y0179243D01*
X0394795Y0179202D01*
X0394770Y0179164D01*
X0394741Y0179127D01*
X0394709Y0179093D01*
X0394674Y0179062D01*
X0394637Y0179034D01*
X0394598Y0179009D01*
X0394556Y0178987D01*
X0394513Y0178969D01*
X0394469Y0178955D01*
X0394423Y0178944D01*
X0394377Y0178937D01*
X0394331Y0178934D01*
X0394284Y0178935D01*
X0394238Y0178940D01*
X0394192Y0178949D01*
X0394147Y0178961D01*
X0394103Y0178978D01*
X0394061Y0178997D01*
X0394021Y0179021D01*
X0393982Y0179047D01*
X0393946Y0179077D01*
X0393913Y0179110D01*
X0393882Y0179145D01*
X0393855Y0179183D01*
X0393831Y0179223D01*
X0393810Y0179264D01*
X0393793Y0179308D01*
X0393779Y0179352D01*
X0393770Y0179398D01*
X0393764Y0179444D01*
X0393762Y0179491D01*
X0393762Y0147491D02*
X0393764Y0147538D01*
X0393770Y0147584D01*
X0393779Y0147630D01*
X0393793Y0147674D01*
X0393810Y0147718D01*
X0393831Y0147759D01*
X0393855Y0147799D01*
X0393882Y0147837D01*
X0393913Y0147872D01*
X0393946Y0147905D01*
X0393982Y0147935D01*
X0394021Y0147961D01*
X0394061Y0147985D01*
X0394103Y0148004D01*
X0394147Y0148021D01*
X0394192Y0148033D01*
X0394238Y0148042D01*
X0394284Y0148047D01*
X0394331Y0148048D01*
X0394377Y0148045D01*
X0394423Y0148038D01*
X0394469Y0148027D01*
X0394513Y0148013D01*
X0394556Y0147995D01*
X0394597Y0147973D01*
X0394637Y0147948D01*
X0394674Y0147920D01*
X0394709Y0147889D01*
X0394741Y0147855D01*
X0394770Y0147818D01*
X0394795Y0147780D01*
X0394818Y0147739D01*
X0394837Y0147696D01*
X0394852Y0147652D01*
X0394864Y0147607D01*
X0394872Y0147561D01*
X0394876Y0147514D01*
X0394876Y0147468D01*
X0394872Y0147421D01*
X0394864Y0147375D01*
X0394852Y0147330D01*
X0394837Y0147286D01*
X0394818Y0147243D01*
X0394795Y0147202D01*
X0394770Y0147164D01*
X0394741Y0147127D01*
X0394709Y0147093D01*
X0394674Y0147062D01*
X0394637Y0147034D01*
X0394598Y0147009D01*
X0394556Y0146987D01*
X0394513Y0146969D01*
X0394469Y0146955D01*
X0394423Y0146944D01*
X0394377Y0146937D01*
X0394331Y0146934D01*
X0394284Y0146935D01*
X0394238Y0146940D01*
X0394192Y0146949D01*
X0394147Y0146961D01*
X0394103Y0146978D01*
X0394061Y0146997D01*
X0394021Y0147021D01*
X0393982Y0147047D01*
X0393946Y0147077D01*
X0393913Y0147110D01*
X0393882Y0147145D01*
X0393855Y0147183D01*
X0393831Y0147223D01*
X0393810Y0147264D01*
X0393793Y0147308D01*
X0393779Y0147352D01*
X0393770Y0147398D01*
X0393764Y0147444D01*
X0393762Y0147491D01*
X0393762Y0115491D02*
X0393764Y0115538D01*
X0393770Y0115584D01*
X0393779Y0115630D01*
X0393793Y0115674D01*
X0393810Y0115718D01*
X0393831Y0115759D01*
X0393855Y0115799D01*
X0393882Y0115837D01*
X0393913Y0115872D01*
X0393946Y0115905D01*
X0393982Y0115935D01*
X0394021Y0115961D01*
X0394061Y0115985D01*
X0394103Y0116004D01*
X0394147Y0116021D01*
X0394192Y0116033D01*
X0394238Y0116042D01*
X0394284Y0116047D01*
X0394331Y0116048D01*
X0394377Y0116045D01*
X0394423Y0116038D01*
X0394469Y0116027D01*
X0394513Y0116013D01*
X0394556Y0115995D01*
X0394597Y0115973D01*
X0394637Y0115948D01*
X0394674Y0115920D01*
X0394709Y0115889D01*
X0394741Y0115855D01*
X0394770Y0115818D01*
X0394795Y0115780D01*
X0394818Y0115739D01*
X0394837Y0115696D01*
X0394852Y0115652D01*
X0394864Y0115607D01*
X0394872Y0115561D01*
X0394876Y0115514D01*
X0394876Y0115468D01*
X0394872Y0115421D01*
X0394864Y0115375D01*
X0394852Y0115330D01*
X0394837Y0115286D01*
X0394818Y0115243D01*
X0394795Y0115202D01*
X0394770Y0115164D01*
X0394741Y0115127D01*
X0394709Y0115093D01*
X0394674Y0115062D01*
X0394637Y0115034D01*
X0394598Y0115009D01*
X0394556Y0114987D01*
X0394513Y0114969D01*
X0394469Y0114955D01*
X0394423Y0114944D01*
X0394377Y0114937D01*
X0394331Y0114934D01*
X0394284Y0114935D01*
X0394238Y0114940D01*
X0394192Y0114949D01*
X0394147Y0114961D01*
X0394103Y0114978D01*
X0394061Y0114997D01*
X0394021Y0115021D01*
X0393982Y0115047D01*
X0393946Y0115077D01*
X0393913Y0115110D01*
X0393882Y0115145D01*
X0393855Y0115183D01*
X0393831Y0115223D01*
X0393810Y0115264D01*
X0393793Y0115308D01*
X0393779Y0115352D01*
X0393770Y0115398D01*
X0393764Y0115444D01*
X0393762Y0115491D01*
X0393762Y0083491D02*
X0393764Y0083538D01*
X0393770Y0083584D01*
X0393779Y0083630D01*
X0393793Y0083674D01*
X0393810Y0083718D01*
X0393831Y0083759D01*
X0393855Y0083799D01*
X0393882Y0083837D01*
X0393913Y0083872D01*
X0393946Y0083905D01*
X0393982Y0083935D01*
X0394021Y0083961D01*
X0394061Y0083985D01*
X0394103Y0084004D01*
X0394147Y0084021D01*
X0394192Y0084033D01*
X0394238Y0084042D01*
X0394284Y0084047D01*
X0394331Y0084048D01*
X0394377Y0084045D01*
X0394423Y0084038D01*
X0394469Y0084027D01*
X0394513Y0084013D01*
X0394556Y0083995D01*
X0394597Y0083973D01*
X0394637Y0083948D01*
X0394674Y0083920D01*
X0394709Y0083889D01*
X0394741Y0083855D01*
X0394770Y0083818D01*
X0394795Y0083780D01*
X0394818Y0083739D01*
X0394837Y0083696D01*
X0394852Y0083652D01*
X0394864Y0083607D01*
X0394872Y0083561D01*
X0394876Y0083514D01*
X0394876Y0083468D01*
X0394872Y0083421D01*
X0394864Y0083375D01*
X0394852Y0083330D01*
X0394837Y0083286D01*
X0394818Y0083243D01*
X0394795Y0083202D01*
X0394770Y0083164D01*
X0394741Y0083127D01*
X0394709Y0083093D01*
X0394674Y0083062D01*
X0394637Y0083034D01*
X0394598Y0083009D01*
X0394556Y0082987D01*
X0394513Y0082969D01*
X0394469Y0082955D01*
X0394423Y0082944D01*
X0394377Y0082937D01*
X0394331Y0082934D01*
X0394284Y0082935D01*
X0394238Y0082940D01*
X0394192Y0082949D01*
X0394147Y0082961D01*
X0394103Y0082978D01*
X0394061Y0082997D01*
X0394021Y0083021D01*
X0393982Y0083047D01*
X0393946Y0083077D01*
X0393913Y0083110D01*
X0393882Y0083145D01*
X0393855Y0083183D01*
X0393831Y0083223D01*
X0393810Y0083264D01*
X0393793Y0083308D01*
X0393779Y0083352D01*
X0393770Y0083398D01*
X0393764Y0083444D01*
X0393762Y0083491D01*
X0346124Y0103176D02*
X0346126Y0103223D01*
X0346132Y0103269D01*
X0346141Y0103315D01*
X0346155Y0103359D01*
X0346172Y0103403D01*
X0346193Y0103444D01*
X0346217Y0103484D01*
X0346244Y0103522D01*
X0346275Y0103557D01*
X0346308Y0103590D01*
X0346344Y0103620D01*
X0346383Y0103646D01*
X0346423Y0103670D01*
X0346465Y0103689D01*
X0346509Y0103706D01*
X0346554Y0103718D01*
X0346600Y0103727D01*
X0346646Y0103732D01*
X0346693Y0103733D01*
X0346739Y0103730D01*
X0346785Y0103723D01*
X0346831Y0103712D01*
X0346875Y0103698D01*
X0346918Y0103680D01*
X0346959Y0103658D01*
X0346999Y0103633D01*
X0347036Y0103605D01*
X0347071Y0103574D01*
X0347103Y0103540D01*
X0347132Y0103503D01*
X0347157Y0103465D01*
X0347180Y0103424D01*
X0347199Y0103381D01*
X0347214Y0103337D01*
X0347226Y0103292D01*
X0347234Y0103246D01*
X0347238Y0103199D01*
X0347238Y0103153D01*
X0347234Y0103106D01*
X0347226Y0103060D01*
X0347214Y0103015D01*
X0347199Y0102971D01*
X0347180Y0102928D01*
X0347157Y0102887D01*
X0347132Y0102849D01*
X0347103Y0102812D01*
X0347071Y0102778D01*
X0347036Y0102747D01*
X0346999Y0102719D01*
X0346960Y0102694D01*
X0346918Y0102672D01*
X0346875Y0102654D01*
X0346831Y0102640D01*
X0346785Y0102629D01*
X0346739Y0102622D01*
X0346693Y0102619D01*
X0346646Y0102620D01*
X0346600Y0102625D01*
X0346554Y0102634D01*
X0346509Y0102646D01*
X0346465Y0102663D01*
X0346423Y0102682D01*
X0346383Y0102706D01*
X0346344Y0102732D01*
X0346308Y0102762D01*
X0346275Y0102795D01*
X0346244Y0102830D01*
X0346217Y0102868D01*
X0346193Y0102908D01*
X0346172Y0102949D01*
X0346155Y0102993D01*
X0346141Y0103037D01*
X0346132Y0103083D01*
X0346126Y0103129D01*
X0346124Y0103176D01*
X0346124Y0135176D02*
X0346126Y0135223D01*
X0346132Y0135269D01*
X0346141Y0135315D01*
X0346155Y0135359D01*
X0346172Y0135403D01*
X0346193Y0135444D01*
X0346217Y0135484D01*
X0346244Y0135522D01*
X0346275Y0135557D01*
X0346308Y0135590D01*
X0346344Y0135620D01*
X0346383Y0135646D01*
X0346423Y0135670D01*
X0346465Y0135689D01*
X0346509Y0135706D01*
X0346554Y0135718D01*
X0346600Y0135727D01*
X0346646Y0135732D01*
X0346693Y0135733D01*
X0346739Y0135730D01*
X0346785Y0135723D01*
X0346831Y0135712D01*
X0346875Y0135698D01*
X0346918Y0135680D01*
X0346959Y0135658D01*
X0346999Y0135633D01*
X0347036Y0135605D01*
X0347071Y0135574D01*
X0347103Y0135540D01*
X0347132Y0135503D01*
X0347157Y0135465D01*
X0347180Y0135424D01*
X0347199Y0135381D01*
X0347214Y0135337D01*
X0347226Y0135292D01*
X0347234Y0135246D01*
X0347238Y0135199D01*
X0347238Y0135153D01*
X0347234Y0135106D01*
X0347226Y0135060D01*
X0347214Y0135015D01*
X0347199Y0134971D01*
X0347180Y0134928D01*
X0347157Y0134887D01*
X0347132Y0134849D01*
X0347103Y0134812D01*
X0347071Y0134778D01*
X0347036Y0134747D01*
X0346999Y0134719D01*
X0346960Y0134694D01*
X0346918Y0134672D01*
X0346875Y0134654D01*
X0346831Y0134640D01*
X0346785Y0134629D01*
X0346739Y0134622D01*
X0346693Y0134619D01*
X0346646Y0134620D01*
X0346600Y0134625D01*
X0346554Y0134634D01*
X0346509Y0134646D01*
X0346465Y0134663D01*
X0346423Y0134682D01*
X0346383Y0134706D01*
X0346344Y0134732D01*
X0346308Y0134762D01*
X0346275Y0134795D01*
X0346244Y0134830D01*
X0346217Y0134868D01*
X0346193Y0134908D01*
X0346172Y0134949D01*
X0346155Y0134993D01*
X0346141Y0135037D01*
X0346132Y0135083D01*
X0346126Y0135129D01*
X0346124Y0135176D01*
X0346124Y0167176D02*
X0346126Y0167223D01*
X0346132Y0167269D01*
X0346141Y0167315D01*
X0346155Y0167359D01*
X0346172Y0167403D01*
X0346193Y0167444D01*
X0346217Y0167484D01*
X0346244Y0167522D01*
X0346275Y0167557D01*
X0346308Y0167590D01*
X0346344Y0167620D01*
X0346383Y0167646D01*
X0346423Y0167670D01*
X0346465Y0167689D01*
X0346509Y0167706D01*
X0346554Y0167718D01*
X0346600Y0167727D01*
X0346646Y0167732D01*
X0346693Y0167733D01*
X0346739Y0167730D01*
X0346785Y0167723D01*
X0346831Y0167712D01*
X0346875Y0167698D01*
X0346918Y0167680D01*
X0346959Y0167658D01*
X0346999Y0167633D01*
X0347036Y0167605D01*
X0347071Y0167574D01*
X0347103Y0167540D01*
X0347132Y0167503D01*
X0347157Y0167465D01*
X0347180Y0167424D01*
X0347199Y0167381D01*
X0347214Y0167337D01*
X0347226Y0167292D01*
X0347234Y0167246D01*
X0347238Y0167199D01*
X0347238Y0167153D01*
X0347234Y0167106D01*
X0347226Y0167060D01*
X0347214Y0167015D01*
X0347199Y0166971D01*
X0347180Y0166928D01*
X0347157Y0166887D01*
X0347132Y0166849D01*
X0347103Y0166812D01*
X0347071Y0166778D01*
X0347036Y0166747D01*
X0346999Y0166719D01*
X0346960Y0166694D01*
X0346918Y0166672D01*
X0346875Y0166654D01*
X0346831Y0166640D01*
X0346785Y0166629D01*
X0346739Y0166622D01*
X0346693Y0166619D01*
X0346646Y0166620D01*
X0346600Y0166625D01*
X0346554Y0166634D01*
X0346509Y0166646D01*
X0346465Y0166663D01*
X0346423Y0166682D01*
X0346383Y0166706D01*
X0346344Y0166732D01*
X0346308Y0166762D01*
X0346275Y0166795D01*
X0346244Y0166830D01*
X0346217Y0166868D01*
X0346193Y0166908D01*
X0346172Y0166949D01*
X0346155Y0166993D01*
X0346141Y0167037D01*
X0346132Y0167083D01*
X0346126Y0167129D01*
X0346124Y0167176D01*
X0346124Y0199176D02*
X0346126Y0199223D01*
X0346132Y0199269D01*
X0346141Y0199315D01*
X0346155Y0199359D01*
X0346172Y0199403D01*
X0346193Y0199444D01*
X0346217Y0199484D01*
X0346244Y0199522D01*
X0346275Y0199557D01*
X0346308Y0199590D01*
X0346344Y0199620D01*
X0346383Y0199646D01*
X0346423Y0199670D01*
X0346465Y0199689D01*
X0346509Y0199706D01*
X0346554Y0199718D01*
X0346600Y0199727D01*
X0346646Y0199732D01*
X0346693Y0199733D01*
X0346739Y0199730D01*
X0346785Y0199723D01*
X0346831Y0199712D01*
X0346875Y0199698D01*
X0346918Y0199680D01*
X0346959Y0199658D01*
X0346999Y0199633D01*
X0347036Y0199605D01*
X0347071Y0199574D01*
X0347103Y0199540D01*
X0347132Y0199503D01*
X0347157Y0199465D01*
X0347180Y0199424D01*
X0347199Y0199381D01*
X0347214Y0199337D01*
X0347226Y0199292D01*
X0347234Y0199246D01*
X0347238Y0199199D01*
X0347238Y0199153D01*
X0347234Y0199106D01*
X0347226Y0199060D01*
X0347214Y0199015D01*
X0347199Y0198971D01*
X0347180Y0198928D01*
X0347157Y0198887D01*
X0347132Y0198849D01*
X0347103Y0198812D01*
X0347071Y0198778D01*
X0347036Y0198747D01*
X0346999Y0198719D01*
X0346960Y0198694D01*
X0346918Y0198672D01*
X0346875Y0198654D01*
X0346831Y0198640D01*
X0346785Y0198629D01*
X0346739Y0198622D01*
X0346693Y0198619D01*
X0346646Y0198620D01*
X0346600Y0198625D01*
X0346554Y0198634D01*
X0346509Y0198646D01*
X0346465Y0198663D01*
X0346423Y0198682D01*
X0346383Y0198706D01*
X0346344Y0198732D01*
X0346308Y0198762D01*
X0346275Y0198795D01*
X0346244Y0198830D01*
X0346217Y0198868D01*
X0346193Y0198908D01*
X0346172Y0198949D01*
X0346155Y0198993D01*
X0346141Y0199037D01*
X0346132Y0199083D01*
X0346126Y0199129D01*
X0346124Y0199176D01*
X0346124Y0231176D02*
X0346126Y0231223D01*
X0346132Y0231269D01*
X0346141Y0231315D01*
X0346155Y0231359D01*
X0346172Y0231403D01*
X0346193Y0231444D01*
X0346217Y0231484D01*
X0346244Y0231522D01*
X0346275Y0231557D01*
X0346308Y0231590D01*
X0346344Y0231620D01*
X0346383Y0231646D01*
X0346423Y0231670D01*
X0346465Y0231689D01*
X0346509Y0231706D01*
X0346554Y0231718D01*
X0346600Y0231727D01*
X0346646Y0231732D01*
X0346693Y0231733D01*
X0346739Y0231730D01*
X0346785Y0231723D01*
X0346831Y0231712D01*
X0346875Y0231698D01*
X0346918Y0231680D01*
X0346959Y0231658D01*
X0346999Y0231633D01*
X0347036Y0231605D01*
X0347071Y0231574D01*
X0347103Y0231540D01*
X0347132Y0231503D01*
X0347157Y0231465D01*
X0347180Y0231424D01*
X0347199Y0231381D01*
X0347214Y0231337D01*
X0347226Y0231292D01*
X0347234Y0231246D01*
X0347238Y0231199D01*
X0347238Y0231153D01*
X0347234Y0231106D01*
X0347226Y0231060D01*
X0347214Y0231015D01*
X0347199Y0230971D01*
X0347180Y0230928D01*
X0347157Y0230887D01*
X0347132Y0230849D01*
X0347103Y0230812D01*
X0347071Y0230778D01*
X0347036Y0230747D01*
X0346999Y0230719D01*
X0346960Y0230694D01*
X0346918Y0230672D01*
X0346875Y0230654D01*
X0346831Y0230640D01*
X0346785Y0230629D01*
X0346739Y0230622D01*
X0346693Y0230619D01*
X0346646Y0230620D01*
X0346600Y0230625D01*
X0346554Y0230634D01*
X0346509Y0230646D01*
X0346465Y0230663D01*
X0346423Y0230682D01*
X0346383Y0230706D01*
X0346344Y0230732D01*
X0346308Y0230762D01*
X0346275Y0230795D01*
X0346244Y0230830D01*
X0346217Y0230868D01*
X0346193Y0230908D01*
X0346172Y0230949D01*
X0346155Y0230993D01*
X0346141Y0231037D01*
X0346132Y0231083D01*
X0346126Y0231129D01*
X0346124Y0231176D01*
X0346124Y0263176D02*
X0346126Y0263223D01*
X0346132Y0263269D01*
X0346141Y0263315D01*
X0346155Y0263359D01*
X0346172Y0263403D01*
X0346193Y0263444D01*
X0346217Y0263484D01*
X0346244Y0263522D01*
X0346275Y0263557D01*
X0346308Y0263590D01*
X0346344Y0263620D01*
X0346383Y0263646D01*
X0346423Y0263670D01*
X0346465Y0263689D01*
X0346509Y0263706D01*
X0346554Y0263718D01*
X0346600Y0263727D01*
X0346646Y0263732D01*
X0346693Y0263733D01*
X0346739Y0263730D01*
X0346785Y0263723D01*
X0346831Y0263712D01*
X0346875Y0263698D01*
X0346918Y0263680D01*
X0346959Y0263658D01*
X0346999Y0263633D01*
X0347036Y0263605D01*
X0347071Y0263574D01*
X0347103Y0263540D01*
X0347132Y0263503D01*
X0347157Y0263465D01*
X0347180Y0263424D01*
X0347199Y0263381D01*
X0347214Y0263337D01*
X0347226Y0263292D01*
X0347234Y0263246D01*
X0347238Y0263199D01*
X0347238Y0263153D01*
X0347234Y0263106D01*
X0347226Y0263060D01*
X0347214Y0263015D01*
X0347199Y0262971D01*
X0347180Y0262928D01*
X0347157Y0262887D01*
X0347132Y0262849D01*
X0347103Y0262812D01*
X0347071Y0262778D01*
X0347036Y0262747D01*
X0346999Y0262719D01*
X0346960Y0262694D01*
X0346918Y0262672D01*
X0346875Y0262654D01*
X0346831Y0262640D01*
X0346785Y0262629D01*
X0346739Y0262622D01*
X0346693Y0262619D01*
X0346646Y0262620D01*
X0346600Y0262625D01*
X0346554Y0262634D01*
X0346509Y0262646D01*
X0346465Y0262663D01*
X0346423Y0262682D01*
X0346383Y0262706D01*
X0346344Y0262732D01*
X0346308Y0262762D01*
X0346275Y0262795D01*
X0346244Y0262830D01*
X0346217Y0262868D01*
X0346193Y0262908D01*
X0346172Y0262949D01*
X0346155Y0262993D01*
X0346141Y0263037D01*
X0346132Y0263083D01*
X0346126Y0263129D01*
X0346124Y0263176D01*
X0346124Y0295176D02*
X0346126Y0295223D01*
X0346132Y0295269D01*
X0346141Y0295315D01*
X0346155Y0295359D01*
X0346172Y0295403D01*
X0346193Y0295444D01*
X0346217Y0295484D01*
X0346244Y0295522D01*
X0346275Y0295557D01*
X0346308Y0295590D01*
X0346344Y0295620D01*
X0346383Y0295646D01*
X0346423Y0295670D01*
X0346465Y0295689D01*
X0346509Y0295706D01*
X0346554Y0295718D01*
X0346600Y0295727D01*
X0346646Y0295732D01*
X0346693Y0295733D01*
X0346739Y0295730D01*
X0346785Y0295723D01*
X0346831Y0295712D01*
X0346875Y0295698D01*
X0346918Y0295680D01*
X0346959Y0295658D01*
X0346999Y0295633D01*
X0347036Y0295605D01*
X0347071Y0295574D01*
X0347103Y0295540D01*
X0347132Y0295503D01*
X0347157Y0295465D01*
X0347180Y0295424D01*
X0347199Y0295381D01*
X0347214Y0295337D01*
X0347226Y0295292D01*
X0347234Y0295246D01*
X0347238Y0295199D01*
X0347238Y0295153D01*
X0347234Y0295106D01*
X0347226Y0295060D01*
X0347214Y0295015D01*
X0347199Y0294971D01*
X0347180Y0294928D01*
X0347157Y0294887D01*
X0347132Y0294849D01*
X0347103Y0294812D01*
X0347071Y0294778D01*
X0347036Y0294747D01*
X0346999Y0294719D01*
X0346960Y0294694D01*
X0346918Y0294672D01*
X0346875Y0294654D01*
X0346831Y0294640D01*
X0346785Y0294629D01*
X0346739Y0294622D01*
X0346693Y0294619D01*
X0346646Y0294620D01*
X0346600Y0294625D01*
X0346554Y0294634D01*
X0346509Y0294646D01*
X0346465Y0294663D01*
X0346423Y0294682D01*
X0346383Y0294706D01*
X0346344Y0294732D01*
X0346308Y0294762D01*
X0346275Y0294795D01*
X0346244Y0294830D01*
X0346217Y0294868D01*
X0346193Y0294908D01*
X0346172Y0294949D01*
X0346155Y0294993D01*
X0346141Y0295037D01*
X0346132Y0295083D01*
X0346126Y0295129D01*
X0346124Y0295176D01*
X0346124Y0327176D02*
X0346126Y0327223D01*
X0346132Y0327269D01*
X0346141Y0327315D01*
X0346155Y0327359D01*
X0346172Y0327403D01*
X0346193Y0327444D01*
X0346217Y0327484D01*
X0346244Y0327522D01*
X0346275Y0327557D01*
X0346308Y0327590D01*
X0346344Y0327620D01*
X0346383Y0327646D01*
X0346423Y0327670D01*
X0346465Y0327689D01*
X0346509Y0327706D01*
X0346554Y0327718D01*
X0346600Y0327727D01*
X0346646Y0327732D01*
X0346693Y0327733D01*
X0346739Y0327730D01*
X0346785Y0327723D01*
X0346831Y0327712D01*
X0346875Y0327698D01*
X0346918Y0327680D01*
X0346959Y0327658D01*
X0346999Y0327633D01*
X0347036Y0327605D01*
X0347071Y0327574D01*
X0347103Y0327540D01*
X0347132Y0327503D01*
X0347157Y0327465D01*
X0347180Y0327424D01*
X0347199Y0327381D01*
X0347214Y0327337D01*
X0347226Y0327292D01*
X0347234Y0327246D01*
X0347238Y0327199D01*
X0347238Y0327153D01*
X0347234Y0327106D01*
X0347226Y0327060D01*
X0347214Y0327015D01*
X0347199Y0326971D01*
X0347180Y0326928D01*
X0347157Y0326887D01*
X0347132Y0326849D01*
X0347103Y0326812D01*
X0347071Y0326778D01*
X0347036Y0326747D01*
X0346999Y0326719D01*
X0346960Y0326694D01*
X0346918Y0326672D01*
X0346875Y0326654D01*
X0346831Y0326640D01*
X0346785Y0326629D01*
X0346739Y0326622D01*
X0346693Y0326619D01*
X0346646Y0326620D01*
X0346600Y0326625D01*
X0346554Y0326634D01*
X0346509Y0326646D01*
X0346465Y0326663D01*
X0346423Y0326682D01*
X0346383Y0326706D01*
X0346344Y0326732D01*
X0346308Y0326762D01*
X0346275Y0326795D01*
X0346244Y0326830D01*
X0346217Y0326868D01*
X0346193Y0326908D01*
X0346172Y0326949D01*
X0346155Y0326993D01*
X0346141Y0327037D01*
X0346132Y0327083D01*
X0346126Y0327129D01*
X0346124Y0327176D01*
X0301762Y0307491D02*
X0301764Y0307538D01*
X0301770Y0307584D01*
X0301779Y0307630D01*
X0301793Y0307674D01*
X0301810Y0307718D01*
X0301831Y0307759D01*
X0301855Y0307799D01*
X0301882Y0307837D01*
X0301913Y0307872D01*
X0301946Y0307905D01*
X0301982Y0307935D01*
X0302021Y0307961D01*
X0302061Y0307985D01*
X0302103Y0308004D01*
X0302147Y0308021D01*
X0302192Y0308033D01*
X0302238Y0308042D01*
X0302284Y0308047D01*
X0302331Y0308048D01*
X0302377Y0308045D01*
X0302423Y0308038D01*
X0302469Y0308027D01*
X0302513Y0308013D01*
X0302556Y0307995D01*
X0302597Y0307973D01*
X0302637Y0307948D01*
X0302674Y0307920D01*
X0302709Y0307889D01*
X0302741Y0307855D01*
X0302770Y0307818D01*
X0302795Y0307780D01*
X0302818Y0307739D01*
X0302837Y0307696D01*
X0302852Y0307652D01*
X0302864Y0307607D01*
X0302872Y0307561D01*
X0302876Y0307514D01*
X0302876Y0307468D01*
X0302872Y0307421D01*
X0302864Y0307375D01*
X0302852Y0307330D01*
X0302837Y0307286D01*
X0302818Y0307243D01*
X0302795Y0307202D01*
X0302770Y0307164D01*
X0302741Y0307127D01*
X0302709Y0307093D01*
X0302674Y0307062D01*
X0302637Y0307034D01*
X0302598Y0307009D01*
X0302556Y0306987D01*
X0302513Y0306969D01*
X0302469Y0306955D01*
X0302423Y0306944D01*
X0302377Y0306937D01*
X0302331Y0306934D01*
X0302284Y0306935D01*
X0302238Y0306940D01*
X0302192Y0306949D01*
X0302147Y0306961D01*
X0302103Y0306978D01*
X0302061Y0306997D01*
X0302021Y0307021D01*
X0301982Y0307047D01*
X0301946Y0307077D01*
X0301913Y0307110D01*
X0301882Y0307145D01*
X0301855Y0307183D01*
X0301831Y0307223D01*
X0301810Y0307264D01*
X0301793Y0307308D01*
X0301779Y0307352D01*
X0301770Y0307398D01*
X0301764Y0307444D01*
X0301762Y0307491D01*
X0301762Y0275491D02*
X0301764Y0275538D01*
X0301770Y0275584D01*
X0301779Y0275630D01*
X0301793Y0275674D01*
X0301810Y0275718D01*
X0301831Y0275759D01*
X0301855Y0275799D01*
X0301882Y0275837D01*
X0301913Y0275872D01*
X0301946Y0275905D01*
X0301982Y0275935D01*
X0302021Y0275961D01*
X0302061Y0275985D01*
X0302103Y0276004D01*
X0302147Y0276021D01*
X0302192Y0276033D01*
X0302238Y0276042D01*
X0302284Y0276047D01*
X0302331Y0276048D01*
X0302377Y0276045D01*
X0302423Y0276038D01*
X0302469Y0276027D01*
X0302513Y0276013D01*
X0302556Y0275995D01*
X0302597Y0275973D01*
X0302637Y0275948D01*
X0302674Y0275920D01*
X0302709Y0275889D01*
X0302741Y0275855D01*
X0302770Y0275818D01*
X0302795Y0275780D01*
X0302818Y0275739D01*
X0302837Y0275696D01*
X0302852Y0275652D01*
X0302864Y0275607D01*
X0302872Y0275561D01*
X0302876Y0275514D01*
X0302876Y0275468D01*
X0302872Y0275421D01*
X0302864Y0275375D01*
X0302852Y0275330D01*
X0302837Y0275286D01*
X0302818Y0275243D01*
X0302795Y0275202D01*
X0302770Y0275164D01*
X0302741Y0275127D01*
X0302709Y0275093D01*
X0302674Y0275062D01*
X0302637Y0275034D01*
X0302598Y0275009D01*
X0302556Y0274987D01*
X0302513Y0274969D01*
X0302469Y0274955D01*
X0302423Y0274944D01*
X0302377Y0274937D01*
X0302331Y0274934D01*
X0302284Y0274935D01*
X0302238Y0274940D01*
X0302192Y0274949D01*
X0302147Y0274961D01*
X0302103Y0274978D01*
X0302061Y0274997D01*
X0302021Y0275021D01*
X0301982Y0275047D01*
X0301946Y0275077D01*
X0301913Y0275110D01*
X0301882Y0275145D01*
X0301855Y0275183D01*
X0301831Y0275223D01*
X0301810Y0275264D01*
X0301793Y0275308D01*
X0301779Y0275352D01*
X0301770Y0275398D01*
X0301764Y0275444D01*
X0301762Y0275491D01*
X0301762Y0243491D02*
X0301764Y0243538D01*
X0301770Y0243584D01*
X0301779Y0243630D01*
X0301793Y0243674D01*
X0301810Y0243718D01*
X0301831Y0243759D01*
X0301855Y0243799D01*
X0301882Y0243837D01*
X0301913Y0243872D01*
X0301946Y0243905D01*
X0301982Y0243935D01*
X0302021Y0243961D01*
X0302061Y0243985D01*
X0302103Y0244004D01*
X0302147Y0244021D01*
X0302192Y0244033D01*
X0302238Y0244042D01*
X0302284Y0244047D01*
X0302331Y0244048D01*
X0302377Y0244045D01*
X0302423Y0244038D01*
X0302469Y0244027D01*
X0302513Y0244013D01*
X0302556Y0243995D01*
X0302597Y0243973D01*
X0302637Y0243948D01*
X0302674Y0243920D01*
X0302709Y0243889D01*
X0302741Y0243855D01*
X0302770Y0243818D01*
X0302795Y0243780D01*
X0302818Y0243739D01*
X0302837Y0243696D01*
X0302852Y0243652D01*
X0302864Y0243607D01*
X0302872Y0243561D01*
X0302876Y0243514D01*
X0302876Y0243468D01*
X0302872Y0243421D01*
X0302864Y0243375D01*
X0302852Y0243330D01*
X0302837Y0243286D01*
X0302818Y0243243D01*
X0302795Y0243202D01*
X0302770Y0243164D01*
X0302741Y0243127D01*
X0302709Y0243093D01*
X0302674Y0243062D01*
X0302637Y0243034D01*
X0302598Y0243009D01*
X0302556Y0242987D01*
X0302513Y0242969D01*
X0302469Y0242955D01*
X0302423Y0242944D01*
X0302377Y0242937D01*
X0302331Y0242934D01*
X0302284Y0242935D01*
X0302238Y0242940D01*
X0302192Y0242949D01*
X0302147Y0242961D01*
X0302103Y0242978D01*
X0302061Y0242997D01*
X0302021Y0243021D01*
X0301982Y0243047D01*
X0301946Y0243077D01*
X0301913Y0243110D01*
X0301882Y0243145D01*
X0301855Y0243183D01*
X0301831Y0243223D01*
X0301810Y0243264D01*
X0301793Y0243308D01*
X0301779Y0243352D01*
X0301770Y0243398D01*
X0301764Y0243444D01*
X0301762Y0243491D01*
X0301762Y0211491D02*
X0301764Y0211538D01*
X0301770Y0211584D01*
X0301779Y0211630D01*
X0301793Y0211674D01*
X0301810Y0211718D01*
X0301831Y0211759D01*
X0301855Y0211799D01*
X0301882Y0211837D01*
X0301913Y0211872D01*
X0301946Y0211905D01*
X0301982Y0211935D01*
X0302021Y0211961D01*
X0302061Y0211985D01*
X0302103Y0212004D01*
X0302147Y0212021D01*
X0302192Y0212033D01*
X0302238Y0212042D01*
X0302284Y0212047D01*
X0302331Y0212048D01*
X0302377Y0212045D01*
X0302423Y0212038D01*
X0302469Y0212027D01*
X0302513Y0212013D01*
X0302556Y0211995D01*
X0302597Y0211973D01*
X0302637Y0211948D01*
X0302674Y0211920D01*
X0302709Y0211889D01*
X0302741Y0211855D01*
X0302770Y0211818D01*
X0302795Y0211780D01*
X0302818Y0211739D01*
X0302837Y0211696D01*
X0302852Y0211652D01*
X0302864Y0211607D01*
X0302872Y0211561D01*
X0302876Y0211514D01*
X0302876Y0211468D01*
X0302872Y0211421D01*
X0302864Y0211375D01*
X0302852Y0211330D01*
X0302837Y0211286D01*
X0302818Y0211243D01*
X0302795Y0211202D01*
X0302770Y0211164D01*
X0302741Y0211127D01*
X0302709Y0211093D01*
X0302674Y0211062D01*
X0302637Y0211034D01*
X0302598Y0211009D01*
X0302556Y0210987D01*
X0302513Y0210969D01*
X0302469Y0210955D01*
X0302423Y0210944D01*
X0302377Y0210937D01*
X0302331Y0210934D01*
X0302284Y0210935D01*
X0302238Y0210940D01*
X0302192Y0210949D01*
X0302147Y0210961D01*
X0302103Y0210978D01*
X0302061Y0210997D01*
X0302021Y0211021D01*
X0301982Y0211047D01*
X0301946Y0211077D01*
X0301913Y0211110D01*
X0301882Y0211145D01*
X0301855Y0211183D01*
X0301831Y0211223D01*
X0301810Y0211264D01*
X0301793Y0211308D01*
X0301779Y0211352D01*
X0301770Y0211398D01*
X0301764Y0211444D01*
X0301762Y0211491D01*
X0301762Y0179491D02*
X0301764Y0179538D01*
X0301770Y0179584D01*
X0301779Y0179630D01*
X0301793Y0179674D01*
X0301810Y0179718D01*
X0301831Y0179759D01*
X0301855Y0179799D01*
X0301882Y0179837D01*
X0301913Y0179872D01*
X0301946Y0179905D01*
X0301982Y0179935D01*
X0302021Y0179961D01*
X0302061Y0179985D01*
X0302103Y0180004D01*
X0302147Y0180021D01*
X0302192Y0180033D01*
X0302238Y0180042D01*
X0302284Y0180047D01*
X0302331Y0180048D01*
X0302377Y0180045D01*
X0302423Y0180038D01*
X0302469Y0180027D01*
X0302513Y0180013D01*
X0302556Y0179995D01*
X0302597Y0179973D01*
X0302637Y0179948D01*
X0302674Y0179920D01*
X0302709Y0179889D01*
X0302741Y0179855D01*
X0302770Y0179818D01*
X0302795Y0179780D01*
X0302818Y0179739D01*
X0302837Y0179696D01*
X0302852Y0179652D01*
X0302864Y0179607D01*
X0302872Y0179561D01*
X0302876Y0179514D01*
X0302876Y0179468D01*
X0302872Y0179421D01*
X0302864Y0179375D01*
X0302852Y0179330D01*
X0302837Y0179286D01*
X0302818Y0179243D01*
X0302795Y0179202D01*
X0302770Y0179164D01*
X0302741Y0179127D01*
X0302709Y0179093D01*
X0302674Y0179062D01*
X0302637Y0179034D01*
X0302598Y0179009D01*
X0302556Y0178987D01*
X0302513Y0178969D01*
X0302469Y0178955D01*
X0302423Y0178944D01*
X0302377Y0178937D01*
X0302331Y0178934D01*
X0302284Y0178935D01*
X0302238Y0178940D01*
X0302192Y0178949D01*
X0302147Y0178961D01*
X0302103Y0178978D01*
X0302061Y0178997D01*
X0302021Y0179021D01*
X0301982Y0179047D01*
X0301946Y0179077D01*
X0301913Y0179110D01*
X0301882Y0179145D01*
X0301855Y0179183D01*
X0301831Y0179223D01*
X0301810Y0179264D01*
X0301793Y0179308D01*
X0301779Y0179352D01*
X0301770Y0179398D01*
X0301764Y0179444D01*
X0301762Y0179491D01*
X0301762Y0147491D02*
X0301764Y0147538D01*
X0301770Y0147584D01*
X0301779Y0147630D01*
X0301793Y0147674D01*
X0301810Y0147718D01*
X0301831Y0147759D01*
X0301855Y0147799D01*
X0301882Y0147837D01*
X0301913Y0147872D01*
X0301946Y0147905D01*
X0301982Y0147935D01*
X0302021Y0147961D01*
X0302061Y0147985D01*
X0302103Y0148004D01*
X0302147Y0148021D01*
X0302192Y0148033D01*
X0302238Y0148042D01*
X0302284Y0148047D01*
X0302331Y0148048D01*
X0302377Y0148045D01*
X0302423Y0148038D01*
X0302469Y0148027D01*
X0302513Y0148013D01*
X0302556Y0147995D01*
X0302597Y0147973D01*
X0302637Y0147948D01*
X0302674Y0147920D01*
X0302709Y0147889D01*
X0302741Y0147855D01*
X0302770Y0147818D01*
X0302795Y0147780D01*
X0302818Y0147739D01*
X0302837Y0147696D01*
X0302852Y0147652D01*
X0302864Y0147607D01*
X0302872Y0147561D01*
X0302876Y0147514D01*
X0302876Y0147468D01*
X0302872Y0147421D01*
X0302864Y0147375D01*
X0302852Y0147330D01*
X0302837Y0147286D01*
X0302818Y0147243D01*
X0302795Y0147202D01*
X0302770Y0147164D01*
X0302741Y0147127D01*
X0302709Y0147093D01*
X0302674Y0147062D01*
X0302637Y0147034D01*
X0302598Y0147009D01*
X0302556Y0146987D01*
X0302513Y0146969D01*
X0302469Y0146955D01*
X0302423Y0146944D01*
X0302377Y0146937D01*
X0302331Y0146934D01*
X0302284Y0146935D01*
X0302238Y0146940D01*
X0302192Y0146949D01*
X0302147Y0146961D01*
X0302103Y0146978D01*
X0302061Y0146997D01*
X0302021Y0147021D01*
X0301982Y0147047D01*
X0301946Y0147077D01*
X0301913Y0147110D01*
X0301882Y0147145D01*
X0301855Y0147183D01*
X0301831Y0147223D01*
X0301810Y0147264D01*
X0301793Y0147308D01*
X0301779Y0147352D01*
X0301770Y0147398D01*
X0301764Y0147444D01*
X0301762Y0147491D01*
X0301762Y0115491D02*
X0301764Y0115538D01*
X0301770Y0115584D01*
X0301779Y0115630D01*
X0301793Y0115674D01*
X0301810Y0115718D01*
X0301831Y0115759D01*
X0301855Y0115799D01*
X0301882Y0115837D01*
X0301913Y0115872D01*
X0301946Y0115905D01*
X0301982Y0115935D01*
X0302021Y0115961D01*
X0302061Y0115985D01*
X0302103Y0116004D01*
X0302147Y0116021D01*
X0302192Y0116033D01*
X0302238Y0116042D01*
X0302284Y0116047D01*
X0302331Y0116048D01*
X0302377Y0116045D01*
X0302423Y0116038D01*
X0302469Y0116027D01*
X0302513Y0116013D01*
X0302556Y0115995D01*
X0302597Y0115973D01*
X0302637Y0115948D01*
X0302674Y0115920D01*
X0302709Y0115889D01*
X0302741Y0115855D01*
X0302770Y0115818D01*
X0302795Y0115780D01*
X0302818Y0115739D01*
X0302837Y0115696D01*
X0302852Y0115652D01*
X0302864Y0115607D01*
X0302872Y0115561D01*
X0302876Y0115514D01*
X0302876Y0115468D01*
X0302872Y0115421D01*
X0302864Y0115375D01*
X0302852Y0115330D01*
X0302837Y0115286D01*
X0302818Y0115243D01*
X0302795Y0115202D01*
X0302770Y0115164D01*
X0302741Y0115127D01*
X0302709Y0115093D01*
X0302674Y0115062D01*
X0302637Y0115034D01*
X0302598Y0115009D01*
X0302556Y0114987D01*
X0302513Y0114969D01*
X0302469Y0114955D01*
X0302423Y0114944D01*
X0302377Y0114937D01*
X0302331Y0114934D01*
X0302284Y0114935D01*
X0302238Y0114940D01*
X0302192Y0114949D01*
X0302147Y0114961D01*
X0302103Y0114978D01*
X0302061Y0114997D01*
X0302021Y0115021D01*
X0301982Y0115047D01*
X0301946Y0115077D01*
X0301913Y0115110D01*
X0301882Y0115145D01*
X0301855Y0115183D01*
X0301831Y0115223D01*
X0301810Y0115264D01*
X0301793Y0115308D01*
X0301779Y0115352D01*
X0301770Y0115398D01*
X0301764Y0115444D01*
X0301762Y0115491D01*
X0301762Y0083491D02*
X0301764Y0083538D01*
X0301770Y0083584D01*
X0301779Y0083630D01*
X0301793Y0083674D01*
X0301810Y0083718D01*
X0301831Y0083759D01*
X0301855Y0083799D01*
X0301882Y0083837D01*
X0301913Y0083872D01*
X0301946Y0083905D01*
X0301982Y0083935D01*
X0302021Y0083961D01*
X0302061Y0083985D01*
X0302103Y0084004D01*
X0302147Y0084021D01*
X0302192Y0084033D01*
X0302238Y0084042D01*
X0302284Y0084047D01*
X0302331Y0084048D01*
X0302377Y0084045D01*
X0302423Y0084038D01*
X0302469Y0084027D01*
X0302513Y0084013D01*
X0302556Y0083995D01*
X0302597Y0083973D01*
X0302637Y0083948D01*
X0302674Y0083920D01*
X0302709Y0083889D01*
X0302741Y0083855D01*
X0302770Y0083818D01*
X0302795Y0083780D01*
X0302818Y0083739D01*
X0302837Y0083696D01*
X0302852Y0083652D01*
X0302864Y0083607D01*
X0302872Y0083561D01*
X0302876Y0083514D01*
X0302876Y0083468D01*
X0302872Y0083421D01*
X0302864Y0083375D01*
X0302852Y0083330D01*
X0302837Y0083286D01*
X0302818Y0083243D01*
X0302795Y0083202D01*
X0302770Y0083164D01*
X0302741Y0083127D01*
X0302709Y0083093D01*
X0302674Y0083062D01*
X0302637Y0083034D01*
X0302598Y0083009D01*
X0302556Y0082987D01*
X0302513Y0082969D01*
X0302469Y0082955D01*
X0302423Y0082944D01*
X0302377Y0082937D01*
X0302331Y0082934D01*
X0302284Y0082935D01*
X0302238Y0082940D01*
X0302192Y0082949D01*
X0302147Y0082961D01*
X0302103Y0082978D01*
X0302061Y0082997D01*
X0302021Y0083021D01*
X0301982Y0083047D01*
X0301946Y0083077D01*
X0301913Y0083110D01*
X0301882Y0083145D01*
X0301855Y0083183D01*
X0301831Y0083223D01*
X0301810Y0083264D01*
X0301793Y0083308D01*
X0301779Y0083352D01*
X0301770Y0083398D01*
X0301764Y0083444D01*
X0301762Y0083491D01*
X0254124Y0103176D02*
X0254126Y0103223D01*
X0254132Y0103269D01*
X0254141Y0103315D01*
X0254155Y0103359D01*
X0254172Y0103403D01*
X0254193Y0103444D01*
X0254217Y0103484D01*
X0254244Y0103522D01*
X0254275Y0103557D01*
X0254308Y0103590D01*
X0254344Y0103620D01*
X0254383Y0103646D01*
X0254423Y0103670D01*
X0254465Y0103689D01*
X0254509Y0103706D01*
X0254554Y0103718D01*
X0254600Y0103727D01*
X0254646Y0103732D01*
X0254693Y0103733D01*
X0254739Y0103730D01*
X0254785Y0103723D01*
X0254831Y0103712D01*
X0254875Y0103698D01*
X0254918Y0103680D01*
X0254959Y0103658D01*
X0254999Y0103633D01*
X0255036Y0103605D01*
X0255071Y0103574D01*
X0255103Y0103540D01*
X0255132Y0103503D01*
X0255157Y0103465D01*
X0255180Y0103424D01*
X0255199Y0103381D01*
X0255214Y0103337D01*
X0255226Y0103292D01*
X0255234Y0103246D01*
X0255238Y0103199D01*
X0255238Y0103153D01*
X0255234Y0103106D01*
X0255226Y0103060D01*
X0255214Y0103015D01*
X0255199Y0102971D01*
X0255180Y0102928D01*
X0255157Y0102887D01*
X0255132Y0102849D01*
X0255103Y0102812D01*
X0255071Y0102778D01*
X0255036Y0102747D01*
X0254999Y0102719D01*
X0254960Y0102694D01*
X0254918Y0102672D01*
X0254875Y0102654D01*
X0254831Y0102640D01*
X0254785Y0102629D01*
X0254739Y0102622D01*
X0254693Y0102619D01*
X0254646Y0102620D01*
X0254600Y0102625D01*
X0254554Y0102634D01*
X0254509Y0102646D01*
X0254465Y0102663D01*
X0254423Y0102682D01*
X0254383Y0102706D01*
X0254344Y0102732D01*
X0254308Y0102762D01*
X0254275Y0102795D01*
X0254244Y0102830D01*
X0254217Y0102868D01*
X0254193Y0102908D01*
X0254172Y0102949D01*
X0254155Y0102993D01*
X0254141Y0103037D01*
X0254132Y0103083D01*
X0254126Y0103129D01*
X0254124Y0103176D01*
X0254124Y0135176D02*
X0254126Y0135223D01*
X0254132Y0135269D01*
X0254141Y0135315D01*
X0254155Y0135359D01*
X0254172Y0135403D01*
X0254193Y0135444D01*
X0254217Y0135484D01*
X0254244Y0135522D01*
X0254275Y0135557D01*
X0254308Y0135590D01*
X0254344Y0135620D01*
X0254383Y0135646D01*
X0254423Y0135670D01*
X0254465Y0135689D01*
X0254509Y0135706D01*
X0254554Y0135718D01*
X0254600Y0135727D01*
X0254646Y0135732D01*
X0254693Y0135733D01*
X0254739Y0135730D01*
X0254785Y0135723D01*
X0254831Y0135712D01*
X0254875Y0135698D01*
X0254918Y0135680D01*
X0254959Y0135658D01*
X0254999Y0135633D01*
X0255036Y0135605D01*
X0255071Y0135574D01*
X0255103Y0135540D01*
X0255132Y0135503D01*
X0255157Y0135465D01*
X0255180Y0135424D01*
X0255199Y0135381D01*
X0255214Y0135337D01*
X0255226Y0135292D01*
X0255234Y0135246D01*
X0255238Y0135199D01*
X0255238Y0135153D01*
X0255234Y0135106D01*
X0255226Y0135060D01*
X0255214Y0135015D01*
X0255199Y0134971D01*
X0255180Y0134928D01*
X0255157Y0134887D01*
X0255132Y0134849D01*
X0255103Y0134812D01*
X0255071Y0134778D01*
X0255036Y0134747D01*
X0254999Y0134719D01*
X0254960Y0134694D01*
X0254918Y0134672D01*
X0254875Y0134654D01*
X0254831Y0134640D01*
X0254785Y0134629D01*
X0254739Y0134622D01*
X0254693Y0134619D01*
X0254646Y0134620D01*
X0254600Y0134625D01*
X0254554Y0134634D01*
X0254509Y0134646D01*
X0254465Y0134663D01*
X0254423Y0134682D01*
X0254383Y0134706D01*
X0254344Y0134732D01*
X0254308Y0134762D01*
X0254275Y0134795D01*
X0254244Y0134830D01*
X0254217Y0134868D01*
X0254193Y0134908D01*
X0254172Y0134949D01*
X0254155Y0134993D01*
X0254141Y0135037D01*
X0254132Y0135083D01*
X0254126Y0135129D01*
X0254124Y0135176D01*
X0254124Y0167176D02*
X0254126Y0167223D01*
X0254132Y0167269D01*
X0254141Y0167315D01*
X0254155Y0167359D01*
X0254172Y0167403D01*
X0254193Y0167444D01*
X0254217Y0167484D01*
X0254244Y0167522D01*
X0254275Y0167557D01*
X0254308Y0167590D01*
X0254344Y0167620D01*
X0254383Y0167646D01*
X0254423Y0167670D01*
X0254465Y0167689D01*
X0254509Y0167706D01*
X0254554Y0167718D01*
X0254600Y0167727D01*
X0254646Y0167732D01*
X0254693Y0167733D01*
X0254739Y0167730D01*
X0254785Y0167723D01*
X0254831Y0167712D01*
X0254875Y0167698D01*
X0254918Y0167680D01*
X0254959Y0167658D01*
X0254999Y0167633D01*
X0255036Y0167605D01*
X0255071Y0167574D01*
X0255103Y0167540D01*
X0255132Y0167503D01*
X0255157Y0167465D01*
X0255180Y0167424D01*
X0255199Y0167381D01*
X0255214Y0167337D01*
X0255226Y0167292D01*
X0255234Y0167246D01*
X0255238Y0167199D01*
X0255238Y0167153D01*
X0255234Y0167106D01*
X0255226Y0167060D01*
X0255214Y0167015D01*
X0255199Y0166971D01*
X0255180Y0166928D01*
X0255157Y0166887D01*
X0255132Y0166849D01*
X0255103Y0166812D01*
X0255071Y0166778D01*
X0255036Y0166747D01*
X0254999Y0166719D01*
X0254960Y0166694D01*
X0254918Y0166672D01*
X0254875Y0166654D01*
X0254831Y0166640D01*
X0254785Y0166629D01*
X0254739Y0166622D01*
X0254693Y0166619D01*
X0254646Y0166620D01*
X0254600Y0166625D01*
X0254554Y0166634D01*
X0254509Y0166646D01*
X0254465Y0166663D01*
X0254423Y0166682D01*
X0254383Y0166706D01*
X0254344Y0166732D01*
X0254308Y0166762D01*
X0254275Y0166795D01*
X0254244Y0166830D01*
X0254217Y0166868D01*
X0254193Y0166908D01*
X0254172Y0166949D01*
X0254155Y0166993D01*
X0254141Y0167037D01*
X0254132Y0167083D01*
X0254126Y0167129D01*
X0254124Y0167176D01*
X0254124Y0199176D02*
X0254126Y0199223D01*
X0254132Y0199269D01*
X0254141Y0199315D01*
X0254155Y0199359D01*
X0254172Y0199403D01*
X0254193Y0199444D01*
X0254217Y0199484D01*
X0254244Y0199522D01*
X0254275Y0199557D01*
X0254308Y0199590D01*
X0254344Y0199620D01*
X0254383Y0199646D01*
X0254423Y0199670D01*
X0254465Y0199689D01*
X0254509Y0199706D01*
X0254554Y0199718D01*
X0254600Y0199727D01*
X0254646Y0199732D01*
X0254693Y0199733D01*
X0254739Y0199730D01*
X0254785Y0199723D01*
X0254831Y0199712D01*
X0254875Y0199698D01*
X0254918Y0199680D01*
X0254959Y0199658D01*
X0254999Y0199633D01*
X0255036Y0199605D01*
X0255071Y0199574D01*
X0255103Y0199540D01*
X0255132Y0199503D01*
X0255157Y0199465D01*
X0255180Y0199424D01*
X0255199Y0199381D01*
X0255214Y0199337D01*
X0255226Y0199292D01*
X0255234Y0199246D01*
X0255238Y0199199D01*
X0255238Y0199153D01*
X0255234Y0199106D01*
X0255226Y0199060D01*
X0255214Y0199015D01*
X0255199Y0198971D01*
X0255180Y0198928D01*
X0255157Y0198887D01*
X0255132Y0198849D01*
X0255103Y0198812D01*
X0255071Y0198778D01*
X0255036Y0198747D01*
X0254999Y0198719D01*
X0254960Y0198694D01*
X0254918Y0198672D01*
X0254875Y0198654D01*
X0254831Y0198640D01*
X0254785Y0198629D01*
X0254739Y0198622D01*
X0254693Y0198619D01*
X0254646Y0198620D01*
X0254600Y0198625D01*
X0254554Y0198634D01*
X0254509Y0198646D01*
X0254465Y0198663D01*
X0254423Y0198682D01*
X0254383Y0198706D01*
X0254344Y0198732D01*
X0254308Y0198762D01*
X0254275Y0198795D01*
X0254244Y0198830D01*
X0254217Y0198868D01*
X0254193Y0198908D01*
X0254172Y0198949D01*
X0254155Y0198993D01*
X0254141Y0199037D01*
X0254132Y0199083D01*
X0254126Y0199129D01*
X0254124Y0199176D01*
X0254124Y0231176D02*
X0254126Y0231223D01*
X0254132Y0231269D01*
X0254141Y0231315D01*
X0254155Y0231359D01*
X0254172Y0231403D01*
X0254193Y0231444D01*
X0254217Y0231484D01*
X0254244Y0231522D01*
X0254275Y0231557D01*
X0254308Y0231590D01*
X0254344Y0231620D01*
X0254383Y0231646D01*
X0254423Y0231670D01*
X0254465Y0231689D01*
X0254509Y0231706D01*
X0254554Y0231718D01*
X0254600Y0231727D01*
X0254646Y0231732D01*
X0254693Y0231733D01*
X0254739Y0231730D01*
X0254785Y0231723D01*
X0254831Y0231712D01*
X0254875Y0231698D01*
X0254918Y0231680D01*
X0254959Y0231658D01*
X0254999Y0231633D01*
X0255036Y0231605D01*
X0255071Y0231574D01*
X0255103Y0231540D01*
X0255132Y0231503D01*
X0255157Y0231465D01*
X0255180Y0231424D01*
X0255199Y0231381D01*
X0255214Y0231337D01*
X0255226Y0231292D01*
X0255234Y0231246D01*
X0255238Y0231199D01*
X0255238Y0231153D01*
X0255234Y0231106D01*
X0255226Y0231060D01*
X0255214Y0231015D01*
X0255199Y0230971D01*
X0255180Y0230928D01*
X0255157Y0230887D01*
X0255132Y0230849D01*
X0255103Y0230812D01*
X0255071Y0230778D01*
X0255036Y0230747D01*
X0254999Y0230719D01*
X0254960Y0230694D01*
X0254918Y0230672D01*
X0254875Y0230654D01*
X0254831Y0230640D01*
X0254785Y0230629D01*
X0254739Y0230622D01*
X0254693Y0230619D01*
X0254646Y0230620D01*
X0254600Y0230625D01*
X0254554Y0230634D01*
X0254509Y0230646D01*
X0254465Y0230663D01*
X0254423Y0230682D01*
X0254383Y0230706D01*
X0254344Y0230732D01*
X0254308Y0230762D01*
X0254275Y0230795D01*
X0254244Y0230830D01*
X0254217Y0230868D01*
X0254193Y0230908D01*
X0254172Y0230949D01*
X0254155Y0230993D01*
X0254141Y0231037D01*
X0254132Y0231083D01*
X0254126Y0231129D01*
X0254124Y0231176D01*
X0254124Y0263176D02*
X0254126Y0263223D01*
X0254132Y0263269D01*
X0254141Y0263315D01*
X0254155Y0263359D01*
X0254172Y0263403D01*
X0254193Y0263444D01*
X0254217Y0263484D01*
X0254244Y0263522D01*
X0254275Y0263557D01*
X0254308Y0263590D01*
X0254344Y0263620D01*
X0254383Y0263646D01*
X0254423Y0263670D01*
X0254465Y0263689D01*
X0254509Y0263706D01*
X0254554Y0263718D01*
X0254600Y0263727D01*
X0254646Y0263732D01*
X0254693Y0263733D01*
X0254739Y0263730D01*
X0254785Y0263723D01*
X0254831Y0263712D01*
X0254875Y0263698D01*
X0254918Y0263680D01*
X0254959Y0263658D01*
X0254999Y0263633D01*
X0255036Y0263605D01*
X0255071Y0263574D01*
X0255103Y0263540D01*
X0255132Y0263503D01*
X0255157Y0263465D01*
X0255180Y0263424D01*
X0255199Y0263381D01*
X0255214Y0263337D01*
X0255226Y0263292D01*
X0255234Y0263246D01*
X0255238Y0263199D01*
X0255238Y0263153D01*
X0255234Y0263106D01*
X0255226Y0263060D01*
X0255214Y0263015D01*
X0255199Y0262971D01*
X0255180Y0262928D01*
X0255157Y0262887D01*
X0255132Y0262849D01*
X0255103Y0262812D01*
X0255071Y0262778D01*
X0255036Y0262747D01*
X0254999Y0262719D01*
X0254960Y0262694D01*
X0254918Y0262672D01*
X0254875Y0262654D01*
X0254831Y0262640D01*
X0254785Y0262629D01*
X0254739Y0262622D01*
X0254693Y0262619D01*
X0254646Y0262620D01*
X0254600Y0262625D01*
X0254554Y0262634D01*
X0254509Y0262646D01*
X0254465Y0262663D01*
X0254423Y0262682D01*
X0254383Y0262706D01*
X0254344Y0262732D01*
X0254308Y0262762D01*
X0254275Y0262795D01*
X0254244Y0262830D01*
X0254217Y0262868D01*
X0254193Y0262908D01*
X0254172Y0262949D01*
X0254155Y0262993D01*
X0254141Y0263037D01*
X0254132Y0263083D01*
X0254126Y0263129D01*
X0254124Y0263176D01*
X0254124Y0295176D02*
X0254126Y0295223D01*
X0254132Y0295269D01*
X0254141Y0295315D01*
X0254155Y0295359D01*
X0254172Y0295403D01*
X0254193Y0295444D01*
X0254217Y0295484D01*
X0254244Y0295522D01*
X0254275Y0295557D01*
X0254308Y0295590D01*
X0254344Y0295620D01*
X0254383Y0295646D01*
X0254423Y0295670D01*
X0254465Y0295689D01*
X0254509Y0295706D01*
X0254554Y0295718D01*
X0254600Y0295727D01*
X0254646Y0295732D01*
X0254693Y0295733D01*
X0254739Y0295730D01*
X0254785Y0295723D01*
X0254831Y0295712D01*
X0254875Y0295698D01*
X0254918Y0295680D01*
X0254959Y0295658D01*
X0254999Y0295633D01*
X0255036Y0295605D01*
X0255071Y0295574D01*
X0255103Y0295540D01*
X0255132Y0295503D01*
X0255157Y0295465D01*
X0255180Y0295424D01*
X0255199Y0295381D01*
X0255214Y0295337D01*
X0255226Y0295292D01*
X0255234Y0295246D01*
X0255238Y0295199D01*
X0255238Y0295153D01*
X0255234Y0295106D01*
X0255226Y0295060D01*
X0255214Y0295015D01*
X0255199Y0294971D01*
X0255180Y0294928D01*
X0255157Y0294887D01*
X0255132Y0294849D01*
X0255103Y0294812D01*
X0255071Y0294778D01*
X0255036Y0294747D01*
X0254999Y0294719D01*
X0254960Y0294694D01*
X0254918Y0294672D01*
X0254875Y0294654D01*
X0254831Y0294640D01*
X0254785Y0294629D01*
X0254739Y0294622D01*
X0254693Y0294619D01*
X0254646Y0294620D01*
X0254600Y0294625D01*
X0254554Y0294634D01*
X0254509Y0294646D01*
X0254465Y0294663D01*
X0254423Y0294682D01*
X0254383Y0294706D01*
X0254344Y0294732D01*
X0254308Y0294762D01*
X0254275Y0294795D01*
X0254244Y0294830D01*
X0254217Y0294868D01*
X0254193Y0294908D01*
X0254172Y0294949D01*
X0254155Y0294993D01*
X0254141Y0295037D01*
X0254132Y0295083D01*
X0254126Y0295129D01*
X0254124Y0295176D01*
X0254124Y0327176D02*
X0254126Y0327223D01*
X0254132Y0327269D01*
X0254141Y0327315D01*
X0254155Y0327359D01*
X0254172Y0327403D01*
X0254193Y0327444D01*
X0254217Y0327484D01*
X0254244Y0327522D01*
X0254275Y0327557D01*
X0254308Y0327590D01*
X0254344Y0327620D01*
X0254383Y0327646D01*
X0254423Y0327670D01*
X0254465Y0327689D01*
X0254509Y0327706D01*
X0254554Y0327718D01*
X0254600Y0327727D01*
X0254646Y0327732D01*
X0254693Y0327733D01*
X0254739Y0327730D01*
X0254785Y0327723D01*
X0254831Y0327712D01*
X0254875Y0327698D01*
X0254918Y0327680D01*
X0254959Y0327658D01*
X0254999Y0327633D01*
X0255036Y0327605D01*
X0255071Y0327574D01*
X0255103Y0327540D01*
X0255132Y0327503D01*
X0255157Y0327465D01*
X0255180Y0327424D01*
X0255199Y0327381D01*
X0255214Y0327337D01*
X0255226Y0327292D01*
X0255234Y0327246D01*
X0255238Y0327199D01*
X0255238Y0327153D01*
X0255234Y0327106D01*
X0255226Y0327060D01*
X0255214Y0327015D01*
X0255199Y0326971D01*
X0255180Y0326928D01*
X0255157Y0326887D01*
X0255132Y0326849D01*
X0255103Y0326812D01*
X0255071Y0326778D01*
X0255036Y0326747D01*
X0254999Y0326719D01*
X0254960Y0326694D01*
X0254918Y0326672D01*
X0254875Y0326654D01*
X0254831Y0326640D01*
X0254785Y0326629D01*
X0254739Y0326622D01*
X0254693Y0326619D01*
X0254646Y0326620D01*
X0254600Y0326625D01*
X0254554Y0326634D01*
X0254509Y0326646D01*
X0254465Y0326663D01*
X0254423Y0326682D01*
X0254383Y0326706D01*
X0254344Y0326732D01*
X0254308Y0326762D01*
X0254275Y0326795D01*
X0254244Y0326830D01*
X0254217Y0326868D01*
X0254193Y0326908D01*
X0254172Y0326949D01*
X0254155Y0326993D01*
X0254141Y0327037D01*
X0254132Y0327083D01*
X0254126Y0327129D01*
X0254124Y0327176D01*
X0209762Y0307491D02*
X0209764Y0307538D01*
X0209770Y0307584D01*
X0209779Y0307630D01*
X0209793Y0307674D01*
X0209810Y0307718D01*
X0209831Y0307759D01*
X0209855Y0307799D01*
X0209882Y0307837D01*
X0209913Y0307872D01*
X0209946Y0307905D01*
X0209982Y0307935D01*
X0210021Y0307961D01*
X0210061Y0307985D01*
X0210103Y0308004D01*
X0210147Y0308021D01*
X0210192Y0308033D01*
X0210238Y0308042D01*
X0210284Y0308047D01*
X0210331Y0308048D01*
X0210377Y0308045D01*
X0210423Y0308038D01*
X0210469Y0308027D01*
X0210513Y0308013D01*
X0210556Y0307995D01*
X0210597Y0307973D01*
X0210637Y0307948D01*
X0210674Y0307920D01*
X0210709Y0307889D01*
X0210741Y0307855D01*
X0210770Y0307818D01*
X0210795Y0307780D01*
X0210818Y0307739D01*
X0210837Y0307696D01*
X0210852Y0307652D01*
X0210864Y0307607D01*
X0210872Y0307561D01*
X0210876Y0307514D01*
X0210876Y0307468D01*
X0210872Y0307421D01*
X0210864Y0307375D01*
X0210852Y0307330D01*
X0210837Y0307286D01*
X0210818Y0307243D01*
X0210795Y0307202D01*
X0210770Y0307164D01*
X0210741Y0307127D01*
X0210709Y0307093D01*
X0210674Y0307062D01*
X0210637Y0307034D01*
X0210598Y0307009D01*
X0210556Y0306987D01*
X0210513Y0306969D01*
X0210469Y0306955D01*
X0210423Y0306944D01*
X0210377Y0306937D01*
X0210331Y0306934D01*
X0210284Y0306935D01*
X0210238Y0306940D01*
X0210192Y0306949D01*
X0210147Y0306961D01*
X0210103Y0306978D01*
X0210061Y0306997D01*
X0210021Y0307021D01*
X0209982Y0307047D01*
X0209946Y0307077D01*
X0209913Y0307110D01*
X0209882Y0307145D01*
X0209855Y0307183D01*
X0209831Y0307223D01*
X0209810Y0307264D01*
X0209793Y0307308D01*
X0209779Y0307352D01*
X0209770Y0307398D01*
X0209764Y0307444D01*
X0209762Y0307491D01*
X0209762Y0275491D02*
X0209764Y0275538D01*
X0209770Y0275584D01*
X0209779Y0275630D01*
X0209793Y0275674D01*
X0209810Y0275718D01*
X0209831Y0275759D01*
X0209855Y0275799D01*
X0209882Y0275837D01*
X0209913Y0275872D01*
X0209946Y0275905D01*
X0209982Y0275935D01*
X0210021Y0275961D01*
X0210061Y0275985D01*
X0210103Y0276004D01*
X0210147Y0276021D01*
X0210192Y0276033D01*
X0210238Y0276042D01*
X0210284Y0276047D01*
X0210331Y0276048D01*
X0210377Y0276045D01*
X0210423Y0276038D01*
X0210469Y0276027D01*
X0210513Y0276013D01*
X0210556Y0275995D01*
X0210597Y0275973D01*
X0210637Y0275948D01*
X0210674Y0275920D01*
X0210709Y0275889D01*
X0210741Y0275855D01*
X0210770Y0275818D01*
X0210795Y0275780D01*
X0210818Y0275739D01*
X0210837Y0275696D01*
X0210852Y0275652D01*
X0210864Y0275607D01*
X0210872Y0275561D01*
X0210876Y0275514D01*
X0210876Y0275468D01*
X0210872Y0275421D01*
X0210864Y0275375D01*
X0210852Y0275330D01*
X0210837Y0275286D01*
X0210818Y0275243D01*
X0210795Y0275202D01*
X0210770Y0275164D01*
X0210741Y0275127D01*
X0210709Y0275093D01*
X0210674Y0275062D01*
X0210637Y0275034D01*
X0210598Y0275009D01*
X0210556Y0274987D01*
X0210513Y0274969D01*
X0210469Y0274955D01*
X0210423Y0274944D01*
X0210377Y0274937D01*
X0210331Y0274934D01*
X0210284Y0274935D01*
X0210238Y0274940D01*
X0210192Y0274949D01*
X0210147Y0274961D01*
X0210103Y0274978D01*
X0210061Y0274997D01*
X0210021Y0275021D01*
X0209982Y0275047D01*
X0209946Y0275077D01*
X0209913Y0275110D01*
X0209882Y0275145D01*
X0209855Y0275183D01*
X0209831Y0275223D01*
X0209810Y0275264D01*
X0209793Y0275308D01*
X0209779Y0275352D01*
X0209770Y0275398D01*
X0209764Y0275444D01*
X0209762Y0275491D01*
X0209762Y0243491D02*
X0209764Y0243538D01*
X0209770Y0243584D01*
X0209779Y0243630D01*
X0209793Y0243674D01*
X0209810Y0243718D01*
X0209831Y0243759D01*
X0209855Y0243799D01*
X0209882Y0243837D01*
X0209913Y0243872D01*
X0209946Y0243905D01*
X0209982Y0243935D01*
X0210021Y0243961D01*
X0210061Y0243985D01*
X0210103Y0244004D01*
X0210147Y0244021D01*
X0210192Y0244033D01*
X0210238Y0244042D01*
X0210284Y0244047D01*
X0210331Y0244048D01*
X0210377Y0244045D01*
X0210423Y0244038D01*
X0210469Y0244027D01*
X0210513Y0244013D01*
X0210556Y0243995D01*
X0210597Y0243973D01*
X0210637Y0243948D01*
X0210674Y0243920D01*
X0210709Y0243889D01*
X0210741Y0243855D01*
X0210770Y0243818D01*
X0210795Y0243780D01*
X0210818Y0243739D01*
X0210837Y0243696D01*
X0210852Y0243652D01*
X0210864Y0243607D01*
X0210872Y0243561D01*
X0210876Y0243514D01*
X0210876Y0243468D01*
X0210872Y0243421D01*
X0210864Y0243375D01*
X0210852Y0243330D01*
X0210837Y0243286D01*
X0210818Y0243243D01*
X0210795Y0243202D01*
X0210770Y0243164D01*
X0210741Y0243127D01*
X0210709Y0243093D01*
X0210674Y0243062D01*
X0210637Y0243034D01*
X0210598Y0243009D01*
X0210556Y0242987D01*
X0210513Y0242969D01*
X0210469Y0242955D01*
X0210423Y0242944D01*
X0210377Y0242937D01*
X0210331Y0242934D01*
X0210284Y0242935D01*
X0210238Y0242940D01*
X0210192Y0242949D01*
X0210147Y0242961D01*
X0210103Y0242978D01*
X0210061Y0242997D01*
X0210021Y0243021D01*
X0209982Y0243047D01*
X0209946Y0243077D01*
X0209913Y0243110D01*
X0209882Y0243145D01*
X0209855Y0243183D01*
X0209831Y0243223D01*
X0209810Y0243264D01*
X0209793Y0243308D01*
X0209779Y0243352D01*
X0209770Y0243398D01*
X0209764Y0243444D01*
X0209762Y0243491D01*
X0209762Y0211491D02*
X0209764Y0211538D01*
X0209770Y0211584D01*
X0209779Y0211630D01*
X0209793Y0211674D01*
X0209810Y0211718D01*
X0209831Y0211759D01*
X0209855Y0211799D01*
X0209882Y0211837D01*
X0209913Y0211872D01*
X0209946Y0211905D01*
X0209982Y0211935D01*
X0210021Y0211961D01*
X0210061Y0211985D01*
X0210103Y0212004D01*
X0210147Y0212021D01*
X0210192Y0212033D01*
X0210238Y0212042D01*
X0210284Y0212047D01*
X0210331Y0212048D01*
X0210377Y0212045D01*
X0210423Y0212038D01*
X0210469Y0212027D01*
X0210513Y0212013D01*
X0210556Y0211995D01*
X0210597Y0211973D01*
X0210637Y0211948D01*
X0210674Y0211920D01*
X0210709Y0211889D01*
X0210741Y0211855D01*
X0210770Y0211818D01*
X0210795Y0211780D01*
X0210818Y0211739D01*
X0210837Y0211696D01*
X0210852Y0211652D01*
X0210864Y0211607D01*
X0210872Y0211561D01*
X0210876Y0211514D01*
X0210876Y0211468D01*
X0210872Y0211421D01*
X0210864Y0211375D01*
X0210852Y0211330D01*
X0210837Y0211286D01*
X0210818Y0211243D01*
X0210795Y0211202D01*
X0210770Y0211164D01*
X0210741Y0211127D01*
X0210709Y0211093D01*
X0210674Y0211062D01*
X0210637Y0211034D01*
X0210598Y0211009D01*
X0210556Y0210987D01*
X0210513Y0210969D01*
X0210469Y0210955D01*
X0210423Y0210944D01*
X0210377Y0210937D01*
X0210331Y0210934D01*
X0210284Y0210935D01*
X0210238Y0210940D01*
X0210192Y0210949D01*
X0210147Y0210961D01*
X0210103Y0210978D01*
X0210061Y0210997D01*
X0210021Y0211021D01*
X0209982Y0211047D01*
X0209946Y0211077D01*
X0209913Y0211110D01*
X0209882Y0211145D01*
X0209855Y0211183D01*
X0209831Y0211223D01*
X0209810Y0211264D01*
X0209793Y0211308D01*
X0209779Y0211352D01*
X0209770Y0211398D01*
X0209764Y0211444D01*
X0209762Y0211491D01*
X0209762Y0179491D02*
X0209764Y0179538D01*
X0209770Y0179584D01*
X0209779Y0179630D01*
X0209793Y0179674D01*
X0209810Y0179718D01*
X0209831Y0179759D01*
X0209855Y0179799D01*
X0209882Y0179837D01*
X0209913Y0179872D01*
X0209946Y0179905D01*
X0209982Y0179935D01*
X0210021Y0179961D01*
X0210061Y0179985D01*
X0210103Y0180004D01*
X0210147Y0180021D01*
X0210192Y0180033D01*
X0210238Y0180042D01*
X0210284Y0180047D01*
X0210331Y0180048D01*
X0210377Y0180045D01*
X0210423Y0180038D01*
X0210469Y0180027D01*
X0210513Y0180013D01*
X0210556Y0179995D01*
X0210597Y0179973D01*
X0210637Y0179948D01*
X0210674Y0179920D01*
X0210709Y0179889D01*
X0210741Y0179855D01*
X0210770Y0179818D01*
X0210795Y0179780D01*
X0210818Y0179739D01*
X0210837Y0179696D01*
X0210852Y0179652D01*
X0210864Y0179607D01*
X0210872Y0179561D01*
X0210876Y0179514D01*
X0210876Y0179468D01*
X0210872Y0179421D01*
X0210864Y0179375D01*
X0210852Y0179330D01*
X0210837Y0179286D01*
X0210818Y0179243D01*
X0210795Y0179202D01*
X0210770Y0179164D01*
X0210741Y0179127D01*
X0210709Y0179093D01*
X0210674Y0179062D01*
X0210637Y0179034D01*
X0210598Y0179009D01*
X0210556Y0178987D01*
X0210513Y0178969D01*
X0210469Y0178955D01*
X0210423Y0178944D01*
X0210377Y0178937D01*
X0210331Y0178934D01*
X0210284Y0178935D01*
X0210238Y0178940D01*
X0210192Y0178949D01*
X0210147Y0178961D01*
X0210103Y0178978D01*
X0210061Y0178997D01*
X0210021Y0179021D01*
X0209982Y0179047D01*
X0209946Y0179077D01*
X0209913Y0179110D01*
X0209882Y0179145D01*
X0209855Y0179183D01*
X0209831Y0179223D01*
X0209810Y0179264D01*
X0209793Y0179308D01*
X0209779Y0179352D01*
X0209770Y0179398D01*
X0209764Y0179444D01*
X0209762Y0179491D01*
X0209762Y0147491D02*
X0209764Y0147538D01*
X0209770Y0147584D01*
X0209779Y0147630D01*
X0209793Y0147674D01*
X0209810Y0147718D01*
X0209831Y0147759D01*
X0209855Y0147799D01*
X0209882Y0147837D01*
X0209913Y0147872D01*
X0209946Y0147905D01*
X0209982Y0147935D01*
X0210021Y0147961D01*
X0210061Y0147985D01*
X0210103Y0148004D01*
X0210147Y0148021D01*
X0210192Y0148033D01*
X0210238Y0148042D01*
X0210284Y0148047D01*
X0210331Y0148048D01*
X0210377Y0148045D01*
X0210423Y0148038D01*
X0210469Y0148027D01*
X0210513Y0148013D01*
X0210556Y0147995D01*
X0210597Y0147973D01*
X0210637Y0147948D01*
X0210674Y0147920D01*
X0210709Y0147889D01*
X0210741Y0147855D01*
X0210770Y0147818D01*
X0210795Y0147780D01*
X0210818Y0147739D01*
X0210837Y0147696D01*
X0210852Y0147652D01*
X0210864Y0147607D01*
X0210872Y0147561D01*
X0210876Y0147514D01*
X0210876Y0147468D01*
X0210872Y0147421D01*
X0210864Y0147375D01*
X0210852Y0147330D01*
X0210837Y0147286D01*
X0210818Y0147243D01*
X0210795Y0147202D01*
X0210770Y0147164D01*
X0210741Y0147127D01*
X0210709Y0147093D01*
X0210674Y0147062D01*
X0210637Y0147034D01*
X0210598Y0147009D01*
X0210556Y0146987D01*
X0210513Y0146969D01*
X0210469Y0146955D01*
X0210423Y0146944D01*
X0210377Y0146937D01*
X0210331Y0146934D01*
X0210284Y0146935D01*
X0210238Y0146940D01*
X0210192Y0146949D01*
X0210147Y0146961D01*
X0210103Y0146978D01*
X0210061Y0146997D01*
X0210021Y0147021D01*
X0209982Y0147047D01*
X0209946Y0147077D01*
X0209913Y0147110D01*
X0209882Y0147145D01*
X0209855Y0147183D01*
X0209831Y0147223D01*
X0209810Y0147264D01*
X0209793Y0147308D01*
X0209779Y0147352D01*
X0209770Y0147398D01*
X0209764Y0147444D01*
X0209762Y0147491D01*
X0209762Y0115491D02*
X0209764Y0115538D01*
X0209770Y0115584D01*
X0209779Y0115630D01*
X0209793Y0115674D01*
X0209810Y0115718D01*
X0209831Y0115759D01*
X0209855Y0115799D01*
X0209882Y0115837D01*
X0209913Y0115872D01*
X0209946Y0115905D01*
X0209982Y0115935D01*
X0210021Y0115961D01*
X0210061Y0115985D01*
X0210103Y0116004D01*
X0210147Y0116021D01*
X0210192Y0116033D01*
X0210238Y0116042D01*
X0210284Y0116047D01*
X0210331Y0116048D01*
X0210377Y0116045D01*
X0210423Y0116038D01*
X0210469Y0116027D01*
X0210513Y0116013D01*
X0210556Y0115995D01*
X0210597Y0115973D01*
X0210637Y0115948D01*
X0210674Y0115920D01*
X0210709Y0115889D01*
X0210741Y0115855D01*
X0210770Y0115818D01*
X0210795Y0115780D01*
X0210818Y0115739D01*
X0210837Y0115696D01*
X0210852Y0115652D01*
X0210864Y0115607D01*
X0210872Y0115561D01*
X0210876Y0115514D01*
X0210876Y0115468D01*
X0210872Y0115421D01*
X0210864Y0115375D01*
X0210852Y0115330D01*
X0210837Y0115286D01*
X0210818Y0115243D01*
X0210795Y0115202D01*
X0210770Y0115164D01*
X0210741Y0115127D01*
X0210709Y0115093D01*
X0210674Y0115062D01*
X0210637Y0115034D01*
X0210598Y0115009D01*
X0210556Y0114987D01*
X0210513Y0114969D01*
X0210469Y0114955D01*
X0210423Y0114944D01*
X0210377Y0114937D01*
X0210331Y0114934D01*
X0210284Y0114935D01*
X0210238Y0114940D01*
X0210192Y0114949D01*
X0210147Y0114961D01*
X0210103Y0114978D01*
X0210061Y0114997D01*
X0210021Y0115021D01*
X0209982Y0115047D01*
X0209946Y0115077D01*
X0209913Y0115110D01*
X0209882Y0115145D01*
X0209855Y0115183D01*
X0209831Y0115223D01*
X0209810Y0115264D01*
X0209793Y0115308D01*
X0209779Y0115352D01*
X0209770Y0115398D01*
X0209764Y0115444D01*
X0209762Y0115491D01*
X0209762Y0083491D02*
X0209764Y0083538D01*
X0209770Y0083584D01*
X0209779Y0083630D01*
X0209793Y0083674D01*
X0209810Y0083718D01*
X0209831Y0083759D01*
X0209855Y0083799D01*
X0209882Y0083837D01*
X0209913Y0083872D01*
X0209946Y0083905D01*
X0209982Y0083935D01*
X0210021Y0083961D01*
X0210061Y0083985D01*
X0210103Y0084004D01*
X0210147Y0084021D01*
X0210192Y0084033D01*
X0210238Y0084042D01*
X0210284Y0084047D01*
X0210331Y0084048D01*
X0210377Y0084045D01*
X0210423Y0084038D01*
X0210469Y0084027D01*
X0210513Y0084013D01*
X0210556Y0083995D01*
X0210597Y0083973D01*
X0210637Y0083948D01*
X0210674Y0083920D01*
X0210709Y0083889D01*
X0210741Y0083855D01*
X0210770Y0083818D01*
X0210795Y0083780D01*
X0210818Y0083739D01*
X0210837Y0083696D01*
X0210852Y0083652D01*
X0210864Y0083607D01*
X0210872Y0083561D01*
X0210876Y0083514D01*
X0210876Y0083468D01*
X0210872Y0083421D01*
X0210864Y0083375D01*
X0210852Y0083330D01*
X0210837Y0083286D01*
X0210818Y0083243D01*
X0210795Y0083202D01*
X0210770Y0083164D01*
X0210741Y0083127D01*
X0210709Y0083093D01*
X0210674Y0083062D01*
X0210637Y0083034D01*
X0210598Y0083009D01*
X0210556Y0082987D01*
X0210513Y0082969D01*
X0210469Y0082955D01*
X0210423Y0082944D01*
X0210377Y0082937D01*
X0210331Y0082934D01*
X0210284Y0082935D01*
X0210238Y0082940D01*
X0210192Y0082949D01*
X0210147Y0082961D01*
X0210103Y0082978D01*
X0210061Y0082997D01*
X0210021Y0083021D01*
X0209982Y0083047D01*
X0209946Y0083077D01*
X0209913Y0083110D01*
X0209882Y0083145D01*
X0209855Y0083183D01*
X0209831Y0083223D01*
X0209810Y0083264D01*
X0209793Y0083308D01*
X0209779Y0083352D01*
X0209770Y0083398D01*
X0209764Y0083444D01*
X0209762Y0083491D01*
X0162124Y0103176D02*
X0162126Y0103223D01*
X0162132Y0103269D01*
X0162141Y0103315D01*
X0162155Y0103359D01*
X0162172Y0103403D01*
X0162193Y0103444D01*
X0162217Y0103484D01*
X0162244Y0103522D01*
X0162275Y0103557D01*
X0162308Y0103590D01*
X0162344Y0103620D01*
X0162383Y0103646D01*
X0162423Y0103670D01*
X0162465Y0103689D01*
X0162509Y0103706D01*
X0162554Y0103718D01*
X0162600Y0103727D01*
X0162646Y0103732D01*
X0162693Y0103733D01*
X0162739Y0103730D01*
X0162785Y0103723D01*
X0162831Y0103712D01*
X0162875Y0103698D01*
X0162918Y0103680D01*
X0162959Y0103658D01*
X0162999Y0103633D01*
X0163036Y0103605D01*
X0163071Y0103574D01*
X0163103Y0103540D01*
X0163132Y0103503D01*
X0163157Y0103465D01*
X0163180Y0103424D01*
X0163199Y0103381D01*
X0163214Y0103337D01*
X0163226Y0103292D01*
X0163234Y0103246D01*
X0163238Y0103199D01*
X0163238Y0103153D01*
X0163234Y0103106D01*
X0163226Y0103060D01*
X0163214Y0103015D01*
X0163199Y0102971D01*
X0163180Y0102928D01*
X0163157Y0102887D01*
X0163132Y0102849D01*
X0163103Y0102812D01*
X0163071Y0102778D01*
X0163036Y0102747D01*
X0162999Y0102719D01*
X0162960Y0102694D01*
X0162918Y0102672D01*
X0162875Y0102654D01*
X0162831Y0102640D01*
X0162785Y0102629D01*
X0162739Y0102622D01*
X0162693Y0102619D01*
X0162646Y0102620D01*
X0162600Y0102625D01*
X0162554Y0102634D01*
X0162509Y0102646D01*
X0162465Y0102663D01*
X0162423Y0102682D01*
X0162383Y0102706D01*
X0162344Y0102732D01*
X0162308Y0102762D01*
X0162275Y0102795D01*
X0162244Y0102830D01*
X0162217Y0102868D01*
X0162193Y0102908D01*
X0162172Y0102949D01*
X0162155Y0102993D01*
X0162141Y0103037D01*
X0162132Y0103083D01*
X0162126Y0103129D01*
X0162124Y0103176D01*
X0162124Y0135176D02*
X0162126Y0135223D01*
X0162132Y0135269D01*
X0162141Y0135315D01*
X0162155Y0135359D01*
X0162172Y0135403D01*
X0162193Y0135444D01*
X0162217Y0135484D01*
X0162244Y0135522D01*
X0162275Y0135557D01*
X0162308Y0135590D01*
X0162344Y0135620D01*
X0162383Y0135646D01*
X0162423Y0135670D01*
X0162465Y0135689D01*
X0162509Y0135706D01*
X0162554Y0135718D01*
X0162600Y0135727D01*
X0162646Y0135732D01*
X0162693Y0135733D01*
X0162739Y0135730D01*
X0162785Y0135723D01*
X0162831Y0135712D01*
X0162875Y0135698D01*
X0162918Y0135680D01*
X0162959Y0135658D01*
X0162999Y0135633D01*
X0163036Y0135605D01*
X0163071Y0135574D01*
X0163103Y0135540D01*
X0163132Y0135503D01*
X0163157Y0135465D01*
X0163180Y0135424D01*
X0163199Y0135381D01*
X0163214Y0135337D01*
X0163226Y0135292D01*
X0163234Y0135246D01*
X0163238Y0135199D01*
X0163238Y0135153D01*
X0163234Y0135106D01*
X0163226Y0135060D01*
X0163214Y0135015D01*
X0163199Y0134971D01*
X0163180Y0134928D01*
X0163157Y0134887D01*
X0163132Y0134849D01*
X0163103Y0134812D01*
X0163071Y0134778D01*
X0163036Y0134747D01*
X0162999Y0134719D01*
X0162960Y0134694D01*
X0162918Y0134672D01*
X0162875Y0134654D01*
X0162831Y0134640D01*
X0162785Y0134629D01*
X0162739Y0134622D01*
X0162693Y0134619D01*
X0162646Y0134620D01*
X0162600Y0134625D01*
X0162554Y0134634D01*
X0162509Y0134646D01*
X0162465Y0134663D01*
X0162423Y0134682D01*
X0162383Y0134706D01*
X0162344Y0134732D01*
X0162308Y0134762D01*
X0162275Y0134795D01*
X0162244Y0134830D01*
X0162217Y0134868D01*
X0162193Y0134908D01*
X0162172Y0134949D01*
X0162155Y0134993D01*
X0162141Y0135037D01*
X0162132Y0135083D01*
X0162126Y0135129D01*
X0162124Y0135176D01*
X0162124Y0167176D02*
X0162126Y0167223D01*
X0162132Y0167269D01*
X0162141Y0167315D01*
X0162155Y0167359D01*
X0162172Y0167403D01*
X0162193Y0167444D01*
X0162217Y0167484D01*
X0162244Y0167522D01*
X0162275Y0167557D01*
X0162308Y0167590D01*
X0162344Y0167620D01*
X0162383Y0167646D01*
X0162423Y0167670D01*
X0162465Y0167689D01*
X0162509Y0167706D01*
X0162554Y0167718D01*
X0162600Y0167727D01*
X0162646Y0167732D01*
X0162693Y0167733D01*
X0162739Y0167730D01*
X0162785Y0167723D01*
X0162831Y0167712D01*
X0162875Y0167698D01*
X0162918Y0167680D01*
X0162959Y0167658D01*
X0162999Y0167633D01*
X0163036Y0167605D01*
X0163071Y0167574D01*
X0163103Y0167540D01*
X0163132Y0167503D01*
X0163157Y0167465D01*
X0163180Y0167424D01*
X0163199Y0167381D01*
X0163214Y0167337D01*
X0163226Y0167292D01*
X0163234Y0167246D01*
X0163238Y0167199D01*
X0163238Y0167153D01*
X0163234Y0167106D01*
X0163226Y0167060D01*
X0163214Y0167015D01*
X0163199Y0166971D01*
X0163180Y0166928D01*
X0163157Y0166887D01*
X0163132Y0166849D01*
X0163103Y0166812D01*
X0163071Y0166778D01*
X0163036Y0166747D01*
X0162999Y0166719D01*
X0162960Y0166694D01*
X0162918Y0166672D01*
X0162875Y0166654D01*
X0162831Y0166640D01*
X0162785Y0166629D01*
X0162739Y0166622D01*
X0162693Y0166619D01*
X0162646Y0166620D01*
X0162600Y0166625D01*
X0162554Y0166634D01*
X0162509Y0166646D01*
X0162465Y0166663D01*
X0162423Y0166682D01*
X0162383Y0166706D01*
X0162344Y0166732D01*
X0162308Y0166762D01*
X0162275Y0166795D01*
X0162244Y0166830D01*
X0162217Y0166868D01*
X0162193Y0166908D01*
X0162172Y0166949D01*
X0162155Y0166993D01*
X0162141Y0167037D01*
X0162132Y0167083D01*
X0162126Y0167129D01*
X0162124Y0167176D01*
X0162124Y0199176D02*
X0162126Y0199223D01*
X0162132Y0199269D01*
X0162141Y0199315D01*
X0162155Y0199359D01*
X0162172Y0199403D01*
X0162193Y0199444D01*
X0162217Y0199484D01*
X0162244Y0199522D01*
X0162275Y0199557D01*
X0162308Y0199590D01*
X0162344Y0199620D01*
X0162383Y0199646D01*
X0162423Y0199670D01*
X0162465Y0199689D01*
X0162509Y0199706D01*
X0162554Y0199718D01*
X0162600Y0199727D01*
X0162646Y0199732D01*
X0162693Y0199733D01*
X0162739Y0199730D01*
X0162785Y0199723D01*
X0162831Y0199712D01*
X0162875Y0199698D01*
X0162918Y0199680D01*
X0162959Y0199658D01*
X0162999Y0199633D01*
X0163036Y0199605D01*
X0163071Y0199574D01*
X0163103Y0199540D01*
X0163132Y0199503D01*
X0163157Y0199465D01*
X0163180Y0199424D01*
X0163199Y0199381D01*
X0163214Y0199337D01*
X0163226Y0199292D01*
X0163234Y0199246D01*
X0163238Y0199199D01*
X0163238Y0199153D01*
X0163234Y0199106D01*
X0163226Y0199060D01*
X0163214Y0199015D01*
X0163199Y0198971D01*
X0163180Y0198928D01*
X0163157Y0198887D01*
X0163132Y0198849D01*
X0163103Y0198812D01*
X0163071Y0198778D01*
X0163036Y0198747D01*
X0162999Y0198719D01*
X0162960Y0198694D01*
X0162918Y0198672D01*
X0162875Y0198654D01*
X0162831Y0198640D01*
X0162785Y0198629D01*
X0162739Y0198622D01*
X0162693Y0198619D01*
X0162646Y0198620D01*
X0162600Y0198625D01*
X0162554Y0198634D01*
X0162509Y0198646D01*
X0162465Y0198663D01*
X0162423Y0198682D01*
X0162383Y0198706D01*
X0162344Y0198732D01*
X0162308Y0198762D01*
X0162275Y0198795D01*
X0162244Y0198830D01*
X0162217Y0198868D01*
X0162193Y0198908D01*
X0162172Y0198949D01*
X0162155Y0198993D01*
X0162141Y0199037D01*
X0162132Y0199083D01*
X0162126Y0199129D01*
X0162124Y0199176D01*
X0162124Y0231176D02*
X0162126Y0231223D01*
X0162132Y0231269D01*
X0162141Y0231315D01*
X0162155Y0231359D01*
X0162172Y0231403D01*
X0162193Y0231444D01*
X0162217Y0231484D01*
X0162244Y0231522D01*
X0162275Y0231557D01*
X0162308Y0231590D01*
X0162344Y0231620D01*
X0162383Y0231646D01*
X0162423Y0231670D01*
X0162465Y0231689D01*
X0162509Y0231706D01*
X0162554Y0231718D01*
X0162600Y0231727D01*
X0162646Y0231732D01*
X0162693Y0231733D01*
X0162739Y0231730D01*
X0162785Y0231723D01*
X0162831Y0231712D01*
X0162875Y0231698D01*
X0162918Y0231680D01*
X0162959Y0231658D01*
X0162999Y0231633D01*
X0163036Y0231605D01*
X0163071Y0231574D01*
X0163103Y0231540D01*
X0163132Y0231503D01*
X0163157Y0231465D01*
X0163180Y0231424D01*
X0163199Y0231381D01*
X0163214Y0231337D01*
X0163226Y0231292D01*
X0163234Y0231246D01*
X0163238Y0231199D01*
X0163238Y0231153D01*
X0163234Y0231106D01*
X0163226Y0231060D01*
X0163214Y0231015D01*
X0163199Y0230971D01*
X0163180Y0230928D01*
X0163157Y0230887D01*
X0163132Y0230849D01*
X0163103Y0230812D01*
X0163071Y0230778D01*
X0163036Y0230747D01*
X0162999Y0230719D01*
X0162960Y0230694D01*
X0162918Y0230672D01*
X0162875Y0230654D01*
X0162831Y0230640D01*
X0162785Y0230629D01*
X0162739Y0230622D01*
X0162693Y0230619D01*
X0162646Y0230620D01*
X0162600Y0230625D01*
X0162554Y0230634D01*
X0162509Y0230646D01*
X0162465Y0230663D01*
X0162423Y0230682D01*
X0162383Y0230706D01*
X0162344Y0230732D01*
X0162308Y0230762D01*
X0162275Y0230795D01*
X0162244Y0230830D01*
X0162217Y0230868D01*
X0162193Y0230908D01*
X0162172Y0230949D01*
X0162155Y0230993D01*
X0162141Y0231037D01*
X0162132Y0231083D01*
X0162126Y0231129D01*
X0162124Y0231176D01*
X0162124Y0263176D02*
X0162126Y0263223D01*
X0162132Y0263269D01*
X0162141Y0263315D01*
X0162155Y0263359D01*
X0162172Y0263403D01*
X0162193Y0263444D01*
X0162217Y0263484D01*
X0162244Y0263522D01*
X0162275Y0263557D01*
X0162308Y0263590D01*
X0162344Y0263620D01*
X0162383Y0263646D01*
X0162423Y0263670D01*
X0162465Y0263689D01*
X0162509Y0263706D01*
X0162554Y0263718D01*
X0162600Y0263727D01*
X0162646Y0263732D01*
X0162693Y0263733D01*
X0162739Y0263730D01*
X0162785Y0263723D01*
X0162831Y0263712D01*
X0162875Y0263698D01*
X0162918Y0263680D01*
X0162959Y0263658D01*
X0162999Y0263633D01*
X0163036Y0263605D01*
X0163071Y0263574D01*
X0163103Y0263540D01*
X0163132Y0263503D01*
X0163157Y0263465D01*
X0163180Y0263424D01*
X0163199Y0263381D01*
X0163214Y0263337D01*
X0163226Y0263292D01*
X0163234Y0263246D01*
X0163238Y0263199D01*
X0163238Y0263153D01*
X0163234Y0263106D01*
X0163226Y0263060D01*
X0163214Y0263015D01*
X0163199Y0262971D01*
X0163180Y0262928D01*
X0163157Y0262887D01*
X0163132Y0262849D01*
X0163103Y0262812D01*
X0163071Y0262778D01*
X0163036Y0262747D01*
X0162999Y0262719D01*
X0162960Y0262694D01*
X0162918Y0262672D01*
X0162875Y0262654D01*
X0162831Y0262640D01*
X0162785Y0262629D01*
X0162739Y0262622D01*
X0162693Y0262619D01*
X0162646Y0262620D01*
X0162600Y0262625D01*
X0162554Y0262634D01*
X0162509Y0262646D01*
X0162465Y0262663D01*
X0162423Y0262682D01*
X0162383Y0262706D01*
X0162344Y0262732D01*
X0162308Y0262762D01*
X0162275Y0262795D01*
X0162244Y0262830D01*
X0162217Y0262868D01*
X0162193Y0262908D01*
X0162172Y0262949D01*
X0162155Y0262993D01*
X0162141Y0263037D01*
X0162132Y0263083D01*
X0162126Y0263129D01*
X0162124Y0263176D01*
X0162124Y0295176D02*
X0162126Y0295223D01*
X0162132Y0295269D01*
X0162141Y0295315D01*
X0162155Y0295359D01*
X0162172Y0295403D01*
X0162193Y0295444D01*
X0162217Y0295484D01*
X0162244Y0295522D01*
X0162275Y0295557D01*
X0162308Y0295590D01*
X0162344Y0295620D01*
X0162383Y0295646D01*
X0162423Y0295670D01*
X0162465Y0295689D01*
X0162509Y0295706D01*
X0162554Y0295718D01*
X0162600Y0295727D01*
X0162646Y0295732D01*
X0162693Y0295733D01*
X0162739Y0295730D01*
X0162785Y0295723D01*
X0162831Y0295712D01*
X0162875Y0295698D01*
X0162918Y0295680D01*
X0162959Y0295658D01*
X0162999Y0295633D01*
X0163036Y0295605D01*
X0163071Y0295574D01*
X0163103Y0295540D01*
X0163132Y0295503D01*
X0163157Y0295465D01*
X0163180Y0295424D01*
X0163199Y0295381D01*
X0163214Y0295337D01*
X0163226Y0295292D01*
X0163234Y0295246D01*
X0163238Y0295199D01*
X0163238Y0295153D01*
X0163234Y0295106D01*
X0163226Y0295060D01*
X0163214Y0295015D01*
X0163199Y0294971D01*
X0163180Y0294928D01*
X0163157Y0294887D01*
X0163132Y0294849D01*
X0163103Y0294812D01*
X0163071Y0294778D01*
X0163036Y0294747D01*
X0162999Y0294719D01*
X0162960Y0294694D01*
X0162918Y0294672D01*
X0162875Y0294654D01*
X0162831Y0294640D01*
X0162785Y0294629D01*
X0162739Y0294622D01*
X0162693Y0294619D01*
X0162646Y0294620D01*
X0162600Y0294625D01*
X0162554Y0294634D01*
X0162509Y0294646D01*
X0162465Y0294663D01*
X0162423Y0294682D01*
X0162383Y0294706D01*
X0162344Y0294732D01*
X0162308Y0294762D01*
X0162275Y0294795D01*
X0162244Y0294830D01*
X0162217Y0294868D01*
X0162193Y0294908D01*
X0162172Y0294949D01*
X0162155Y0294993D01*
X0162141Y0295037D01*
X0162132Y0295083D01*
X0162126Y0295129D01*
X0162124Y0295176D01*
X0162124Y0327176D02*
X0162126Y0327223D01*
X0162132Y0327269D01*
X0162141Y0327315D01*
X0162155Y0327359D01*
X0162172Y0327403D01*
X0162193Y0327444D01*
X0162217Y0327484D01*
X0162244Y0327522D01*
X0162275Y0327557D01*
X0162308Y0327590D01*
X0162344Y0327620D01*
X0162383Y0327646D01*
X0162423Y0327670D01*
X0162465Y0327689D01*
X0162509Y0327706D01*
X0162554Y0327718D01*
X0162600Y0327727D01*
X0162646Y0327732D01*
X0162693Y0327733D01*
X0162739Y0327730D01*
X0162785Y0327723D01*
X0162831Y0327712D01*
X0162875Y0327698D01*
X0162918Y0327680D01*
X0162959Y0327658D01*
X0162999Y0327633D01*
X0163036Y0327605D01*
X0163071Y0327574D01*
X0163103Y0327540D01*
X0163132Y0327503D01*
X0163157Y0327465D01*
X0163180Y0327424D01*
X0163199Y0327381D01*
X0163214Y0327337D01*
X0163226Y0327292D01*
X0163234Y0327246D01*
X0163238Y0327199D01*
X0163238Y0327153D01*
X0163234Y0327106D01*
X0163226Y0327060D01*
X0163214Y0327015D01*
X0163199Y0326971D01*
X0163180Y0326928D01*
X0163157Y0326887D01*
X0163132Y0326849D01*
X0163103Y0326812D01*
X0163071Y0326778D01*
X0163036Y0326747D01*
X0162999Y0326719D01*
X0162960Y0326694D01*
X0162918Y0326672D01*
X0162875Y0326654D01*
X0162831Y0326640D01*
X0162785Y0326629D01*
X0162739Y0326622D01*
X0162693Y0326619D01*
X0162646Y0326620D01*
X0162600Y0326625D01*
X0162554Y0326634D01*
X0162509Y0326646D01*
X0162465Y0326663D01*
X0162423Y0326682D01*
X0162383Y0326706D01*
X0162344Y0326732D01*
X0162308Y0326762D01*
X0162275Y0326795D01*
X0162244Y0326830D01*
X0162217Y0326868D01*
X0162193Y0326908D01*
X0162172Y0326949D01*
X0162155Y0326993D01*
X0162141Y0327037D01*
X0162132Y0327083D01*
X0162126Y0327129D01*
X0162124Y0327176D01*
X0117762Y0307491D02*
X0117764Y0307538D01*
X0117770Y0307584D01*
X0117779Y0307630D01*
X0117793Y0307674D01*
X0117810Y0307718D01*
X0117831Y0307759D01*
X0117855Y0307799D01*
X0117882Y0307837D01*
X0117913Y0307872D01*
X0117946Y0307905D01*
X0117982Y0307935D01*
X0118021Y0307961D01*
X0118061Y0307985D01*
X0118103Y0308004D01*
X0118147Y0308021D01*
X0118192Y0308033D01*
X0118238Y0308042D01*
X0118284Y0308047D01*
X0118331Y0308048D01*
X0118377Y0308045D01*
X0118423Y0308038D01*
X0118469Y0308027D01*
X0118513Y0308013D01*
X0118556Y0307995D01*
X0118597Y0307973D01*
X0118637Y0307948D01*
X0118674Y0307920D01*
X0118709Y0307889D01*
X0118741Y0307855D01*
X0118770Y0307818D01*
X0118795Y0307780D01*
X0118818Y0307739D01*
X0118837Y0307696D01*
X0118852Y0307652D01*
X0118864Y0307607D01*
X0118872Y0307561D01*
X0118876Y0307514D01*
X0118876Y0307468D01*
X0118872Y0307421D01*
X0118864Y0307375D01*
X0118852Y0307330D01*
X0118837Y0307286D01*
X0118818Y0307243D01*
X0118795Y0307202D01*
X0118770Y0307164D01*
X0118741Y0307127D01*
X0118709Y0307093D01*
X0118674Y0307062D01*
X0118637Y0307034D01*
X0118598Y0307009D01*
X0118556Y0306987D01*
X0118513Y0306969D01*
X0118469Y0306955D01*
X0118423Y0306944D01*
X0118377Y0306937D01*
X0118331Y0306934D01*
X0118284Y0306935D01*
X0118238Y0306940D01*
X0118192Y0306949D01*
X0118147Y0306961D01*
X0118103Y0306978D01*
X0118061Y0306997D01*
X0118021Y0307021D01*
X0117982Y0307047D01*
X0117946Y0307077D01*
X0117913Y0307110D01*
X0117882Y0307145D01*
X0117855Y0307183D01*
X0117831Y0307223D01*
X0117810Y0307264D01*
X0117793Y0307308D01*
X0117779Y0307352D01*
X0117770Y0307398D01*
X0117764Y0307444D01*
X0117762Y0307491D01*
X0117762Y0275491D02*
X0117764Y0275538D01*
X0117770Y0275584D01*
X0117779Y0275630D01*
X0117793Y0275674D01*
X0117810Y0275718D01*
X0117831Y0275759D01*
X0117855Y0275799D01*
X0117882Y0275837D01*
X0117913Y0275872D01*
X0117946Y0275905D01*
X0117982Y0275935D01*
X0118021Y0275961D01*
X0118061Y0275985D01*
X0118103Y0276004D01*
X0118147Y0276021D01*
X0118192Y0276033D01*
X0118238Y0276042D01*
X0118284Y0276047D01*
X0118331Y0276048D01*
X0118377Y0276045D01*
X0118423Y0276038D01*
X0118469Y0276027D01*
X0118513Y0276013D01*
X0118556Y0275995D01*
X0118597Y0275973D01*
X0118637Y0275948D01*
X0118674Y0275920D01*
X0118709Y0275889D01*
X0118741Y0275855D01*
X0118770Y0275818D01*
X0118795Y0275780D01*
X0118818Y0275739D01*
X0118837Y0275696D01*
X0118852Y0275652D01*
X0118864Y0275607D01*
X0118872Y0275561D01*
X0118876Y0275514D01*
X0118876Y0275468D01*
X0118872Y0275421D01*
X0118864Y0275375D01*
X0118852Y0275330D01*
X0118837Y0275286D01*
X0118818Y0275243D01*
X0118795Y0275202D01*
X0118770Y0275164D01*
X0118741Y0275127D01*
X0118709Y0275093D01*
X0118674Y0275062D01*
X0118637Y0275034D01*
X0118598Y0275009D01*
X0118556Y0274987D01*
X0118513Y0274969D01*
X0118469Y0274955D01*
X0118423Y0274944D01*
X0118377Y0274937D01*
X0118331Y0274934D01*
X0118284Y0274935D01*
X0118238Y0274940D01*
X0118192Y0274949D01*
X0118147Y0274961D01*
X0118103Y0274978D01*
X0118061Y0274997D01*
X0118021Y0275021D01*
X0117982Y0275047D01*
X0117946Y0275077D01*
X0117913Y0275110D01*
X0117882Y0275145D01*
X0117855Y0275183D01*
X0117831Y0275223D01*
X0117810Y0275264D01*
X0117793Y0275308D01*
X0117779Y0275352D01*
X0117770Y0275398D01*
X0117764Y0275444D01*
X0117762Y0275491D01*
X0117762Y0243491D02*
X0117764Y0243538D01*
X0117770Y0243584D01*
X0117779Y0243630D01*
X0117793Y0243674D01*
X0117810Y0243718D01*
X0117831Y0243759D01*
X0117855Y0243799D01*
X0117882Y0243837D01*
X0117913Y0243872D01*
X0117946Y0243905D01*
X0117982Y0243935D01*
X0118021Y0243961D01*
X0118061Y0243985D01*
X0118103Y0244004D01*
X0118147Y0244021D01*
X0118192Y0244033D01*
X0118238Y0244042D01*
X0118284Y0244047D01*
X0118331Y0244048D01*
X0118377Y0244045D01*
X0118423Y0244038D01*
X0118469Y0244027D01*
X0118513Y0244013D01*
X0118556Y0243995D01*
X0118597Y0243973D01*
X0118637Y0243948D01*
X0118674Y0243920D01*
X0118709Y0243889D01*
X0118741Y0243855D01*
X0118770Y0243818D01*
X0118795Y0243780D01*
X0118818Y0243739D01*
X0118837Y0243696D01*
X0118852Y0243652D01*
X0118864Y0243607D01*
X0118872Y0243561D01*
X0118876Y0243514D01*
X0118876Y0243468D01*
X0118872Y0243421D01*
X0118864Y0243375D01*
X0118852Y0243330D01*
X0118837Y0243286D01*
X0118818Y0243243D01*
X0118795Y0243202D01*
X0118770Y0243164D01*
X0118741Y0243127D01*
X0118709Y0243093D01*
X0118674Y0243062D01*
X0118637Y0243034D01*
X0118598Y0243009D01*
X0118556Y0242987D01*
X0118513Y0242969D01*
X0118469Y0242955D01*
X0118423Y0242944D01*
X0118377Y0242937D01*
X0118331Y0242934D01*
X0118284Y0242935D01*
X0118238Y0242940D01*
X0118192Y0242949D01*
X0118147Y0242961D01*
X0118103Y0242978D01*
X0118061Y0242997D01*
X0118021Y0243021D01*
X0117982Y0243047D01*
X0117946Y0243077D01*
X0117913Y0243110D01*
X0117882Y0243145D01*
X0117855Y0243183D01*
X0117831Y0243223D01*
X0117810Y0243264D01*
X0117793Y0243308D01*
X0117779Y0243352D01*
X0117770Y0243398D01*
X0117764Y0243444D01*
X0117762Y0243491D01*
X0117762Y0211491D02*
X0117764Y0211538D01*
X0117770Y0211584D01*
X0117779Y0211630D01*
X0117793Y0211674D01*
X0117810Y0211718D01*
X0117831Y0211759D01*
X0117855Y0211799D01*
X0117882Y0211837D01*
X0117913Y0211872D01*
X0117946Y0211905D01*
X0117982Y0211935D01*
X0118021Y0211961D01*
X0118061Y0211985D01*
X0118103Y0212004D01*
X0118147Y0212021D01*
X0118192Y0212033D01*
X0118238Y0212042D01*
X0118284Y0212047D01*
X0118331Y0212048D01*
X0118377Y0212045D01*
X0118423Y0212038D01*
X0118469Y0212027D01*
X0118513Y0212013D01*
X0118556Y0211995D01*
X0118597Y0211973D01*
X0118637Y0211948D01*
X0118674Y0211920D01*
X0118709Y0211889D01*
X0118741Y0211855D01*
X0118770Y0211818D01*
X0118795Y0211780D01*
X0118818Y0211739D01*
X0118837Y0211696D01*
X0118852Y0211652D01*
X0118864Y0211607D01*
X0118872Y0211561D01*
X0118876Y0211514D01*
X0118876Y0211468D01*
X0118872Y0211421D01*
X0118864Y0211375D01*
X0118852Y0211330D01*
X0118837Y0211286D01*
X0118818Y0211243D01*
X0118795Y0211202D01*
X0118770Y0211164D01*
X0118741Y0211127D01*
X0118709Y0211093D01*
X0118674Y0211062D01*
X0118637Y0211034D01*
X0118598Y0211009D01*
X0118556Y0210987D01*
X0118513Y0210969D01*
X0118469Y0210955D01*
X0118423Y0210944D01*
X0118377Y0210937D01*
X0118331Y0210934D01*
X0118284Y0210935D01*
X0118238Y0210940D01*
X0118192Y0210949D01*
X0118147Y0210961D01*
X0118103Y0210978D01*
X0118061Y0210997D01*
X0118021Y0211021D01*
X0117982Y0211047D01*
X0117946Y0211077D01*
X0117913Y0211110D01*
X0117882Y0211145D01*
X0117855Y0211183D01*
X0117831Y0211223D01*
X0117810Y0211264D01*
X0117793Y0211308D01*
X0117779Y0211352D01*
X0117770Y0211398D01*
X0117764Y0211444D01*
X0117762Y0211491D01*
X0117762Y0179491D02*
X0117764Y0179538D01*
X0117770Y0179584D01*
X0117779Y0179630D01*
X0117793Y0179674D01*
X0117810Y0179718D01*
X0117831Y0179759D01*
X0117855Y0179799D01*
X0117882Y0179837D01*
X0117913Y0179872D01*
X0117946Y0179905D01*
X0117982Y0179935D01*
X0118021Y0179961D01*
X0118061Y0179985D01*
X0118103Y0180004D01*
X0118147Y0180021D01*
X0118192Y0180033D01*
X0118238Y0180042D01*
X0118284Y0180047D01*
X0118331Y0180048D01*
X0118377Y0180045D01*
X0118423Y0180038D01*
X0118469Y0180027D01*
X0118513Y0180013D01*
X0118556Y0179995D01*
X0118597Y0179973D01*
X0118637Y0179948D01*
X0118674Y0179920D01*
X0118709Y0179889D01*
X0118741Y0179855D01*
X0118770Y0179818D01*
X0118795Y0179780D01*
X0118818Y0179739D01*
X0118837Y0179696D01*
X0118852Y0179652D01*
X0118864Y0179607D01*
X0118872Y0179561D01*
X0118876Y0179514D01*
X0118876Y0179468D01*
X0118872Y0179421D01*
X0118864Y0179375D01*
X0118852Y0179330D01*
X0118837Y0179286D01*
X0118818Y0179243D01*
X0118795Y0179202D01*
X0118770Y0179164D01*
X0118741Y0179127D01*
X0118709Y0179093D01*
X0118674Y0179062D01*
X0118637Y0179034D01*
X0118598Y0179009D01*
X0118556Y0178987D01*
X0118513Y0178969D01*
X0118469Y0178955D01*
X0118423Y0178944D01*
X0118377Y0178937D01*
X0118331Y0178934D01*
X0118284Y0178935D01*
X0118238Y0178940D01*
X0118192Y0178949D01*
X0118147Y0178961D01*
X0118103Y0178978D01*
X0118061Y0178997D01*
X0118021Y0179021D01*
X0117982Y0179047D01*
X0117946Y0179077D01*
X0117913Y0179110D01*
X0117882Y0179145D01*
X0117855Y0179183D01*
X0117831Y0179223D01*
X0117810Y0179264D01*
X0117793Y0179308D01*
X0117779Y0179352D01*
X0117770Y0179398D01*
X0117764Y0179444D01*
X0117762Y0179491D01*
X0117762Y0147491D02*
X0117764Y0147538D01*
X0117770Y0147584D01*
X0117779Y0147630D01*
X0117793Y0147674D01*
X0117810Y0147718D01*
X0117831Y0147759D01*
X0117855Y0147799D01*
X0117882Y0147837D01*
X0117913Y0147872D01*
X0117946Y0147905D01*
X0117982Y0147935D01*
X0118021Y0147961D01*
X0118061Y0147985D01*
X0118103Y0148004D01*
X0118147Y0148021D01*
X0118192Y0148033D01*
X0118238Y0148042D01*
X0118284Y0148047D01*
X0118331Y0148048D01*
X0118377Y0148045D01*
X0118423Y0148038D01*
X0118469Y0148027D01*
X0118513Y0148013D01*
X0118556Y0147995D01*
X0118597Y0147973D01*
X0118637Y0147948D01*
X0118674Y0147920D01*
X0118709Y0147889D01*
X0118741Y0147855D01*
X0118770Y0147818D01*
X0118795Y0147780D01*
X0118818Y0147739D01*
X0118837Y0147696D01*
X0118852Y0147652D01*
X0118864Y0147607D01*
X0118872Y0147561D01*
X0118876Y0147514D01*
X0118876Y0147468D01*
X0118872Y0147421D01*
X0118864Y0147375D01*
X0118852Y0147330D01*
X0118837Y0147286D01*
X0118818Y0147243D01*
X0118795Y0147202D01*
X0118770Y0147164D01*
X0118741Y0147127D01*
X0118709Y0147093D01*
X0118674Y0147062D01*
X0118637Y0147034D01*
X0118598Y0147009D01*
X0118556Y0146987D01*
X0118513Y0146969D01*
X0118469Y0146955D01*
X0118423Y0146944D01*
X0118377Y0146937D01*
X0118331Y0146934D01*
X0118284Y0146935D01*
X0118238Y0146940D01*
X0118192Y0146949D01*
X0118147Y0146961D01*
X0118103Y0146978D01*
X0118061Y0146997D01*
X0118021Y0147021D01*
X0117982Y0147047D01*
X0117946Y0147077D01*
X0117913Y0147110D01*
X0117882Y0147145D01*
X0117855Y0147183D01*
X0117831Y0147223D01*
X0117810Y0147264D01*
X0117793Y0147308D01*
X0117779Y0147352D01*
X0117770Y0147398D01*
X0117764Y0147444D01*
X0117762Y0147491D01*
X0117762Y0115491D02*
X0117764Y0115538D01*
X0117770Y0115584D01*
X0117779Y0115630D01*
X0117793Y0115674D01*
X0117810Y0115718D01*
X0117831Y0115759D01*
X0117855Y0115799D01*
X0117882Y0115837D01*
X0117913Y0115872D01*
X0117946Y0115905D01*
X0117982Y0115935D01*
X0118021Y0115961D01*
X0118061Y0115985D01*
X0118103Y0116004D01*
X0118147Y0116021D01*
X0118192Y0116033D01*
X0118238Y0116042D01*
X0118284Y0116047D01*
X0118331Y0116048D01*
X0118377Y0116045D01*
X0118423Y0116038D01*
X0118469Y0116027D01*
X0118513Y0116013D01*
X0118556Y0115995D01*
X0118597Y0115973D01*
X0118637Y0115948D01*
X0118674Y0115920D01*
X0118709Y0115889D01*
X0118741Y0115855D01*
X0118770Y0115818D01*
X0118795Y0115780D01*
X0118818Y0115739D01*
X0118837Y0115696D01*
X0118852Y0115652D01*
X0118864Y0115607D01*
X0118872Y0115561D01*
X0118876Y0115514D01*
X0118876Y0115468D01*
X0118872Y0115421D01*
X0118864Y0115375D01*
X0118852Y0115330D01*
X0118837Y0115286D01*
X0118818Y0115243D01*
X0118795Y0115202D01*
X0118770Y0115164D01*
X0118741Y0115127D01*
X0118709Y0115093D01*
X0118674Y0115062D01*
X0118637Y0115034D01*
X0118598Y0115009D01*
X0118556Y0114987D01*
X0118513Y0114969D01*
X0118469Y0114955D01*
X0118423Y0114944D01*
X0118377Y0114937D01*
X0118331Y0114934D01*
X0118284Y0114935D01*
X0118238Y0114940D01*
X0118192Y0114949D01*
X0118147Y0114961D01*
X0118103Y0114978D01*
X0118061Y0114997D01*
X0118021Y0115021D01*
X0117982Y0115047D01*
X0117946Y0115077D01*
X0117913Y0115110D01*
X0117882Y0115145D01*
X0117855Y0115183D01*
X0117831Y0115223D01*
X0117810Y0115264D01*
X0117793Y0115308D01*
X0117779Y0115352D01*
X0117770Y0115398D01*
X0117764Y0115444D01*
X0117762Y0115491D01*
X0117762Y0083491D02*
X0117764Y0083538D01*
X0117770Y0083584D01*
X0117779Y0083630D01*
X0117793Y0083674D01*
X0117810Y0083718D01*
X0117831Y0083759D01*
X0117855Y0083799D01*
X0117882Y0083837D01*
X0117913Y0083872D01*
X0117946Y0083905D01*
X0117982Y0083935D01*
X0118021Y0083961D01*
X0118061Y0083985D01*
X0118103Y0084004D01*
X0118147Y0084021D01*
X0118192Y0084033D01*
X0118238Y0084042D01*
X0118284Y0084047D01*
X0118331Y0084048D01*
X0118377Y0084045D01*
X0118423Y0084038D01*
X0118469Y0084027D01*
X0118513Y0084013D01*
X0118556Y0083995D01*
X0118597Y0083973D01*
X0118637Y0083948D01*
X0118674Y0083920D01*
X0118709Y0083889D01*
X0118741Y0083855D01*
X0118770Y0083818D01*
X0118795Y0083780D01*
X0118818Y0083739D01*
X0118837Y0083696D01*
X0118852Y0083652D01*
X0118864Y0083607D01*
X0118872Y0083561D01*
X0118876Y0083514D01*
X0118876Y0083468D01*
X0118872Y0083421D01*
X0118864Y0083375D01*
X0118852Y0083330D01*
X0118837Y0083286D01*
X0118818Y0083243D01*
X0118795Y0083202D01*
X0118770Y0083164D01*
X0118741Y0083127D01*
X0118709Y0083093D01*
X0118674Y0083062D01*
X0118637Y0083034D01*
X0118598Y0083009D01*
X0118556Y0082987D01*
X0118513Y0082969D01*
X0118469Y0082955D01*
X0118423Y0082944D01*
X0118377Y0082937D01*
X0118331Y0082934D01*
X0118284Y0082935D01*
X0118238Y0082940D01*
X0118192Y0082949D01*
X0118147Y0082961D01*
X0118103Y0082978D01*
X0118061Y0082997D01*
X0118021Y0083021D01*
X0117982Y0083047D01*
X0117946Y0083077D01*
X0117913Y0083110D01*
X0117882Y0083145D01*
X0117855Y0083183D01*
X0117831Y0083223D01*
X0117810Y0083264D01*
X0117793Y0083308D01*
X0117779Y0083352D01*
X0117770Y0083398D01*
X0117764Y0083444D01*
X0117762Y0083491D01*
X0070124Y0103176D02*
X0070126Y0103223D01*
X0070132Y0103269D01*
X0070141Y0103315D01*
X0070155Y0103359D01*
X0070172Y0103403D01*
X0070193Y0103444D01*
X0070217Y0103484D01*
X0070244Y0103522D01*
X0070275Y0103557D01*
X0070308Y0103590D01*
X0070344Y0103620D01*
X0070383Y0103646D01*
X0070423Y0103670D01*
X0070465Y0103689D01*
X0070509Y0103706D01*
X0070554Y0103718D01*
X0070600Y0103727D01*
X0070646Y0103732D01*
X0070693Y0103733D01*
X0070739Y0103730D01*
X0070785Y0103723D01*
X0070831Y0103712D01*
X0070875Y0103698D01*
X0070918Y0103680D01*
X0070959Y0103658D01*
X0070999Y0103633D01*
X0071036Y0103605D01*
X0071071Y0103574D01*
X0071103Y0103540D01*
X0071132Y0103503D01*
X0071157Y0103465D01*
X0071180Y0103424D01*
X0071199Y0103381D01*
X0071214Y0103337D01*
X0071226Y0103292D01*
X0071234Y0103246D01*
X0071238Y0103199D01*
X0071238Y0103153D01*
X0071234Y0103106D01*
X0071226Y0103060D01*
X0071214Y0103015D01*
X0071199Y0102971D01*
X0071180Y0102928D01*
X0071157Y0102887D01*
X0071132Y0102849D01*
X0071103Y0102812D01*
X0071071Y0102778D01*
X0071036Y0102747D01*
X0070999Y0102719D01*
X0070960Y0102694D01*
X0070918Y0102672D01*
X0070875Y0102654D01*
X0070831Y0102640D01*
X0070785Y0102629D01*
X0070739Y0102622D01*
X0070693Y0102619D01*
X0070646Y0102620D01*
X0070600Y0102625D01*
X0070554Y0102634D01*
X0070509Y0102646D01*
X0070465Y0102663D01*
X0070423Y0102682D01*
X0070383Y0102706D01*
X0070344Y0102732D01*
X0070308Y0102762D01*
X0070275Y0102795D01*
X0070244Y0102830D01*
X0070217Y0102868D01*
X0070193Y0102908D01*
X0070172Y0102949D01*
X0070155Y0102993D01*
X0070141Y0103037D01*
X0070132Y0103083D01*
X0070126Y0103129D01*
X0070124Y0103176D01*
X0070124Y0135176D02*
X0070126Y0135223D01*
X0070132Y0135269D01*
X0070141Y0135315D01*
X0070155Y0135359D01*
X0070172Y0135403D01*
X0070193Y0135444D01*
X0070217Y0135484D01*
X0070244Y0135522D01*
X0070275Y0135557D01*
X0070308Y0135590D01*
X0070344Y0135620D01*
X0070383Y0135646D01*
X0070423Y0135670D01*
X0070465Y0135689D01*
X0070509Y0135706D01*
X0070554Y0135718D01*
X0070600Y0135727D01*
X0070646Y0135732D01*
X0070693Y0135733D01*
X0070739Y0135730D01*
X0070785Y0135723D01*
X0070831Y0135712D01*
X0070875Y0135698D01*
X0070918Y0135680D01*
X0070959Y0135658D01*
X0070999Y0135633D01*
X0071036Y0135605D01*
X0071071Y0135574D01*
X0071103Y0135540D01*
X0071132Y0135503D01*
X0071157Y0135465D01*
X0071180Y0135424D01*
X0071199Y0135381D01*
X0071214Y0135337D01*
X0071226Y0135292D01*
X0071234Y0135246D01*
X0071238Y0135199D01*
X0071238Y0135153D01*
X0071234Y0135106D01*
X0071226Y0135060D01*
X0071214Y0135015D01*
X0071199Y0134971D01*
X0071180Y0134928D01*
X0071157Y0134887D01*
X0071132Y0134849D01*
X0071103Y0134812D01*
X0071071Y0134778D01*
X0071036Y0134747D01*
X0070999Y0134719D01*
X0070960Y0134694D01*
X0070918Y0134672D01*
X0070875Y0134654D01*
X0070831Y0134640D01*
X0070785Y0134629D01*
X0070739Y0134622D01*
X0070693Y0134619D01*
X0070646Y0134620D01*
X0070600Y0134625D01*
X0070554Y0134634D01*
X0070509Y0134646D01*
X0070465Y0134663D01*
X0070423Y0134682D01*
X0070383Y0134706D01*
X0070344Y0134732D01*
X0070308Y0134762D01*
X0070275Y0134795D01*
X0070244Y0134830D01*
X0070217Y0134868D01*
X0070193Y0134908D01*
X0070172Y0134949D01*
X0070155Y0134993D01*
X0070141Y0135037D01*
X0070132Y0135083D01*
X0070126Y0135129D01*
X0070124Y0135176D01*
X0070124Y0167176D02*
X0070126Y0167223D01*
X0070132Y0167269D01*
X0070141Y0167315D01*
X0070155Y0167359D01*
X0070172Y0167403D01*
X0070193Y0167444D01*
X0070217Y0167484D01*
X0070244Y0167522D01*
X0070275Y0167557D01*
X0070308Y0167590D01*
X0070344Y0167620D01*
X0070383Y0167646D01*
X0070423Y0167670D01*
X0070465Y0167689D01*
X0070509Y0167706D01*
X0070554Y0167718D01*
X0070600Y0167727D01*
X0070646Y0167732D01*
X0070693Y0167733D01*
X0070739Y0167730D01*
X0070785Y0167723D01*
X0070831Y0167712D01*
X0070875Y0167698D01*
X0070918Y0167680D01*
X0070959Y0167658D01*
X0070999Y0167633D01*
X0071036Y0167605D01*
X0071071Y0167574D01*
X0071103Y0167540D01*
X0071132Y0167503D01*
X0071157Y0167465D01*
X0071180Y0167424D01*
X0071199Y0167381D01*
X0071214Y0167337D01*
X0071226Y0167292D01*
X0071234Y0167246D01*
X0071238Y0167199D01*
X0071238Y0167153D01*
X0071234Y0167106D01*
X0071226Y0167060D01*
X0071214Y0167015D01*
X0071199Y0166971D01*
X0071180Y0166928D01*
X0071157Y0166887D01*
X0071132Y0166849D01*
X0071103Y0166812D01*
X0071071Y0166778D01*
X0071036Y0166747D01*
X0070999Y0166719D01*
X0070960Y0166694D01*
X0070918Y0166672D01*
X0070875Y0166654D01*
X0070831Y0166640D01*
X0070785Y0166629D01*
X0070739Y0166622D01*
X0070693Y0166619D01*
X0070646Y0166620D01*
X0070600Y0166625D01*
X0070554Y0166634D01*
X0070509Y0166646D01*
X0070465Y0166663D01*
X0070423Y0166682D01*
X0070383Y0166706D01*
X0070344Y0166732D01*
X0070308Y0166762D01*
X0070275Y0166795D01*
X0070244Y0166830D01*
X0070217Y0166868D01*
X0070193Y0166908D01*
X0070172Y0166949D01*
X0070155Y0166993D01*
X0070141Y0167037D01*
X0070132Y0167083D01*
X0070126Y0167129D01*
X0070124Y0167176D01*
X0070124Y0199176D02*
X0070126Y0199223D01*
X0070132Y0199269D01*
X0070141Y0199315D01*
X0070155Y0199359D01*
X0070172Y0199403D01*
X0070193Y0199444D01*
X0070217Y0199484D01*
X0070244Y0199522D01*
X0070275Y0199557D01*
X0070308Y0199590D01*
X0070344Y0199620D01*
X0070383Y0199646D01*
X0070423Y0199670D01*
X0070465Y0199689D01*
X0070509Y0199706D01*
X0070554Y0199718D01*
X0070600Y0199727D01*
X0070646Y0199732D01*
X0070693Y0199733D01*
X0070739Y0199730D01*
X0070785Y0199723D01*
X0070831Y0199712D01*
X0070875Y0199698D01*
X0070918Y0199680D01*
X0070959Y0199658D01*
X0070999Y0199633D01*
X0071036Y0199605D01*
X0071071Y0199574D01*
X0071103Y0199540D01*
X0071132Y0199503D01*
X0071157Y0199465D01*
X0071180Y0199424D01*
X0071199Y0199381D01*
X0071214Y0199337D01*
X0071226Y0199292D01*
X0071234Y0199246D01*
X0071238Y0199199D01*
X0071238Y0199153D01*
X0071234Y0199106D01*
X0071226Y0199060D01*
X0071214Y0199015D01*
X0071199Y0198971D01*
X0071180Y0198928D01*
X0071157Y0198887D01*
X0071132Y0198849D01*
X0071103Y0198812D01*
X0071071Y0198778D01*
X0071036Y0198747D01*
X0070999Y0198719D01*
X0070960Y0198694D01*
X0070918Y0198672D01*
X0070875Y0198654D01*
X0070831Y0198640D01*
X0070785Y0198629D01*
X0070739Y0198622D01*
X0070693Y0198619D01*
X0070646Y0198620D01*
X0070600Y0198625D01*
X0070554Y0198634D01*
X0070509Y0198646D01*
X0070465Y0198663D01*
X0070423Y0198682D01*
X0070383Y0198706D01*
X0070344Y0198732D01*
X0070308Y0198762D01*
X0070275Y0198795D01*
X0070244Y0198830D01*
X0070217Y0198868D01*
X0070193Y0198908D01*
X0070172Y0198949D01*
X0070155Y0198993D01*
X0070141Y0199037D01*
X0070132Y0199083D01*
X0070126Y0199129D01*
X0070124Y0199176D01*
X0070124Y0231176D02*
X0070126Y0231223D01*
X0070132Y0231269D01*
X0070141Y0231315D01*
X0070155Y0231359D01*
X0070172Y0231403D01*
X0070193Y0231444D01*
X0070217Y0231484D01*
X0070244Y0231522D01*
X0070275Y0231557D01*
X0070308Y0231590D01*
X0070344Y0231620D01*
X0070383Y0231646D01*
X0070423Y0231670D01*
X0070465Y0231689D01*
X0070509Y0231706D01*
X0070554Y0231718D01*
X0070600Y0231727D01*
X0070646Y0231732D01*
X0070693Y0231733D01*
X0070739Y0231730D01*
X0070785Y0231723D01*
X0070831Y0231712D01*
X0070875Y0231698D01*
X0070918Y0231680D01*
X0070959Y0231658D01*
X0070999Y0231633D01*
X0071036Y0231605D01*
X0071071Y0231574D01*
X0071103Y0231540D01*
X0071132Y0231503D01*
X0071157Y0231465D01*
X0071180Y0231424D01*
X0071199Y0231381D01*
X0071214Y0231337D01*
X0071226Y0231292D01*
X0071234Y0231246D01*
X0071238Y0231199D01*
X0071238Y0231153D01*
X0071234Y0231106D01*
X0071226Y0231060D01*
X0071214Y0231015D01*
X0071199Y0230971D01*
X0071180Y0230928D01*
X0071157Y0230887D01*
X0071132Y0230849D01*
X0071103Y0230812D01*
X0071071Y0230778D01*
X0071036Y0230747D01*
X0070999Y0230719D01*
X0070960Y0230694D01*
X0070918Y0230672D01*
X0070875Y0230654D01*
X0070831Y0230640D01*
X0070785Y0230629D01*
X0070739Y0230622D01*
X0070693Y0230619D01*
X0070646Y0230620D01*
X0070600Y0230625D01*
X0070554Y0230634D01*
X0070509Y0230646D01*
X0070465Y0230663D01*
X0070423Y0230682D01*
X0070383Y0230706D01*
X0070344Y0230732D01*
X0070308Y0230762D01*
X0070275Y0230795D01*
X0070244Y0230830D01*
X0070217Y0230868D01*
X0070193Y0230908D01*
X0070172Y0230949D01*
X0070155Y0230993D01*
X0070141Y0231037D01*
X0070132Y0231083D01*
X0070126Y0231129D01*
X0070124Y0231176D01*
X0070124Y0263176D02*
X0070126Y0263223D01*
X0070132Y0263269D01*
X0070141Y0263315D01*
X0070155Y0263359D01*
X0070172Y0263403D01*
X0070193Y0263444D01*
X0070217Y0263484D01*
X0070244Y0263522D01*
X0070275Y0263557D01*
X0070308Y0263590D01*
X0070344Y0263620D01*
X0070383Y0263646D01*
X0070423Y0263670D01*
X0070465Y0263689D01*
X0070509Y0263706D01*
X0070554Y0263718D01*
X0070600Y0263727D01*
X0070646Y0263732D01*
X0070693Y0263733D01*
X0070739Y0263730D01*
X0070785Y0263723D01*
X0070831Y0263712D01*
X0070875Y0263698D01*
X0070918Y0263680D01*
X0070959Y0263658D01*
X0070999Y0263633D01*
X0071036Y0263605D01*
X0071071Y0263574D01*
X0071103Y0263540D01*
X0071132Y0263503D01*
X0071157Y0263465D01*
X0071180Y0263424D01*
X0071199Y0263381D01*
X0071214Y0263337D01*
X0071226Y0263292D01*
X0071234Y0263246D01*
X0071238Y0263199D01*
X0071238Y0263153D01*
X0071234Y0263106D01*
X0071226Y0263060D01*
X0071214Y0263015D01*
X0071199Y0262971D01*
X0071180Y0262928D01*
X0071157Y0262887D01*
X0071132Y0262849D01*
X0071103Y0262812D01*
X0071071Y0262778D01*
X0071036Y0262747D01*
X0070999Y0262719D01*
X0070960Y0262694D01*
X0070918Y0262672D01*
X0070875Y0262654D01*
X0070831Y0262640D01*
X0070785Y0262629D01*
X0070739Y0262622D01*
X0070693Y0262619D01*
X0070646Y0262620D01*
X0070600Y0262625D01*
X0070554Y0262634D01*
X0070509Y0262646D01*
X0070465Y0262663D01*
X0070423Y0262682D01*
X0070383Y0262706D01*
X0070344Y0262732D01*
X0070308Y0262762D01*
X0070275Y0262795D01*
X0070244Y0262830D01*
X0070217Y0262868D01*
X0070193Y0262908D01*
X0070172Y0262949D01*
X0070155Y0262993D01*
X0070141Y0263037D01*
X0070132Y0263083D01*
X0070126Y0263129D01*
X0070124Y0263176D01*
X0070124Y0295176D02*
X0070126Y0295223D01*
X0070132Y0295269D01*
X0070141Y0295315D01*
X0070155Y0295359D01*
X0070172Y0295403D01*
X0070193Y0295444D01*
X0070217Y0295484D01*
X0070244Y0295522D01*
X0070275Y0295557D01*
X0070308Y0295590D01*
X0070344Y0295620D01*
X0070383Y0295646D01*
X0070423Y0295670D01*
X0070465Y0295689D01*
X0070509Y0295706D01*
X0070554Y0295718D01*
X0070600Y0295727D01*
X0070646Y0295732D01*
X0070693Y0295733D01*
X0070739Y0295730D01*
X0070785Y0295723D01*
X0070831Y0295712D01*
X0070875Y0295698D01*
X0070918Y0295680D01*
X0070959Y0295658D01*
X0070999Y0295633D01*
X0071036Y0295605D01*
X0071071Y0295574D01*
X0071103Y0295540D01*
X0071132Y0295503D01*
X0071157Y0295465D01*
X0071180Y0295424D01*
X0071199Y0295381D01*
X0071214Y0295337D01*
X0071226Y0295292D01*
X0071234Y0295246D01*
X0071238Y0295199D01*
X0071238Y0295153D01*
X0071234Y0295106D01*
X0071226Y0295060D01*
X0071214Y0295015D01*
X0071199Y0294971D01*
X0071180Y0294928D01*
X0071157Y0294887D01*
X0071132Y0294849D01*
X0071103Y0294812D01*
X0071071Y0294778D01*
X0071036Y0294747D01*
X0070999Y0294719D01*
X0070960Y0294694D01*
X0070918Y0294672D01*
X0070875Y0294654D01*
X0070831Y0294640D01*
X0070785Y0294629D01*
X0070739Y0294622D01*
X0070693Y0294619D01*
X0070646Y0294620D01*
X0070600Y0294625D01*
X0070554Y0294634D01*
X0070509Y0294646D01*
X0070465Y0294663D01*
X0070423Y0294682D01*
X0070383Y0294706D01*
X0070344Y0294732D01*
X0070308Y0294762D01*
X0070275Y0294795D01*
X0070244Y0294830D01*
X0070217Y0294868D01*
X0070193Y0294908D01*
X0070172Y0294949D01*
X0070155Y0294993D01*
X0070141Y0295037D01*
X0070132Y0295083D01*
X0070126Y0295129D01*
X0070124Y0295176D01*
X0070124Y0327176D02*
X0070126Y0327223D01*
X0070132Y0327269D01*
X0070141Y0327315D01*
X0070155Y0327359D01*
X0070172Y0327403D01*
X0070193Y0327444D01*
X0070217Y0327484D01*
X0070244Y0327522D01*
X0070275Y0327557D01*
X0070308Y0327590D01*
X0070344Y0327620D01*
X0070383Y0327646D01*
X0070423Y0327670D01*
X0070465Y0327689D01*
X0070509Y0327706D01*
X0070554Y0327718D01*
X0070600Y0327727D01*
X0070646Y0327732D01*
X0070693Y0327733D01*
X0070739Y0327730D01*
X0070785Y0327723D01*
X0070831Y0327712D01*
X0070875Y0327698D01*
X0070918Y0327680D01*
X0070959Y0327658D01*
X0070999Y0327633D01*
X0071036Y0327605D01*
X0071071Y0327574D01*
X0071103Y0327540D01*
X0071132Y0327503D01*
X0071157Y0327465D01*
X0071180Y0327424D01*
X0071199Y0327381D01*
X0071214Y0327337D01*
X0071226Y0327292D01*
X0071234Y0327246D01*
X0071238Y0327199D01*
X0071238Y0327153D01*
X0071234Y0327106D01*
X0071226Y0327060D01*
X0071214Y0327015D01*
X0071199Y0326971D01*
X0071180Y0326928D01*
X0071157Y0326887D01*
X0071132Y0326849D01*
X0071103Y0326812D01*
X0071071Y0326778D01*
X0071036Y0326747D01*
X0070999Y0326719D01*
X0070960Y0326694D01*
X0070918Y0326672D01*
X0070875Y0326654D01*
X0070831Y0326640D01*
X0070785Y0326629D01*
X0070739Y0326622D01*
X0070693Y0326619D01*
X0070646Y0326620D01*
X0070600Y0326625D01*
X0070554Y0326634D01*
X0070509Y0326646D01*
X0070465Y0326663D01*
X0070423Y0326682D01*
X0070383Y0326706D01*
X0070344Y0326732D01*
X0070308Y0326762D01*
X0070275Y0326795D01*
X0070244Y0326830D01*
X0070217Y0326868D01*
X0070193Y0326908D01*
X0070172Y0326949D01*
X0070155Y0326993D01*
X0070141Y0327037D01*
X0070132Y0327083D01*
X0070126Y0327129D01*
X0070124Y0327176D01*
M02*
