%
M48
M72
T01C0.0150
T02C0.0400
%
T01
X7450Y10483
X7450Y13683
X7450Y16883
X7450Y20083
X7450Y23283
X7450Y26483
X7450Y29683
X7450Y32883
X16650Y32883
X16650Y29683
X16650Y26483
X16650Y23283
X16650Y20083
X16650Y16883
X16650Y13683
X16650Y10483
X25850Y10483
X25850Y13683
X25850Y16883
X25850Y20083
X25850Y23283
X25850Y26483
X25850Y29683
X25850Y32883
X35050Y32883
X35050Y29683
X35050Y26483
X35050Y23283
X35050Y20083
X35050Y16883
X35050Y13683
X35050Y10483
T02
X7950Y9833
X8950Y9833
X9950Y9833
X10950Y9833
X10950Y13033
X9950Y13033
X8950Y13033
X7950Y13033
X7950Y16233
X8950Y16233
X9950Y16233
X10950Y16233
X10950Y19433
X9950Y19433
X8950Y19433
X7950Y19433
X7950Y22633
X8950Y22633
X9950Y22633
X10950Y22633
X10950Y25833
X9950Y25833
X8950Y25833
X7950Y25833
X7950Y29033
X8950Y29033
X9950Y29033
X10950Y29033
X10950Y32233
X9950Y32233
X8950Y32233
X7950Y32233
X17150Y32233
X18150Y32233
X19150Y32233
X20150Y32233
X20150Y29033
X19150Y29033
X18150Y29033
X17150Y29033
X17150Y25833
X18150Y25833
X19150Y25833
X20150Y25833
X20150Y22633
X19150Y22633
X18150Y22633
X17150Y22633
X17150Y19433
X18150Y19433
X19150Y19433
X20150Y19433
X20150Y16233
X19150Y16233
X18150Y16233
X17150Y16233
X17150Y13033
X18150Y13033
X19150Y13033
X20150Y13033
X20150Y9833
X19150Y9833
X18150Y9833
X17150Y9833
X26350Y9833
X27350Y9833
X28350Y9833
X29350Y9833
X29350Y13033
X28350Y13033
X27350Y13033
X26350Y13033
X26350Y16233
X27350Y16233
X28350Y16233
X29350Y16233
X29350Y19433
X28350Y19433
X27350Y19433
X26350Y19433
X26350Y22633
X27350Y22633
X28350Y22633
X29350Y22633
X29350Y25833
X28350Y25833
X27350Y25833
X26350Y25833
X26350Y29033
X27350Y29033
X28350Y29033
X29350Y29033
X29350Y32233
X28350Y32233
X27350Y32233
X26350Y32233
X35550Y32233
X36550Y32233
X37550Y32233
X38550Y32233
X38550Y29033
X37550Y29033
X36550Y29033
X35550Y29033
X35550Y25833
X36550Y25833
X37550Y25833
X38550Y25833
X38550Y22633
X37550Y22633
X36550Y22633
X35550Y22633
X35550Y19433
X36550Y19433
X37550Y19433
X38550Y19433
X38550Y16233
X37550Y16233
X36550Y16233
X35550Y16233
X35550Y13033
X36550Y13033
X37550Y13033
X38550Y13033
X38550Y9833
X37550Y9833
X36550Y9833
X35550Y9833
M30
