G75*
%MOIN*%
%OFA0B0*%
%FSLAX25Y25*%
%IPPOS*%
%LPD*%
%AMOC8*
5,1,8,0,0,1.08239X$1,22.5*
%
%ADD10C,0.08200*%
D10*
X0079500Y0098333D03*
X0089500Y0098333D03*
X0099500Y0098333D03*
X0109500Y0098333D03*
X0109500Y0130333D03*
X0099500Y0130333D03*
X0089500Y0130333D03*
X0079500Y0130333D03*
X0079500Y0162333D03*
X0089500Y0162333D03*
X0099500Y0162333D03*
X0109500Y0162333D03*
X0109500Y0194333D03*
X0099500Y0194333D03*
X0089500Y0194333D03*
X0079500Y0194333D03*
X0079500Y0226333D03*
X0089500Y0226333D03*
X0099500Y0226333D03*
X0109500Y0226333D03*
X0109500Y0258333D03*
X0099500Y0258333D03*
X0089500Y0258333D03*
X0079500Y0258333D03*
X0079500Y0290333D03*
X0089500Y0290333D03*
X0099500Y0290333D03*
X0109500Y0290333D03*
X0109500Y0322333D03*
X0099500Y0322333D03*
X0089500Y0322333D03*
X0079500Y0322333D03*
X0171500Y0322333D03*
X0181500Y0322333D03*
X0191500Y0322333D03*
X0201500Y0322333D03*
X0201500Y0290333D03*
X0191500Y0290333D03*
X0181500Y0290333D03*
X0171500Y0290333D03*
X0171500Y0258333D03*
X0181500Y0258333D03*
X0191500Y0258333D03*
X0201500Y0258333D03*
X0201500Y0226333D03*
X0191500Y0226333D03*
X0181500Y0226333D03*
X0171500Y0226333D03*
X0171500Y0194333D03*
X0181500Y0194333D03*
X0191500Y0194333D03*
X0201500Y0194333D03*
X0201500Y0162333D03*
X0191500Y0162333D03*
X0181500Y0162333D03*
X0171500Y0162333D03*
X0171500Y0130333D03*
X0181500Y0130333D03*
X0191500Y0130333D03*
X0201500Y0130333D03*
X0201500Y0098333D03*
X0191500Y0098333D03*
X0181500Y0098333D03*
X0171500Y0098333D03*
X0263500Y0098333D03*
X0273500Y0098333D03*
X0283500Y0098333D03*
X0293500Y0098333D03*
X0293500Y0130333D03*
X0283500Y0130333D03*
X0273500Y0130333D03*
X0263500Y0130333D03*
X0263500Y0162333D03*
X0273500Y0162333D03*
X0283500Y0162333D03*
X0293500Y0162333D03*
X0293500Y0194333D03*
X0283500Y0194333D03*
X0273500Y0194333D03*
X0263500Y0194333D03*
X0263500Y0226333D03*
X0273500Y0226333D03*
X0283500Y0226333D03*
X0293500Y0226333D03*
X0293500Y0258333D03*
X0283500Y0258333D03*
X0273500Y0258333D03*
X0263500Y0258333D03*
X0263500Y0290333D03*
X0273500Y0290333D03*
X0283500Y0290333D03*
X0293500Y0290333D03*
X0293500Y0322333D03*
X0283500Y0322333D03*
X0273500Y0322333D03*
X0263500Y0322333D03*
X0355500Y0322333D03*
X0365500Y0322333D03*
X0375500Y0322333D03*
X0385500Y0322333D03*
X0385500Y0290333D03*
X0375500Y0290333D03*
X0365500Y0290333D03*
X0355500Y0290333D03*
X0355500Y0258333D03*
X0365500Y0258333D03*
X0375500Y0258333D03*
X0385500Y0258333D03*
X0385500Y0226333D03*
X0375500Y0226333D03*
X0365500Y0226333D03*
X0355500Y0226333D03*
X0355500Y0194333D03*
X0365500Y0194333D03*
X0375500Y0194333D03*
X0385500Y0194333D03*
X0385500Y0162333D03*
X0375500Y0162333D03*
X0365500Y0162333D03*
X0355500Y0162333D03*
X0355500Y0130333D03*
X0365500Y0130333D03*
X0375500Y0130333D03*
X0385500Y0130333D03*
X0385500Y0098333D03*
X0375500Y0098333D03*
X0365500Y0098333D03*
X0355500Y0098333D03*
M02*
