G75*
%MOIN*%
%OFA0B0*%
%FSLAX25Y25*%
%IPPOS*%
%LPD*%
%AMOC8*
5,1,8,0,0,1.08239X$1,22.5*
%
%ADD10C,0.07400*%
%ADD11C,0.03500*%
%ADD12C,0.01200*%
D10*
X0079500Y0098333D03*
X0089500Y0098333D03*
X0099500Y0098333D03*
X0109500Y0098333D03*
X0109500Y0130333D03*
X0099500Y0130333D03*
X0089500Y0130333D03*
X0079500Y0130333D03*
X0079500Y0162333D03*
X0089500Y0162333D03*
X0099500Y0162333D03*
X0109500Y0162333D03*
X0109500Y0194333D03*
X0099500Y0194333D03*
X0089500Y0194333D03*
X0079500Y0194333D03*
X0079500Y0226333D03*
X0089500Y0226333D03*
X0099500Y0226333D03*
X0109500Y0226333D03*
X0109500Y0258333D03*
X0099500Y0258333D03*
X0089500Y0258333D03*
X0079500Y0258333D03*
X0079500Y0290333D03*
X0089500Y0290333D03*
X0099500Y0290333D03*
X0109500Y0290333D03*
X0109500Y0322333D03*
X0099500Y0322333D03*
X0089500Y0322333D03*
X0079500Y0322333D03*
X0171500Y0322333D03*
X0181500Y0322333D03*
X0191500Y0322333D03*
X0201500Y0322333D03*
X0201500Y0290333D03*
X0191500Y0290333D03*
X0181500Y0290333D03*
X0171500Y0290333D03*
X0171500Y0258333D03*
X0181500Y0258333D03*
X0191500Y0258333D03*
X0201500Y0258333D03*
X0201500Y0226333D03*
X0191500Y0226333D03*
X0181500Y0226333D03*
X0171500Y0226333D03*
X0171500Y0194333D03*
X0181500Y0194333D03*
X0191500Y0194333D03*
X0201500Y0194333D03*
X0201500Y0162333D03*
X0191500Y0162333D03*
X0181500Y0162333D03*
X0171500Y0162333D03*
X0171500Y0130333D03*
X0181500Y0130333D03*
X0191500Y0130333D03*
X0201500Y0130333D03*
X0201500Y0098333D03*
X0191500Y0098333D03*
X0181500Y0098333D03*
X0171500Y0098333D03*
X0263500Y0098333D03*
X0273500Y0098333D03*
X0283500Y0098333D03*
X0293500Y0098333D03*
X0293500Y0130333D03*
X0283500Y0130333D03*
X0273500Y0130333D03*
X0263500Y0130333D03*
X0263500Y0162333D03*
X0273500Y0162333D03*
X0283500Y0162333D03*
X0293500Y0162333D03*
X0293500Y0194333D03*
X0283500Y0194333D03*
X0273500Y0194333D03*
X0263500Y0194333D03*
X0263500Y0226333D03*
X0273500Y0226333D03*
X0283500Y0226333D03*
X0293500Y0226333D03*
X0293500Y0258333D03*
X0283500Y0258333D03*
X0273500Y0258333D03*
X0263500Y0258333D03*
X0263500Y0290333D03*
X0273500Y0290333D03*
X0283500Y0290333D03*
X0293500Y0290333D03*
X0293500Y0322333D03*
X0283500Y0322333D03*
X0273500Y0322333D03*
X0263500Y0322333D03*
X0355500Y0322333D03*
X0365500Y0322333D03*
X0375500Y0322333D03*
X0385500Y0322333D03*
X0385500Y0290333D03*
X0375500Y0290333D03*
X0365500Y0290333D03*
X0355500Y0290333D03*
X0355500Y0258333D03*
X0365500Y0258333D03*
X0375500Y0258333D03*
X0385500Y0258333D03*
X0385500Y0226333D03*
X0375500Y0226333D03*
X0365500Y0226333D03*
X0355500Y0226333D03*
X0355500Y0194333D03*
X0365500Y0194333D03*
X0375500Y0194333D03*
X0385500Y0194333D03*
X0385500Y0162333D03*
X0375500Y0162333D03*
X0365500Y0162333D03*
X0355500Y0162333D03*
X0355500Y0130333D03*
X0365500Y0130333D03*
X0375500Y0130333D03*
X0385500Y0130333D03*
X0385500Y0098333D03*
X0375500Y0098333D03*
X0365500Y0098333D03*
X0355500Y0098333D03*
D11*
X0350500Y0104833D03*
X0350500Y0136833D03*
X0350500Y0168833D03*
X0350500Y0200833D03*
X0350500Y0232833D03*
X0350500Y0264833D03*
X0350500Y0296833D03*
X0350500Y0328833D03*
X0258500Y0328833D03*
X0258500Y0296833D03*
X0258500Y0264833D03*
X0258500Y0232833D03*
X0258500Y0200833D03*
X0258500Y0168833D03*
X0258500Y0136833D03*
X0258500Y0104833D03*
X0166500Y0104833D03*
X0166500Y0136833D03*
X0166500Y0168833D03*
X0166500Y0200833D03*
X0166500Y0232833D03*
X0166500Y0264833D03*
X0166500Y0296833D03*
X0166500Y0328833D03*
X0074500Y0328833D03*
X0074500Y0296833D03*
X0074500Y0264833D03*
X0074500Y0232833D03*
X0074500Y0200833D03*
X0074500Y0168833D03*
X0074500Y0136833D03*
X0074500Y0104833D03*
D12*
X0107500Y0104833D01*
X0109500Y0102833D01*
X0109500Y0098333D01*
X0109500Y0130333D02*
X0109500Y0134833D01*
X0107500Y0136833D01*
X0074500Y0136833D01*
X0109500Y0162333D02*
X0109500Y0166833D01*
X0107500Y0168833D01*
X0074500Y0168833D01*
X0109500Y0194333D02*
X0109500Y0198833D01*
X0107500Y0200833D01*
X0074500Y0200833D01*
X0109500Y0226333D02*
X0109500Y0230833D01*
X0107500Y0232833D01*
X0074500Y0232833D01*
X0109500Y0258333D02*
X0109500Y0262833D01*
X0107500Y0264833D01*
X0074500Y0264833D01*
X0109500Y0290333D02*
X0109500Y0294833D01*
X0107500Y0296833D01*
X0074500Y0296833D01*
X0109500Y0322333D02*
X0109500Y0326833D01*
X0107500Y0328833D01*
X0074500Y0328833D01*
X0166500Y0328833D02*
X0199500Y0328833D01*
X0201500Y0326833D01*
X0201500Y0322333D01*
X0199500Y0296833D02*
X0201500Y0294833D01*
X0201500Y0290333D01*
X0199500Y0296833D02*
X0166500Y0296833D01*
X0166500Y0264833D02*
X0199500Y0264833D01*
X0201500Y0262833D01*
X0201500Y0258333D01*
X0199500Y0232833D02*
X0166500Y0232833D01*
X0199500Y0232833D02*
X0201500Y0230833D01*
X0201500Y0226333D01*
X0199500Y0200833D02*
X0166500Y0200833D01*
X0199500Y0200833D02*
X0201500Y0198833D01*
X0201500Y0194333D01*
X0199500Y0168833D02*
X0201500Y0166833D01*
X0201500Y0162333D01*
X0199500Y0168833D02*
X0166500Y0168833D01*
X0166500Y0136833D02*
X0199500Y0136833D01*
X0201500Y0134833D01*
X0201500Y0130333D01*
X0199500Y0104833D02*
X0201500Y0102833D01*
X0201500Y0098333D01*
X0199500Y0104833D02*
X0166500Y0104833D01*
X0258500Y0104833D02*
X0291500Y0104833D01*
X0293500Y0102833D01*
X0293500Y0098333D01*
X0293500Y0130333D02*
X0293500Y0134833D01*
X0291500Y0136833D01*
X0258500Y0136833D01*
X0293500Y0162333D02*
X0293500Y0166833D01*
X0291500Y0168833D01*
X0258500Y0168833D01*
X0293500Y0194333D02*
X0293500Y0198833D01*
X0291500Y0200833D01*
X0258500Y0200833D01*
X0293500Y0226333D02*
X0293500Y0230833D01*
X0291500Y0232833D01*
X0258500Y0232833D01*
X0293500Y0258333D02*
X0293500Y0262833D01*
X0291500Y0264833D01*
X0258500Y0264833D01*
X0293500Y0290333D02*
X0293500Y0294833D01*
X0291500Y0296833D01*
X0258500Y0296833D01*
X0293500Y0322333D02*
X0293500Y0326833D01*
X0291500Y0328833D01*
X0258500Y0328833D01*
X0350500Y0328833D02*
X0383500Y0328833D01*
X0385500Y0326833D01*
X0385500Y0322333D01*
X0383500Y0296833D02*
X0350500Y0296833D01*
X0383500Y0296833D02*
X0385500Y0294833D01*
X0385500Y0290333D01*
X0383500Y0264833D02*
X0350500Y0264833D01*
X0383500Y0264833D02*
X0385500Y0262833D01*
X0385500Y0258333D01*
X0383500Y0232833D02*
X0350500Y0232833D01*
X0383500Y0232833D02*
X0385500Y0230833D01*
X0385500Y0226333D01*
X0383500Y0200833D02*
X0350500Y0200833D01*
X0383500Y0200833D02*
X0385500Y0198833D01*
X0385500Y0194333D01*
X0383500Y0168833D02*
X0350500Y0168833D01*
X0383500Y0168833D02*
X0385500Y0166833D01*
X0385500Y0162333D01*
X0383500Y0136833D02*
X0350500Y0136833D01*
X0383500Y0136833D02*
X0385500Y0134833D01*
X0385500Y0130333D01*
X0383500Y0104833D02*
X0350500Y0104833D01*
X0383500Y0104833D02*
X0385500Y0102833D01*
X0385500Y0098333D01*
M02*
